<svg xmlns="http://www.w3.org/2000/svg" width="18" height="19" viewBox="0 0 18 19">
    <path fill="#FD7D40" fill-rule="nonzero" d="M13.152 15.033H9.684v-1.227h3.468V10.34h1.226v3.467h3.467v1.227h-3.467V18.5h-1.226v-3.467zm1.78-9.592v1.705h-1.08v-5.42H2.394c-.508 0-.92.47-.92 1.047v11.584l.658-.4a.917.917 0 0 1 .967.002l1.223.74 1.175-.741a.92.92 0 0 1 .966 0l1.223.74.46 1.083a.917.917 0 0 1-.967 0l-1.224-.74-1.174.74a.932.932 0 0 1-.484.137.93.93 0 0 1-.483-.137l-1.223-.74-.688.445a.913.913 0 0 1-1.011-.029c-.312-.212-.499-.587-.499-1V2.773C.393 1.52 1.291.5 2.394.5h11.998v.614V.5c.642 0 1.203.267 1.622.772 1.015 1.223.909 3.495.904 3.592l-.03.577h-1.956zm-.271-1.227h1.025c-.043-.661-.209-1.593-.69-2.103-.1-.106-.212-.19-.335-.251v2.354zm-10.895.783h7.87V3.873h-7.87v1.124zm0 3.373h7.87V7.246h-7.87V8.37zm0 3.373h5.622v-1.124H3.766v1.124z"/>
</svg>
