<svg xmlns="http://www.w3.org/2000/svg" width="26" height="25" viewBox="0 0 26 25">
    <g fill="none" fill-rule="evenodd" transform="translate(.5)">
        <rect width="25" height="25" fill="#FD7D40" rx="3"/>
        <path fill="#FFF" fill-rule="nonzero" d="M16.652 18.033h-3.468v-1.227h3.468V13.34h1.226v3.467h3.467v1.227h-3.467V21.5h-1.226v-3.467zm1.78-9.592v1.705h-1.08v-5.42H5.894c-.508 0-.92.47-.92 1.047v11.584l.658-.4a.917.917 0 0 1 .967.002l1.223.74 1.175-.741a.92.92 0 0 1 .966 0l1.223.74.46 1.083a.917.917 0 0 1-.967 0l-1.224-.74-1.174.74a.932.932 0 0 1-.484.137.93.93 0 0 1-.483-.137l-1.223-.74-.688.445a.913.913 0 0 1-1.011-.029c-.312-.212-.499-.587-.499-1V5.773c0-1.253.898-2.273 2.001-2.273h11.998v.614V3.5c.642 0 1.203.267 1.622.772 1.015 1.223.909 3.495.904 3.592l-.03.577h-1.956zm-.271-1.227h1.025c-.043-.661-.209-1.593-.69-2.103-.1-.106-.212-.19-.335-.251v2.354zm-10.895.783h7.87V6.873h-7.87v1.124zm0 3.373h7.87v-1.124h-7.87v1.124zm0 3.373h5.622v-1.124H7.266v1.124z"/>
    </g>
</svg>
