<svg xmlns="http://www.w3.org/2000/svg" width="25" height="25" viewBox="0 0 25 25">
    <g fill="none" fill-rule="evenodd">
        <rect width="25" height="25" fill="#FBBC05" rx="3"/>
        <path fill="#FFF" fill-rule="nonzero" d="M21.316 5.753c.054.124.099.267.133.432.034.165.051.336.051.514s-.034.357-.102.535c-.069.178-.178.35-.328.514-.164.165-.31.309-.44.432s-.242.233-.338.33c-.11.109-.211.205-.307.287l-3.828-3.846c.163-.15.358-.333.583-.545.225-.213.413-.38.563-.504a1.795 1.795 0 0 1 1.198-.401c.198.007.389.038.573.093.184.054.345.116.481.185.287.15.604.414.952.792.348.377.618.77.809 1.182zM5.368 15.79l.573-.586c.3-.309.676-.69 1.126-1.142l1.494-1.501 1.659-1.666 4.401-4.422 3.829 3.867-4.402 4.421-1.638 1.666c-.546.535-1.037 1.025-1.474 1.47-.437.446-.798.813-1.085 1.101a8.874 8.874 0 0 1-.982.885 2.559 2.559 0 0 1-.553.329c-.191.096-.471.212-.84.35-.368.136-.754.27-1.156.4-.403.13-.785.244-1.147.34a8.649 8.649 0 0 1-.808.185c-.369.04-.615-.014-.737-.165-.123-.15-.157-.404-.103-.76.027-.193.092-.47.195-.834.102-.363.211-.74.327-1.13.116-.392.229-.752.338-1.08.11-.33.198-.556.266-.68a3.44 3.44 0 0 1 .277-.524c.102-.157.249-.332.44-.524z"/>
    </g>
</svg>
