<svg xmlns="http://www.w3.org/2000/svg" width="19" height="19" viewBox="0 0 19 19">
    <path fill="#FBBC05" fill-rule="nonzero" d="M17.982 3.003c.055.124.1.267.133.432.035.165.052.336.052.514s-.034.357-.103.535c-.068.178-.177.35-.327.514-.164.165-.31.309-.44.432s-.243.233-.338.33c-.11.109-.212.205-.307.287l-3.829-3.846c.164-.15.359-.333.584-.545.225-.213.413-.38.563-.504a1.795 1.795 0 0 1 1.197-.401c.198.007.39.038.574.093.184.054.344.116.48.185.287.15.605.414.953.792.348.377.617.77.808 1.182zM2.034 13.04l.574-.586c.3-.309.675-.69 1.126-1.142l1.494-1.501 1.658-1.666 4.402-4.422 3.828 3.867-4.401 4.421-1.638 1.666c-.546.535-1.037 1.025-1.474 1.47-.437.446-.799.813-1.085 1.101a8.874 8.874 0 0 1-.983.885 2.559 2.559 0 0 1-.553.329c-.19.096-.47.212-.839.35-.368.136-.754.27-1.157.4-.402.13-.784.244-1.146.34a8.649 8.649 0 0 1-.809.185c-.368.04-.614-.014-.737-.165-.123-.15-.157-.404-.102-.76.027-.193.092-.47.194-.834.103-.363.212-.74.328-1.13.116-.392.229-.752.338-1.08.109-.33.198-.556.266-.68a3.44 3.44 0 0 1 .276-.524c.103-.157.25-.332.44-.524z"/>
</svg>
