<svg xmlns="http://www.w3.org/2000/svg" width="25" height="25" viewBox="0 0 25 25">
    <g fill="none" fill-rule="evenodd">
        <path fill="#FFF" d="M11.524 8.275a.062.062 0 0 0-.046-.018h-.341a.69.69 0 0 0-.128-.287h.465a.062.062 0 0 0 .046-.018.062.062 0 0 0 .018-.046v-.203a.062.062 0 0 0-.018-.046.062.062 0 0 0-.046-.018H9.815a.062.062 0 0 0-.046.018.062.062 0 0 0-.018.046v.265c0 .017.007.032.02.045a.061.061 0 0 0 .044.019h.29c.28 0 .458.075.533.225h-.823a.062.062 0 0 0-.064.064v.203c0 .019.006.034.018.046a.062.062 0 0 0 .046.018h.851a.39.39 0 0 1-.204.25.9.9 0 0 1-.424.085h-.223a.06.06 0 0 0-.045.019.061.061 0 0 0-.019.045v.253a.06.06 0 0 0 .018.044c.255.271.586.65.993 1.138a.059.059 0 0 0 .05.024h.389c.028 0 .047-.012.057-.036.014-.024.011-.046-.007-.067a21.896 21.896 0 0 0-.916-1.069c.226-.027.41-.1.55-.22a.746.746 0 0 0 .258-.466h.335a.062.062 0 0 0 .064-.064v-.203a.062.062 0 0 0-.018-.046z"/>
        <g fill="#54A004" fill-rule="nonzero">
            <path d="M21.852 7.644v9.424H3.776V7.644h18.076m1.539-1.538H2.237v12.5h21.154v-12.5z"/>
            <g transform="translate(1.496 5.983)">
                <path d="M16.126.123l2.165 2.165c-.016.08-.048.154-.048.239 0 .69.559 1.247 1.248 1.247.085 0 .158-.032.238-.047l2.166 2.165V.123h-5.769z"/>
                <circle cx="17.568" cy="6.373" r="1.248"/>
                <ellipse cx="11.318" cy="6.373" rx="3.775" ry="3.283"/>
                <circle cx="5.068" cy="6.373" r="1.247"/>
                <path d="M.741 5.892l2.166-2.165c.08.016.154.048.238.048.69 0 1.247-.559 1.247-1.248 0-.085-.031-.158-.048-.238L6.511.123H.74v5.77zM4.393 10.22c0-.69-.558-1.248-1.248-1.248-.084 0-.158.032-.237.047L.74 6.854v5.77h5.77l-2.166-2.166c.017-.08.048-.155.048-.239zM19.491 8.971c-.69 0-1.247.559-1.247 1.248 0 .085.032.158.048.238l-2.166 2.166h5.77v-5.77L19.73 9.02c-.08-.016-.154-.048-.239-.048z"/>
            </g>
        </g>
        <path fill="#FFF" d="M13.882 11.422a.076.076 0 0 0-.056-.022h-.415a.839.839 0 0 0-.155-.35h.565a.076.076 0 0 0 .056-.021.076.076 0 0 0 .022-.056v-.248a.076.076 0 0 0-.022-.055.076.076 0 0 0-.056-.022h-2.019a.076.076 0 0 0-.056.022.076.076 0 0 0-.022.055v.323c0 .021.008.04.024.055a.075.075 0 0 0 .054.023h.352c.341 0 .558.091.65.274h-1.002a.075.075 0 0 0-.078.077v.248c0 .023.008.041.022.056a.076.076 0 0 0 .056.022h1.036a.474.474 0 0 1-.249.303c-.13.07-.302.104-.515.104h-.272a.074.074 0 0 0-.054.023.075.075 0 0 0-.024.055v.308c0 .021.008.039.022.054.31.33.714.791 1.209 1.385.014.02.035.03.06.03h.474c.034 0 .057-.015.07-.045.016-.029.013-.056-.01-.082a26.65 26.65 0 0 0-1.114-1.3 1.23 1.23 0 0 0 .67-.267.908.908 0 0 0 .313-.568h.408a.075.075 0 0 0 .078-.078v-.247a.076.076 0 0 0-.022-.056z"/>
    </g>
</svg>
