<svg xmlns="http://www.w3.org/2000/svg" width="25" height="25" viewBox="0 0 25 25">
    <g fill="none" fill-rule="evenodd">
        <rect width="25" height="25" fill="#4285F4" opacity="1" rx="3"/>
        <path fill="#FFF" fill-rule="nonzero" d="M12.5 15.773c1.655 0 3-1.345 3-3s-1.345-3-3-3-3 1.345-3 3 1.345 3 3 3zm0 2.727c-4.315 0-7.811-4.117-8.79-5.38-.28-.372-.28-.889 0-1.24.979-1.263 4.475-5.38 8.79-5.38 4.315 0 7.811 4.117 8.79 5.38.28.372.28.889 0 1.24-.979 1.263-4.475 5.38-8.79 5.38zm-.273-7.636v.97a.673.673 0 0 0-.666.666h-.97c.02-.91.747-1.636 1.636-1.636zm.273-2.728c-2.26 0-4.09 1.954-4.09 4.364s1.83 4.364 4.09 4.364 4.09-1.954 4.09-4.364-1.83-4.364-4.09-4.364z"/>
    </g>
</svg>
