<svg xmlns="http://www.w3.org/2000/svg" xmlns:xlink="http://www.w3.org/1999/xlink" width="31" height="30" viewBox="0 0 31 30">
    <defs>
        <path id="a" d="M.01.112h6.878V7H.01z"/>
    </defs>
    <g fill="none" fill-rule="evenodd">
        <rect width="22" height="22" x=".877" y=".877" fill="#E26153" rx="11" transform="translate(4.266 3)"/>
        <g transform="translate(12.766 11.5)">
            <mask id="b" fill="#fff">
                <use xlink:href="#a"/>
            </mask>
            <path fill="#FFF" d="M4.053 3.556L6.762.848a.43.43 0 0 0-.609-.61L3.444 2.947.736.238a.43.43 0 1 0-.61.61l2.71 2.708-2.71 2.708a.431.431 0 0 0 .61.61l2.708-2.709 2.709 2.709a.43.43 0 1 0 .609-.61L4.053 3.556z" mask="url(#b)"/>
        </g>
    </g>
</svg>
