<?xml version="1.0" encoding="UTF-8"?>
<svg width="89px" height="89px" viewBox="0 0 89 89" version="1.1" xmlns="http://www.w3.org/2000/svg" xmlns:xlink="http://www.w3.org/1999/xlink">
    <!-- Generator: Sketch 52.2 (67145) - http://www.bohemiancoding.com/sketch -->
    <title>Group 7</title>
    <desc>Created with Sketch.</desc>
    <g id="Flow" stroke="none" stroke-width="1" fill="none" fill-rule="evenodd">
        <g id="Group-7">
            <path d="M44.4649308,0.160602439 C20.0965334,0.160602439 0.340072804,19.917063 0.340072804,44.2858282 C0.340072804,68.6542256 20.0965334,88.4121571 44.4649308,88.4121571 C68.8336959,88.4121571 88.5927306,68.6542256 88.5927306,44.2858282 C88.5912597,19.917063 68.8336959,0.160602439 44.4649308,0.160602439 Z" id="Fill-4-path" fill="#FD6946" fill-rule="nonzero"></path>
            <g id="bill" transform="translate(26.466402, 22.286380)">
                <g id="Group-3" fill="#FFFFFF">
                    <path d="M28.5349779,45.8818286 L32.1045375,42.7536136 L35.673152,45.8818286 L35.673152,0 L32.0975682,3.12821503 L28.5248193,0 L24.9576223,3.12821503 L21.394087,0 L17.8287799,3.12821503 L14.2647721,0 L10.7021819,3.12821503 L7.13817409,0 L3.56861455,3.12821503 L0,0 L0,45.8818286 L3.57558381,42.7536136 L7.14833267,45.8818286 L10.7155298,42.7536136 L14.279065,45.8818286 L17.8443721,42.7536136 L21.4083799,45.8818286 L24.9709702,42.7536136 L28.5349779,45.8818286 Z M20.1990364,17.9100121 L20.1990364,22.8402963 L15.4741156,22.8402963 L15.4741156,17.9100121 L9.68608763,17.9100121 L9.68608763,13.8852902 L15.4741156,13.8852902 L15.4741156,8.95500603 L20.1990364,8.95500603 L20.1990364,13.8852902 L25.9870644,13.8852902 L25.9870644,17.9100121 L20.1990364,17.9100121 Z" id="Fill-1"></path>
                </g>
                <path d="M22.4728543,29.3171805 L13.2002977,29.3171805 C12.6444836,29.3171805 12.1941173,28.8668141 12.1941173,28.311 C12.1941173,27.7552866 12.6444836,27.3048196 13.2002977,27.3048196 L22.4728543,27.3048196 C23.0286684,27.3048196 23.4790348,27.7552866 23.4790348,28.311 C23.4790348,28.8668141 23.0286684,29.3171805 22.4728543,29.3171805 Z" id="Fill-5" fill="#FD6946"></path>
                <path d="M26.8890809,33.4885028 L8.78407109,33.4885028 C8.22835763,33.4885028 7.77789064,33.0381364 7.77789064,32.4823223 C7.77789064,31.9270113 8.22835763,31.4761419 8.78407109,31.4761419 L26.8890809,31.4761419 C27.4447944,31.4761419 27.8952614,31.9270113 27.8952614,32.4823223 C27.8952614,33.0381364 27.4447944,33.4885028 26.8890809,33.4885028 Z" id="Fill-6" fill="#FD6946"></path>
                <path d="M26.8890809,37.6594226 L8.78407109,37.6594226 C8.22835763,37.6594226 7.77789064,37.2090562 7.77789064,36.6532422 C7.77789064,36.0975287 8.22835763,35.6470617 8.78407109,35.6470617 L26.8890809,35.6470617 C27.4447944,35.6470617 27.8952614,36.0975287 27.8952614,36.6532422 C27.8952614,37.2090562 27.4447944,37.6594226 26.8890809,37.6594226 Z" id="Fill-7" fill="#FD6946"></path>
            </g>
        </g>
    </g>
</svg>