<?xml version="1.0" encoding="UTF-8"?>
<svg width="183px" height="36px" viewBox="0 0 183 36" version="1.1" xmlns="http://www.w3.org/2000/svg" xmlns:xlink="http://www.w3.org/1999/xlink">
    <!-- Generator: Sketch 50.2 (55047) - http://www.bohemiancoding.com/sketch -->
    <title>logo</title>
    <desc>Created with Sketch.</desc>
    <defs>
        <linearGradient x1="100%" y1="100%" x2="-98.6180338%" y2="-105.434274%" id="linearGradient-1">
            <stop stop-color="#FF4E50" offset="0%"></stop>
            <stop stop-color="#F9D423" offset="100%"></stop>
        </linearGradient>
        <path d="M1.45431722,21.8 C1.25431622,21.8 1.08431792,21.7300007 0.944317215,21.59 C0.804316515,21.4499993 0.734317215,21.280001 0.734317215,21.08 L0.734317215,1.55 C0.734317215,1.3299989 0.799316565,1.1500007 0.929317215,1.01 C1.05931787,0.8699993 1.23431612,0.8 1.45431722,0.8 L10.1543172,0.8 C12.4943289,0.8 14.2443114,1.31499485 15.4043172,2.345 C16.564323,3.37500515 17.1443172,4.7799911 17.1443172,6.56 C17.1443172,7.6000052 16.8893198,8.48499635 16.3793172,9.215 C15.8693147,9.94500365 15.2743206,10.4699984 14.5943172,10.79 C15.4343214,11.1700019 16.1443143,11.7899957 16.7243172,12.65 C17.3043201,13.5100043 17.5943172,14.4899945 17.5943172,15.59 C17.5943172,17.4500093 16.9643235,18.9499943 15.7043172,20.09 C14.4443109,21.2300057 12.6843285,21.8 10.4243172,21.8 L1.45431722,21.8 Z M9.61431722,9.41 C10.6343223,9.41 11.4193145,9.1600025 11.9693172,8.66 C12.51932,8.1599975 12.7943172,7.4900042 12.7943172,6.65 C12.7943172,5.8099958 12.5243199,5.1600023 11.9843172,4.7 C11.4443145,4.2399977 10.6543224,4.01 9.61431722,4.01 L4.96431722,4.01 L4.96431722,9.41 L9.61431722,9.41 Z M9.91431722,18.59 C10.9543224,18.59 11.7643143,18.3050029 12.3443172,17.735 C12.9243201,17.1649972 13.2143172,16.4400044 13.2143172,15.56 C13.2143172,14.6799956 12.9193202,13.9550029 12.3293172,13.385 C11.7393143,12.8149972 10.9343223,12.53 9.91431722,12.53 L4.96431722,12.53 L4.96431722,18.59 L9.91431722,18.59 Z M22.0643172,21.8 C21.8643162,21.8 21.6943179,21.7300007 21.5543172,21.59 C21.4143165,21.4499993 21.3443172,21.280001 21.3443172,21.08 L21.3443172,1.55 C21.3443172,1.3299989 21.4093166,1.1500007 21.5393172,1.01 C21.6693179,0.8699993 21.8443161,0.8 22.0643172,0.8 L30.1043172,0.8 C32.5243293,0.8 34.4243103,1.3699943 35.8043172,2.51 C37.1843241,3.6500057 37.8743172,5.3099891 37.8743172,7.49 C37.8743172,9.6500108 37.1843241,11.2849945 35.8043172,12.395 C34.4243103,13.5050056 32.5243293,14.06 30.1043172,14.06 L25.6943172,14.06 L25.6943172,21.08 C25.6943172,21.3000011 25.6243179,21.4749994 25.4843172,21.605 C25.3443165,21.7350007 25.1643183,21.8 24.9443172,21.8 L22.0643172,21.8 Z M29.9543172,10.7 C31.114323,10.7 31.9993142,10.4250028 32.6093172,9.875 C33.2193203,9.32499725 33.5243172,8.5200053 33.5243172,7.46 C33.5243172,6.4199948 33.2293202,5.6100029 32.6393172,5.03 C32.0493143,4.4499971 31.1543232,4.16 29.9543172,4.16 L25.6343172,4.16 L25.6343172,10.7 L29.9543172,10.7 Z M38.5043172,21.8 C38.3243163,21.8 38.1743178,21.7400006 38.0543172,21.62 C37.9343166,21.4999994 37.8743172,21.3500009 37.8743172,21.17 L37.9343172,20.9 L45.1343172,1.55 C45.3343182,1.0499975 45.6943146,0.8 46.2143172,0.8 L49.5143172,0.8 C50.0343198,0.8 50.3943162,1.0499975 50.5943172,1.55 L57.7943172,20.9 L57.8543172,21.17 C57.8543172,21.3500009 57.7893179,21.4999994 57.6593172,21.62 C57.5293166,21.7400006 57.384318,21.8 57.2243172,21.8 L54.5543172,21.8 C54.1343151,21.8 53.844318,21.6100019 53.6843172,21.23 L52.3043172,17.6 L43.4243172,17.6 L42.0443172,21.23 C41.8843164,21.6100019 41.5943193,21.8 41.1743172,21.8 L38.5043172,21.8 Z M44.4743172,14.12 L51.2543172,14.12 L47.8643172,4.88 L44.4743172,14.12 Z M67.6343172,22.1 C65.8343082,22.1 64.2943236,21.8300027 63.0143172,21.29 C61.7343108,20.7499973 60.7643205,20.0400044 60.1043172,19.16 C59.4443139,18.2799956 59.0943174,17.3200052 59.0543172,16.28 C59.0543172,16.1199992 59.1143166,15.9750007 59.2343172,15.845 C59.3543178,15.7149994 59.5043163,15.65 59.6843172,15.65 L62.4143172,15.65 C62.6343183,15.65 62.8143165,15.6999995 62.9543172,15.8 C63.0943179,15.9000005 63.2243166,16.0399991 63.3443172,16.22 C63.5443182,16.9000034 63.9993137,17.4699977 64.7093172,17.93 C65.4193208,18.3900023 66.394311,18.62 67.6343172,18.62 C69.0343242,18.62 70.0893137,18.3850024 70.7993172,17.915 C71.5093208,17.4449977 71.8643172,16.8000041 71.8643172,15.98 C71.8643172,15.4399973 71.684319,14.9900018 71.3243172,14.63 C70.9643154,14.2699982 70.4193209,13.9550014 69.6893172,13.685 C68.9593136,13.4149987 67.8743244,13.0900019 66.4343172,12.71 C64.0743054,12.1499972 62.3443227,11.4100046 61.2443172,10.49 C60.1443117,9.5699954 59.5943172,8.2500086 59.5943172,6.53 C59.5943172,5.3699942 59.914314,4.33500455 60.5543172,3.425 C61.1943204,2.51499545 62.1093113,1.8000026 63.2993172,1.28 C64.4893232,0.7599974 65.8743093,0.5 67.4543172,0.5 C69.1143255,0.5 70.5493112,0.7899971 71.7593172,1.37 C72.9693233,1.9500029 73.8893141,2.67499565 74.5193172,3.545 C75.1493204,4.41500435 75.484317,5.2799957 75.5243172,6.14 C75.5243172,6.3000008 75.4643178,6.44499935 75.3443172,6.575 C75.2243166,6.70500065 75.0743181,6.77 74.8943172,6.77 L72.0443172,6.77 C71.604315,6.77 71.304318,6.5900018 71.1443172,6.23 C71.0443167,5.5899968 70.6543206,5.05500215 69.9743172,4.625 C69.2943138,4.19499785 68.4543222,3.98 67.4543172,3.98 C66.3543117,3.98 65.4893204,4.1899979 64.8593172,4.61 C64.2293141,5.0300021 63.9143172,5.639996 63.9143172,6.44 C63.9143172,6.9800027 64.0743156,7.4299982 64.3943172,7.79 C64.7143188,8.1500018 65.2143138,8.46499865 65.8943172,8.735 C66.5743206,9.00500135 67.5643107,9.3099983 68.8643172,9.65 C70.6443261,10.050002 72.059312,10.4999975 73.1093172,11 C74.1593225,11.5000025 74.9343147,12.1299962 75.4343172,12.89 C75.9343197,13.6500038 76.1843172,14.6199941 76.1843172,15.8 C76.1843172,17.1000065 75.8293208,18.2249953 75.1193172,19.175 C74.4093137,20.1250048 73.4093237,20.8499975 72.1193172,21.35 C70.8293108,21.8500025 69.3343257,22.1 67.6343172,22.1 Z" id="path-2"></path>
    </defs>
    <g id="Symbols" stroke="none" stroke-width="1" fill="none" fill-rule="evenodd">
        <g id="header" transform="translate(-21.000000, -22.000000)">
            <g id="logo" transform="translate(21.000000, 22.000000)">
                <g id="Group-2" transform="translate(47.728117, 0.500000)">
                    <g id="BPAS">
                        <use fill="#F3B93E" xlink:href="#path-2"></use>
                        <use fill="url(#linearGradient-1)" xlink:href="#path-2"></use>
                    </g>
                    <path d="M0.706317215,33.6164169 C0.652983615,33.6164169 0.611650695,33.5977504 0.582317215,33.5604169 C0.552983735,33.5230833 0.543650495,33.4777505 0.554317215,33.4244169 L1.65831722,28.2164169 C1.66898394,28.1577499 1.69698366,28.1097504 1.74231722,28.0724169 C1.78765078,28.0350833 1.83698362,28.0164169 1.89031722,28.0164169 L4.15431722,28.0164169 C4.66631978,28.0164169 5.06631578,28.1257491 5.35431722,28.3444169 C5.64231866,28.5630846 5.78631722,28.8590817 5.78631722,29.2324169 C5.78631722,29.3444174 5.77565066,29.451083 5.75431722,29.5524169 C5.69565026,29.8457517 5.5783181,30.0857493 5.40231722,30.2724169 C5.22631634,30.4590845 5.03965154,30.5950831 4.84231722,30.6804169 C5.00765138,30.771084 5.14098338,30.9017493 5.24231722,31.0724169 C5.34365106,31.2430844 5.39431722,31.4377491 5.39431722,31.6564169 C5.39431722,31.7684174 5.38365066,31.8697497 5.36231722,31.9604169 C5.25031666,32.4724194 5.01565234,32.8764154 4.65831722,33.1724169 C4.3009821,33.4684183 3.80498706,33.6164169 3.17031722,33.6164169 L0.706317215,33.6164169 Z M3.56231722,30.3124169 C3.8716521,30.3124169 4.12364958,30.2257511 4.31831722,30.0524169 C4.51298486,29.8790827 4.61031722,29.6564182 4.61031722,29.3844169 C4.61031722,29.0430818 4.3889861,28.8724169 3.94631722,28.8724169 L2.65031722,28.8724169 L2.34631722,30.3124169 L3.56231722,30.3124169 Z M3.13831722,32.7604169 C3.34631826,32.7604169 3.53298306,32.7124173 3.69831722,32.6164169 C3.86365138,32.5204164 3.9916501,32.393751 4.08231722,32.2364169 C4.17298434,32.0790827 4.21831722,31.9097511 4.21831722,31.7284169 C4.21831722,31.3390816 3.97565298,31.1444169 3.49031722,31.1444169 L2.16231722,31.1444169 L1.81831722,32.7604169 L3.13831722,32.7604169 Z M7.49831722,33.6964169 C7.03964826,33.6964169 6.69298506,33.5684181 6.45831722,33.3124169 C6.22364938,33.0564156 6.10631722,32.7070857 6.10631722,32.2644169 C6.10631722,32.1310829 6.11965042,31.9764177 6.14631722,31.8004169 C6.16765066,31.6510828 6.20498362,31.4750845 6.25831722,31.2724169 C6.4076513,30.696414 6.65298218,30.2364186 6.99431722,29.8924169 C7.33565226,29.5484151 7.78098114,29.3764169 8.33031722,29.3764169 C8.6396521,29.3764169 8.88231634,29.4230831 9.05831722,29.5164169 C9.2343181,29.6097507 9.37565002,29.7417493 9.48231722,29.9124169 L9.53831722,29.6484169 C9.54898394,29.5897499 9.57698366,29.5430837 9.62231722,29.5084169 C9.66765078,29.47375 9.71698362,29.4564169 9.77031722,29.4564169 L10.4103172,29.4564169 C10.4689842,29.4564169 10.5129837,29.4750833 10.5423172,29.5124169 C10.5716507,29.5497504 10.5809839,29.5950833 10.5703172,29.6484169 L9.77031722,33.4244169 C9.7596505,33.4830838 9.73165078,33.52975 9.68631722,33.5644169 C9.64098366,33.5990837 9.59165082,33.6164169 9.53831722,33.6164169 L8.89831722,33.6164169 C8.83965026,33.6164169 8.7956507,33.5977504 8.76631722,33.5604169 C8.73698374,33.5230833 8.7276505,33.4777505 8.73831722,33.4244169 L8.80231722,33.1284169 C8.61564962,33.3150845 8.42498486,33.4564164 8.23031722,33.5524169 C8.03564958,33.6484173 7.79165202,33.6964169 7.49831722,33.6964169 Z M7.86631722,32.8324169 C8.17031874,32.8324169 8.42364954,32.7337512 8.62631722,32.5364169 C8.8289849,32.3390825 8.96498354,32.0990849 9.03431722,31.8164169 C9.08765082,31.5977491 9.13031706,31.3924178 9.16231722,31.2004169 C9.1783173,31.1097497 9.18631722,31.0244173 9.18631722,30.9444169 C9.18631722,30.7364158 9.13031778,30.5670842 9.01831722,30.4364169 C8.90631666,30.3057495 8.72765178,30.2404169 8.48231722,30.2404169 C7.94364786,30.2404169 7.57031826,30.5924133 7.36231722,31.2964169 C7.31965034,31.4404176 7.28498402,31.600416 7.25831722,31.7764169 C7.23698378,31.9364177 7.22631722,32.0537498 7.22631722,32.1284169 C7.22631722,32.352418 7.27431674,32.5257496 7.37031722,32.6484169 C7.4663177,32.7710841 7.63164938,32.8324169 7.86631722,32.8324169 Z M10.9863172,33.6164169 C10.9276503,33.6164169 10.8836507,33.5977504 10.8543172,33.5604169 C10.8249837,33.5230833 10.8156505,33.4777505 10.8263172,33.4244169 L11.6343172,29.6484169 C11.6449839,29.5897499 11.6729837,29.5430837 11.7183172,29.5084169 C11.7636508,29.47375 11.8129836,29.4564169 11.8663172,29.4564169 L12.5303172,29.4564169 C12.5889842,29.4564169 12.6316504,29.4750833 12.6583172,29.5124169 C12.684984,29.5497504 12.6929839,29.5950833 12.6823172,29.6484169 L12.6103172,29.9764169 C12.7863181,29.7950826 12.9916494,29.6497507 13.2263172,29.5404169 C13.4609851,29.431083 13.7196491,29.3764169 14.0023172,29.3764169 C14.4396527,29.3764169 14.7743161,29.4857491 15.0063172,29.7044169 C15.2383184,29.9230846 15.3543172,30.2297482 15.3543172,30.6244169 C15.3543172,30.7790843 15.3329841,30.9630825 15.2903172,31.1764169 L14.8103172,33.4244169 C14.7996505,33.4830838 14.7716508,33.52975 14.7263172,33.5644169 C14.6809837,33.5990837 14.6316508,33.6164169 14.5783172,33.6164169 L13.8663172,33.6164169 C13.8076503,33.6164169 13.7636507,33.5977504 13.7343172,33.5604169 C13.7049837,33.5230833 13.6956505,33.4777505 13.7063172,33.4244169 L14.1703172,31.2244169 C14.2076507,31.0377493 14.2263172,30.899084 14.2263172,30.8084169 C14.2263172,30.6164159 14.1743177,30.4737507 14.0703172,30.3804169 C13.9663167,30.2870831 13.7996517,30.2404169 13.5703172,30.2404169 C13.2716491,30.2404169 13.0183183,30.3270827 12.8103172,30.5004169 C12.6023162,30.6737511 12.4636509,30.915082 12.3943172,31.2244169 L11.9303172,33.4244169 C11.9196505,33.4830838 11.8916508,33.52975 11.8463172,33.5644169 C11.8009837,33.5990837 11.7516508,33.6164169 11.6983172,33.6164169 L10.9863172,33.6164169 Z M15.9863172,33.6164169 C15.9276503,33.6164169 15.8836507,33.5977504 15.8543172,33.5604169 C15.8249837,33.5230833 15.8156505,33.4777505 15.8263172,33.4244169 L16.9623172,28.1284169 C16.9729839,28.0697499 16.9996503,28.0230837 17.0423172,27.9884169 C17.0849841,27.95375 17.1329836,27.9364169 17.1863172,27.9364169 L17.8503172,27.9364169 C17.9089842,27.9364169 17.9529837,27.9550833 17.9823172,27.9924169 C18.0116507,28.0297504 18.0209839,28.0750833 18.0103172,28.1284169 L17.4343172,30.8244169 L18.9863172,29.5924169 C19.0023173,29.5817501 19.030317,29.5617503 19.0703172,29.5324169 C19.1103174,29.5030834 19.1489837,29.4830836 19.1863172,29.4724169 C19.2236507,29.4617501 19.266317,29.4564169 19.3143172,29.4564169 L20.1463172,29.4564169 C20.1889841,29.4564169 20.2236504,29.4684167 20.2503172,29.4924169 C20.276984,29.516417 20.2903172,29.5470833 20.2903172,29.5844169 C20.2903172,29.6590839 20.2529843,29.7230833 20.1783172,29.7764169 L18.2103172,31.3764169 L19.6103172,33.3364169 C19.636984,33.3737504 19.6503172,33.4084167 19.6503172,33.4404169 C19.6503172,33.4884171 19.6316507,33.52975 19.5943172,33.5644169 C19.5569837,33.5990837 19.5116508,33.6164169 19.4583172,33.6164169 L18.7143172,33.6164169 C18.6023167,33.6164169 18.5196508,33.5737506 18.4663172,33.4884169 L17.2263172,31.7844169 L16.8743172,33.4244169 C16.8636505,33.4830838 16.8369841,33.52975 16.7943172,33.5644169 C16.7516503,33.5990837 16.7036508,33.6164169 16.6503172,33.6164169 L15.9863172,33.6164169 Z M22.2983172,33.6164169 C22.2449836,33.6164169 22.2036507,33.5977504 22.1743172,33.5604169 C22.1449837,33.5230833 22.1356505,33.4777505 22.1463172,33.4244169 L23.2503172,28.2164169 C23.2609839,28.1577499 23.2889837,28.1097504 23.3343172,28.0724169 C23.3796508,28.0350833 23.4289836,28.0164169 23.4823172,28.0164169 L25.5383172,28.0164169 C26.1036534,28.0164169 26.5516489,28.133749 26.8823172,28.3684169 C27.2129855,28.6030847 27.3783172,28.941748 27.3783172,29.3844169 C27.3783172,29.5070841 27.3623174,29.6457494 27.3303172,29.8004169 C27.0796493,30.9684227 26.2929905,31.5524169 24.9703172,31.5524169 L23.7063172,31.5524169 L23.3063172,33.4244169 C23.2956505,33.4830838 23.2676508,33.52975 23.2223172,33.5644169 C23.1769837,33.5990837 23.1276508,33.6164169 23.0743172,33.6164169 L22.2983172,33.6164169 Z M24.9943172,30.6564169 C25.2983187,30.6564169 25.5556495,30.5817509 25.7663172,30.4324169 C25.9769849,30.2830828 26.1116503,30.0697516 26.1703172,29.7924169 C26.196984,29.6697496 26.2103172,29.5657506 26.2103172,29.4804169 C26.2103172,29.2937493 26.1503178,29.1524173 26.0303172,29.0564169 C25.9103166,28.9604164 25.7089853,28.9124169 25.4263172,28.9124169 L24.2503172,28.9124169 L23.8743172,30.6564169 L24.9943172,30.6564169 Z M28.8663172,33.6964169 C28.4076483,33.6964169 28.0609851,33.5684181 27.8263172,33.3124169 C27.5916494,33.0564156 27.4743172,32.7070857 27.4743172,32.2644169 C27.4743172,32.1310829 27.4876504,31.9764177 27.5143172,31.8004169 C27.5356507,31.6510828 27.5729836,31.4750845 27.6263172,31.2724169 C27.7756513,30.696414 28.0209822,30.2364186 28.3623172,29.8924169 C28.7036523,29.5484151 29.1489811,29.3764169 29.6983172,29.3764169 C30.0076521,29.3764169 30.2503163,29.4230831 30.4263172,29.5164169 C30.6023181,29.6097507 30.74365,29.7417493 30.8503172,29.9124169 L30.9063172,29.6484169 C30.9169839,29.5897499 30.9449837,29.5430837 30.9903172,29.5084169 C31.0356508,29.47375 31.0849836,29.4564169 31.1383172,29.4564169 L31.7783172,29.4564169 C31.8369842,29.4564169 31.8809837,29.4750833 31.9103172,29.5124169 C31.9396507,29.5497504 31.9489839,29.5950833 31.9383172,29.6484169 L31.1383172,33.4244169 C31.1276505,33.4830838 31.0996508,33.52975 31.0543172,33.5644169 C31.0089837,33.5990837 30.9596508,33.6164169 30.9063172,33.6164169 L30.2663172,33.6164169 C30.2076503,33.6164169 30.1636507,33.5977504 30.1343172,33.5604169 C30.1049837,33.5230833 30.0956505,33.4777505 30.1063172,33.4244169 L30.1703172,33.1284169 C29.9836496,33.3150845 29.7929849,33.4564164 29.5983172,33.5524169 C29.4036496,33.6484173 29.159652,33.6964169 28.8663172,33.6964169 Z M29.2343172,32.8324169 C29.5383187,32.8324169 29.7916495,32.7337512 29.9943172,32.5364169 C30.1969849,32.3390825 30.3329835,32.0990849 30.4023172,31.8164169 C30.4556508,31.5977491 30.4983171,31.3924178 30.5303172,31.2004169 C30.5463173,31.1097497 30.5543172,31.0244173 30.5543172,30.9444169 C30.5543172,30.7364158 30.4983178,30.5670842 30.3863172,30.4364169 C30.2743167,30.3057495 30.0956518,30.2404169 29.8503172,30.2404169 C29.3116479,30.2404169 28.9383183,30.5924133 28.7303172,31.2964169 C28.6876503,31.4404176 28.652984,31.600416 28.6263172,31.7764169 C28.6049838,31.9364177 28.5943172,32.0537498 28.5943172,32.1284169 C28.5943172,32.352418 28.6423167,32.5257496 28.7383172,32.6484169 C28.8343177,32.7710841 28.9996494,32.8324169 29.2343172,32.8324169 Z M32.5703172,35.1364169 C32.5329837,35.1364169 32.5023173,35.124417 32.4783172,35.1004169 C32.4543171,35.0764167 32.4423172,35.0457504 32.4423172,35.0084169 C32.4423172,34.9550833 32.4556504,34.912417 32.4823172,34.8804169 L33.4583172,33.3444169 L32.6743172,29.6804169 C32.6636505,29.6217499 32.6756504,29.5697504 32.7103172,29.5244169 C32.7449841,29.4790833 32.8023168,29.4564169 32.8823172,29.4564169 L33.4903172,29.4564169 C33.5969844,29.4564169 33.6609838,29.507083 33.6823172,29.6084169 L34.2103172,32.2164169 L35.8663172,29.6084169 C35.9249842,29.507083 36.0103167,29.4564169 36.1223172,29.4564169 L36.8183172,29.4564169 C36.8609841,29.4564169 36.8956504,29.4684167 36.9223172,29.4924169 C36.948984,29.516417 36.9623172,29.54975 36.9623172,29.5924169 C36.9623172,29.624417 36.9516507,29.6590833 36.9303172,29.6964169 L33.5143172,34.9844169 C33.4556503,35.0857507 33.3703178,35.1364169 33.2583172,35.1364169 L32.5703172,35.1364169 Z M37.0023172,33.6164169 C36.9436503,33.6164169 36.8996507,33.5977504 36.8703172,33.5604169 C36.8409837,33.5230833 36.8316505,33.4777505 36.8423172,33.4244169 L37.6503172,29.6484169 C37.6609839,29.5897499 37.6889837,29.5430837 37.7343172,29.5084169 C37.7796508,29.47375 37.8289836,29.4564169 37.8823172,29.4564169 L38.5143172,29.4564169 C38.5676508,29.4564169 38.6076504,29.47375 38.6343172,29.5084169 C38.660984,29.5430837 38.6689839,29.5897499 38.6583172,29.6484169 L38.6023172,29.9204169 C38.7783181,29.744416 38.956983,29.6097507 39.1383172,29.5164169 C39.3196515,29.4230831 39.5409826,29.3764169 39.8023172,29.3764169 C40.1063187,29.3764169 40.3596495,29.4390829 40.5623172,29.5644169 C40.7649849,29.6897508 40.9036502,29.8644157 40.9783172,30.0884169 C41.3623191,29.6137478 41.8183146,29.3764169 42.3463172,29.3764169 C42.7249858,29.3764169 43.0289827,29.4817491 43.2583172,29.6924169 C43.4876517,29.9030846 43.6023172,30.2110815 43.6023172,30.6164169 C43.6023172,30.7870844 43.5836507,30.9577493 43.5463172,31.1284169 L43.0503172,33.4244169 C43.0396505,33.4830838 43.0129841,33.52975 42.9703172,33.5644169 C42.9276503,33.5990837 42.8796508,33.6164169 42.8263172,33.6164169 L42.1623172,33.6164169 C42.1036503,33.6164169 42.0596507,33.5977504 42.0303172,33.5604169 C42.0009837,33.5230833 41.9916505,33.4777505 42.0023172,33.4244169 L42.4823172,31.1924169 C42.508984,31.0804163 42.5223172,30.9604175 42.5223172,30.8324169 C42.5223172,30.4377482 42.3356524,30.2404169 41.9623172,30.2404169 C41.7489828,30.2404169 41.5463182,30.3177494 41.3543172,30.4724169 C41.1623163,30.6270843 41.0316509,30.8670819 40.9623172,31.1924169 L40.4823172,33.4244169 C40.4716505,33.4830838 40.4449841,33.52975 40.4023172,33.5644169 C40.3596503,33.5990837 40.3116508,33.6164169 40.2583172,33.6164169 L39.5863172,33.6164169 C39.5329836,33.6164169 39.4916507,33.5977504 39.4623172,33.5604169 C39.4329837,33.5230833 39.4236505,33.4777505 39.4343172,33.4244169 L39.9063172,31.1924169 C39.932984,31.0804163 39.9463172,30.9604175 39.9463172,30.8324169 C39.9463172,30.6297492 39.8956511,30.4804173 39.7943172,30.3844169 C39.6929834,30.2884164 39.5569847,30.2404169 39.3863172,30.2404169 C39.1729828,30.2404169 38.9703182,30.3177494 38.7783172,30.4724169 C38.5863163,30.6270843 38.4556509,30.8670819 38.3863172,31.1924169 L37.9143172,33.4244169 C37.9036505,33.4830838 37.8756508,33.52975 37.8303172,33.5644169 C37.7849837,33.5990837 37.7356508,33.6164169 37.6823172,33.6164169 L37.0023172,33.6164169 Z M45.9303172,33.6964169 C45.4183147,33.6964169 45.0236519,33.5684181 44.7463172,33.3124169 C44.4689825,33.0564156 44.3303172,32.6910859 44.3303172,32.2164169 C44.3303172,32.0350826 44.3436504,31.8724176 44.3703172,31.7284169 C44.3756506,31.6910833 44.4049836,31.5577513 44.4583172,31.3284169 C44.6129847,30.7204138 44.9023151,30.2430853 45.3263172,29.8964169 C45.7503193,29.5497485 46.2556476,29.3764169 46.8423172,29.3764169 C47.3703199,29.3764169 47.7689825,29.5110822 48.0383172,29.7804169 C48.3076519,30.0497515 48.4423172,30.4190812 48.4423172,30.8884169 C48.4423172,31.0644177 48.4209841,31.2644157 48.3783172,31.4884169 L48.3383172,31.6564169 C48.3276505,31.7097505 48.2996508,31.7550833 48.2543172,31.7924169 C48.2089837,31.8297504 48.1569842,31.8484169 48.0983172,31.8484169 L45.4503172,31.8484169 L45.4343172,31.9124169 C45.4183171,32.0084173 45.4103172,32.0990831 45.4103172,32.1844169 C45.4103172,32.408418 45.46765,32.5910828 45.5823172,32.7324169 C45.6969845,32.8737509 45.8636495,32.9444169 46.0823172,32.9444169 C46.3863187,32.9444169 46.6609827,32.8217514 46.9063172,32.5764169 C46.9649842,32.5177499 47.0103171,32.4817503 47.0423172,32.4684169 C47.0743174,32.4550835 47.1223169,32.4484169 47.1863172,32.4484169 L47.8903172,32.4484169 C47.9383175,32.4484169 47.9756504,32.4644167 48.0023172,32.4964169 C48.028984,32.528417 48.0369839,32.5684166 48.0263172,32.6164169 C47.9889837,32.7444175 47.8756515,32.8937493 47.6863172,33.0644169 C47.4969829,33.2350844 47.2489854,33.3830829 46.9423172,33.5084169 C46.635649,33.6337508 46.2983191,33.6964169 45.9303172,33.6964169 Z M47.3463172,31.1684169 L47.3463172,31.1524169 C47.3676507,31.051083 47.3783172,30.9470841 47.3783172,30.8404169 C47.3783172,30.6164157 47.3196511,30.4390842 47.2023172,30.3084169 C47.0849833,30.1777495 46.9143183,30.1124169 46.6903172,30.1124169 C46.4183159,30.1124169 46.1836515,30.2070826 45.9863172,30.3964169 C45.7889829,30.5857511 45.6583175,30.8377486 45.5943172,31.1524169 L45.5943172,31.1684169 L47.3463172,31.1684169 Z M48.8423172,33.6164169 C48.7836503,33.6164169 48.7396507,33.5977504 48.7103172,33.5604169 C48.6809837,33.5230833 48.6716505,33.4777505 48.6823172,33.4244169 L49.4903172,29.6484169 C49.5009839,29.5897499 49.5289837,29.5430837 49.5743172,29.5084169 C49.6196508,29.47375 49.6689836,29.4564169 49.7223172,29.4564169 L50.3863172,29.4564169 C50.4449842,29.4564169 50.4876504,29.4750833 50.5143172,29.5124169 C50.540984,29.5497504 50.5489839,29.5950833 50.5383172,29.6484169 L50.4663172,29.9764169 C50.6423181,29.7950826 50.8476494,29.6497507 51.0823172,29.5404169 C51.3169851,29.431083 51.5756491,29.3764169 51.8583172,29.3764169 C52.2956527,29.3764169 52.6303161,29.4857491 52.8623172,29.7044169 C53.0943184,29.9230846 53.2103172,30.2297482 53.2103172,30.6244169 C53.2103172,30.7790843 53.1889841,30.9630825 53.1463172,31.1764169 L52.6663172,33.4244169 C52.6556505,33.4830838 52.6276508,33.52975 52.5823172,33.5644169 C52.5369837,33.5990837 52.4876508,33.6164169 52.4343172,33.6164169 L51.7223172,33.6164169 C51.6636503,33.6164169 51.6196507,33.5977504 51.5903172,33.5604169 C51.5609837,33.5230833 51.5516505,33.4777505 51.5623172,33.4244169 L52.0263172,31.2244169 C52.0636507,31.0377493 52.0823172,30.899084 52.0823172,30.8084169 C52.0823172,30.6164159 52.0303177,30.4737507 51.9263172,30.3804169 C51.8223167,30.2870831 51.6556517,30.2404169 51.4263172,30.2404169 C51.1276491,30.2404169 50.8743183,30.3270827 50.6663172,30.5004169 C50.4583162,30.6737511 50.3196509,30.915082 50.2503172,31.2244169 L49.7863172,33.4244169 C49.7756505,33.4830838 49.7476508,33.52975 49.7023172,33.5644169 C49.6569837,33.5990837 49.6076508,33.6164169 49.5543172,33.6164169 L48.8423172,33.6164169 Z M55.5303172,33.6164169 C55.0876483,33.6164169 54.7609849,33.5324177 54.5503172,33.3644169 C54.3396495,33.196416 54.2343172,32.9444185 54.2343172,32.6084169 C54.2343172,32.4484161 54.2529837,32.285751 54.2903172,32.1204169 L54.6823172,30.3124169 L54.0503172,30.3124169 C53.9916503,30.3124169 53.948984,30.2937504 53.9223172,30.2564169 C53.8956504,30.2190833 53.8876505,30.1737505 53.8983172,30.1204169 L53.9943172,29.6484169 C54.0049839,29.5950833 54.0329837,29.5497504 54.0783172,29.5124169 C54.1236508,29.4750833 54.1756503,29.4564169 54.2343172,29.4564169 L54.8583172,29.4564169 L55.1463172,28.1284169 C55.1569839,28.0697499 55.1836503,28.0230837 55.2263172,27.9884169 C55.2689841,27.95375 55.3169836,27.9364169 55.3703172,27.9364169 L56.0343172,27.9364169 C56.0929842,27.9364169 56.1369837,27.9550833 56.1663172,27.9924169 C56.1956507,28.0297504 56.2049839,28.0750833 56.1943172,28.1284169 L55.9063172,29.4564169 L56.9063172,29.4564169 C56.9649842,29.4564169 57.0076504,29.4750833 57.0343172,29.5124169 C57.060984,29.5497504 57.0689839,29.5950833 57.0583172,29.6484169 L56.9543172,30.1204169 C56.9489839,30.1737505 56.9236508,30.2190833 56.8783172,30.2564169 C56.8329837,30.2937504 56.7809842,30.3124169 56.7223172,30.3124169 L55.7303172,30.3124169 L55.3543172,32.0324169 C55.3223171,32.1764176 55.3063172,32.299083 55.3063172,32.4004169 C55.3063172,32.5124174 55.3356503,32.5950833 55.3943172,32.6484169 C55.4529842,32.7017505 55.5543165,32.7284169 55.6983172,32.7284169 L56.2823172,32.7284169 C56.3409842,32.7284169 56.3836504,32.7470833 56.4103172,32.7844169 C56.436984,32.8217504 56.4449839,32.8670833 56.4343172,32.9204169 L56.3303172,33.4244169 C56.3196505,33.4830838 56.2916508,33.52975 56.2463172,33.5644169 C56.2009837,33.5990837 56.1516508,33.6164169 56.0983172,33.6164169 L55.5303172,33.6164169 Z M58.4023172,33.6164169 C58.3596503,33.6164169 58.324984,33.6030837 58.2983172,33.5764169 C58.2716504,33.5497501 58.2583172,33.5150837 58.2583172,33.4724169 C58.2583172,33.4404167 58.2663171,33.408417 58.2823172,33.3764169 L61.2983172,28.2164169 C61.3783176,28.0830829 61.4876499,28.0164169 61.6263172,28.0164169 L62.5623172,28.0164169 C62.7009846,28.0164169 62.7809838,28.0830829 62.8023172,28.2164169 L63.6343172,33.3764169 C63.6449839,33.4510839 63.6329841,33.50975 63.5983172,33.5524169 C63.5636504,33.5950837 63.5169842,33.6164169 63.4583172,33.6164169 L62.7623172,33.6164169 C62.6343166,33.6164169 62.5623173,33.5550841 62.5463172,33.4324169 L62.3703172,32.4964169 L60.0023172,32.4964169 L59.4183172,33.4644169 C59.3596503,33.5657507 59.2743178,33.6164169 59.1623172,33.6164169 L58.4023172,33.6164169 Z M60.4823172,31.5684169 L62.2903172,31.5684169 L61.9063172,29.1044169 L60.4823172,31.5684169 Z M65.7623172,33.6964169 C65.3303151,33.6964169 64.9983184,33.5870846 64.7663172,33.3684169 C64.5343161,33.1497491 64.4183172,32.8404189 64.4183172,32.4404169 C64.4183172,32.2804161 64.4396503,32.0990845 64.4823172,31.8964169 L64.9543172,29.6484169 C64.9649839,29.5950833 64.9929837,29.5497504 65.0383172,29.5124169 C65.0836508,29.4750833 65.1356503,29.4564169 65.1943172,29.4564169 L65.9063172,29.4564169 C65.9649842,29.4564169 66.0076504,29.4750833 66.0343172,29.5124169 C66.060984,29.5497504 66.0689839,29.5950833 66.0583172,29.6484169 L65.5943172,31.8484169 C65.5569837,32.0350845 65.5383172,32.1764164 65.5383172,32.2724169 C65.5383172,32.4590845 65.5889834,32.5990831 65.6903172,32.6924169 C65.7916511,32.7857507 65.9569827,32.8324169 66.1863172,32.8324169 C66.4743187,32.8324169 66.7236495,32.7444177 66.9343172,32.5684169 C67.1449849,32.392416 67.2849835,32.1524184 67.3543172,31.8484169 L67.8183172,29.6484169 C67.8289839,29.5950833 67.8569837,29.5497504 67.9023172,29.5124169 C67.9476508,29.4750833 67.9969836,29.4564169 68.0503172,29.4564169 L68.7703172,29.4564169 C68.8236508,29.4564169 68.8636504,29.4750833 68.8903172,29.5124169 C68.916984,29.5497504 68.9249839,29.5950833 68.9143172,29.6484169 L68.1143172,33.4244169 C68.1036505,33.4777505 68.0769841,33.5230833 68.0343172,33.5604169 C67.9916503,33.5977504 67.9436508,33.6164169 67.8903172,33.6164169 L67.2263172,33.6164169 C67.1676503,33.6164169 67.1236507,33.5977504 67.0943172,33.5604169 C67.0649837,33.5230833 67.0556505,33.4777505 67.0663172,33.4244169 L67.1383172,33.0964169 C66.9409829,33.3097513 66.7436515,33.4630831 66.5463172,33.5564169 C66.3489829,33.6497507 66.0876522,33.6964169 65.7623172,33.6964169 Z M71.0743172,33.6164169 C70.6316483,33.6164169 70.3049849,33.5324177 70.0943172,33.3644169 C69.8836495,33.196416 69.7783172,32.9444185 69.7783172,32.6084169 C69.7783172,32.4484161 69.7969837,32.285751 69.8343172,32.1204169 L70.2263172,30.3124169 L69.5943172,30.3124169 C69.5356503,30.3124169 69.492984,30.2937504 69.4663172,30.2564169 C69.4396504,30.2190833 69.4316505,30.1737505 69.4423172,30.1204169 L69.5383172,29.6484169 C69.5489839,29.5950833 69.5769837,29.5497504 69.6223172,29.5124169 C69.6676508,29.4750833 69.7196503,29.4564169 69.7783172,29.4564169 L70.4023172,29.4564169 L70.6903172,28.1284169 C70.7009839,28.0697499 70.7276503,28.0230837 70.7703172,27.9884169 C70.8129841,27.95375 70.8609836,27.9364169 70.9143172,27.9364169 L71.5783172,27.9364169 C71.6369842,27.9364169 71.6809837,27.9550833 71.7103172,27.9924169 C71.7396507,28.0297504 71.7489839,28.0750833 71.7383172,28.1284169 L71.4503172,29.4564169 L72.4503172,29.4564169 C72.5089842,29.4564169 72.5516504,29.4750833 72.5783172,29.5124169 C72.604984,29.5497504 72.6129839,29.5950833 72.6023172,29.6484169 L72.4983172,30.1204169 C72.4929839,30.1737505 72.4676508,30.2190833 72.4223172,30.2564169 C72.3769837,30.2937504 72.3249842,30.3124169 72.2663172,30.3124169 L71.2743172,30.3124169 L70.8983172,32.0324169 C70.8663171,32.1764176 70.8503172,32.299083 70.8503172,32.4004169 C70.8503172,32.5124174 70.8796503,32.5950833 70.9383172,32.6484169 C70.9969842,32.7017505 71.0983165,32.7284169 71.2423172,32.7284169 L71.8263172,32.7284169 C71.8849842,32.7284169 71.9276504,32.7470833 71.9543172,32.7844169 C71.980984,32.8217504 71.9889839,32.8670833 71.9783172,32.9204169 L71.8743172,33.4244169 C71.8636505,33.4830838 71.8356508,33.52975 71.7903172,33.5644169 C71.7449837,33.5990837 71.6956508,33.6164169 71.6423172,33.6164169 L71.0743172,33.6164169 Z M74.4103172,33.6964169 C73.8716479,33.6964169 73.4516521,33.5670848 73.1503172,33.3084169 C72.8489824,33.0497489 72.6983172,32.6964191 72.6983172,32.2484169 C72.6983172,32.1204162 72.7089838,32.0004174 72.7303172,31.8884169 C72.7783175,31.6057488 72.8289836,31.3710845 72.8823172,31.1844169 C73.0263179,30.6137473 73.2929819,30.1697518 73.6823172,29.8524169 C74.0716525,29.5350819 74.5783141,29.3764169 75.2023172,29.3764169 C75.7409866,29.3764169 76.1623157,29.5070822 76.4663172,29.7684169 C76.7703187,30.0297515 76.9223172,30.3870813 76.9223172,30.8404169 C76.9223172,30.9097505 76.9116507,31.0244161 76.8903172,31.1844169 C76.8103168,31.5684188 76.7596507,31.8030831 76.7383172,31.8884169 C76.5889831,32.4590864 76.3223191,32.9030819 75.9383172,33.2204169 C75.5543153,33.5377518 75.0449871,33.6964169 74.4103172,33.6964169 Z M74.4903172,32.8884169 C74.7729853,32.8884169 75.0143162,32.8004177 75.2143172,32.6244169 C75.4143182,32.448416 75.5569835,32.1897519 75.6423172,31.8484169 C75.6796507,31.6990828 75.7249836,31.4910849 75.7783172,31.2244169 C75.7996507,31.1124163 75.8103172,30.9977508 75.8103172,30.8804169 C75.8103172,30.4110812 75.5809862,30.1764169 75.1223172,30.1764169 C74.8396491,30.1764169 74.5996515,30.2670826 74.4023172,30.4484169 C74.2049829,30.6297511 74.063651,30.8884152 73.9783172,31.2244169 C73.9196503,31.4110845 73.8743174,31.6190824 73.8423172,31.8484169 C73.8209838,31.9604174 73.8103172,32.0777496 73.8103172,32.2004169 C73.8103172,32.6590858 74.0369816,32.8884169 74.4903172,32.8884169 Z M77.4583172,33.6164169 C77.3996503,33.6164169 77.3556507,33.5977504 77.3263172,33.5604169 C77.2969837,33.5230833 77.2876505,33.4777505 77.2983172,33.4244169 L78.1063172,29.6484169 C78.1169839,29.5897499 78.1449837,29.5430837 78.1903172,29.5084169 C78.2356508,29.47375 78.2849836,29.4564169 78.3383172,29.4564169 L78.9703172,29.4564169 C79.0236508,29.4564169 79.0636504,29.47375 79.0903172,29.5084169 C79.116984,29.5430837 79.1249839,29.5897499 79.1143172,29.6484169 L79.0583172,29.9204169 C79.2343181,29.744416 79.412983,29.6097507 79.5943172,29.5164169 C79.7756515,29.4230831 79.9969826,29.3764169 80.2583172,29.3764169 C80.5623187,29.3764169 80.8156495,29.4390829 81.0183172,29.5644169 C81.2209849,29.6897508 81.3596502,29.8644157 81.4343172,30.0884169 C81.8183191,29.6137478 82.2743146,29.3764169 82.8023172,29.3764169 C83.1809858,29.3764169 83.4849827,29.4817491 83.7143172,29.6924169 C83.9436517,29.9030846 84.0583172,30.2110815 84.0583172,30.6164169 C84.0583172,30.7870844 84.0396507,30.9577493 84.0023172,31.1284169 L83.5063172,33.4244169 C83.4956505,33.4830838 83.4689841,33.52975 83.4263172,33.5644169 C83.3836503,33.5990837 83.3356508,33.6164169 83.2823172,33.6164169 L82.6183172,33.6164169 C82.5596503,33.6164169 82.5156507,33.5977504 82.4863172,33.5604169 C82.4569837,33.5230833 82.4476505,33.4777505 82.4583172,33.4244169 L82.9383172,31.1924169 C82.964984,31.0804163 82.9783172,30.9604175 82.9783172,30.8324169 C82.9783172,30.4377482 82.7916524,30.2404169 82.4183172,30.2404169 C82.2049828,30.2404169 82.0023182,30.3177494 81.8103172,30.4724169 C81.6183163,30.6270843 81.4876509,30.8670819 81.4183172,31.1924169 L80.9383172,33.4244169 C80.9276505,33.4830838 80.9009841,33.52975 80.8583172,33.5644169 C80.8156503,33.5990837 80.7676508,33.6164169 80.7143172,33.6164169 L80.0423172,33.6164169 C79.9889836,33.6164169 79.9476507,33.5977504 79.9183172,33.5604169 C79.8889837,33.5230833 79.8796505,33.4777505 79.8903172,33.4244169 L80.3623172,31.1924169 C80.388984,31.0804163 80.4023172,30.9604175 80.4023172,30.8324169 C80.4023172,30.6297492 80.3516511,30.4804173 80.2503172,30.3844169 C80.1489834,30.2884164 80.0129847,30.2404169 79.8423172,30.2404169 C79.6289828,30.2404169 79.4263182,30.3177494 79.2343172,30.4724169 C79.0423163,30.6270843 78.9116509,30.8670819 78.8423172,31.1924169 L78.3703172,33.4244169 C78.3596505,33.4830838 78.3316508,33.52975 78.2863172,33.5644169 C78.2409837,33.5990837 78.1916508,33.6164169 78.1383172,33.6164169 L77.4583172,33.6164169 Z M86.0583172,33.6964169 C85.5996483,33.6964169 85.2529851,33.5684181 85.0183172,33.3124169 C84.7836494,33.0564156 84.6663172,32.7070857 84.6663172,32.2644169 C84.6663172,32.1310829 84.6796504,31.9764177 84.7063172,31.8004169 C84.7276507,31.6510828 84.7649836,31.4750845 84.8183172,31.2724169 C84.9676513,30.696414 85.2129822,30.2364186 85.5543172,29.8924169 C85.8956523,29.5484151 86.3409811,29.3764169 86.8903172,29.3764169 C87.1996521,29.3764169 87.4423163,29.4230831 87.6183172,29.5164169 C87.7943181,29.6097507 87.93565,29.7417493 88.0423172,29.9124169 L88.0983172,29.6484169 C88.1089839,29.5897499 88.1369837,29.5430837 88.1823172,29.5084169 C88.2276508,29.47375 88.2769836,29.4564169 88.3303172,29.4564169 L88.9703172,29.4564169 C89.0289842,29.4564169 89.0729837,29.4750833 89.1023172,29.5124169 C89.1316507,29.5497504 89.1409839,29.5950833 89.1303172,29.6484169 L88.3303172,33.4244169 C88.3196505,33.4830838 88.2916508,33.52975 88.2463172,33.5644169 C88.2009837,33.5990837 88.1516508,33.6164169 88.0983172,33.6164169 L87.4583172,33.6164169 C87.3996503,33.6164169 87.3556507,33.5977504 87.3263172,33.5604169 C87.2969837,33.5230833 87.2876505,33.4777505 87.2983172,33.4244169 L87.3623172,33.1284169 C87.1756496,33.3150845 86.9849849,33.4564164 86.7903172,33.5524169 C86.5956496,33.6484173 86.351652,33.6964169 86.0583172,33.6964169 Z M86.4263172,32.8324169 C86.7303187,32.8324169 86.9836495,32.7337512 87.1863172,32.5364169 C87.3889849,32.3390825 87.5249835,32.0990849 87.5943172,31.8164169 C87.6476508,31.5977491 87.6903171,31.3924178 87.7223172,31.2004169 C87.7383173,31.1097497 87.7463172,31.0244173 87.7463172,30.9444169 C87.7463172,30.7364158 87.6903178,30.5670842 87.5783172,30.4364169 C87.4663167,30.3057495 87.2876518,30.2404169 87.0423172,30.2404169 C86.5036479,30.2404169 86.1303183,30.5924133 85.9223172,31.2964169 C85.8796503,31.4404176 85.844984,31.600416 85.8183172,31.7764169 C85.7969838,31.9364177 85.7863172,32.0537498 85.7863172,32.1284169 C85.7863172,32.352418 85.8343167,32.5257496 85.9303172,32.6484169 C86.0263177,32.7710841 86.1916494,32.8324169 86.4263172,32.8324169 Z M91.2903172,33.6164169 C90.8476483,33.6164169 90.5209849,33.5324177 90.3103172,33.3644169 C90.0996495,33.196416 89.9943172,32.9444185 89.9943172,32.6084169 C89.9943172,32.4484161 90.0129837,32.285751 90.0503172,32.1204169 L90.4423172,30.3124169 L89.8103172,30.3124169 C89.7516503,30.3124169 89.708984,30.2937504 89.6823172,30.2564169 C89.6556504,30.2190833 89.6476505,30.1737505 89.6583172,30.1204169 L89.7543172,29.6484169 C89.7649839,29.5950833 89.7929837,29.5497504 89.8383172,29.5124169 C89.8836508,29.4750833 89.9356503,29.4564169 89.9943172,29.4564169 L90.6183172,29.4564169 L90.9063172,28.1284169 C90.9169839,28.0697499 90.9436503,28.0230837 90.9863172,27.9884169 C91.0289841,27.95375 91.0769836,27.9364169 91.1303172,27.9364169 L91.7943172,27.9364169 C91.8529842,27.9364169 91.8969837,27.9550833 91.9263172,27.9924169 C91.9556507,28.0297504 91.9649839,28.0750833 91.9543172,28.1284169 L91.6663172,29.4564169 L92.6663172,29.4564169 C92.7249842,29.4564169 92.7676504,29.4750833 92.7943172,29.5124169 C92.820984,29.5497504 92.8289839,29.5950833 92.8183172,29.6484169 L92.7143172,30.1204169 C92.7089839,30.1737505 92.6836508,30.2190833 92.6383172,30.2564169 C92.5929837,30.2937504 92.5409842,30.3124169 92.4823172,30.3124169 L91.4903172,30.3124169 L91.1143172,32.0324169 C91.0823171,32.1764176 91.0663172,32.299083 91.0663172,32.4004169 C91.0663172,32.5124174 91.0956503,32.5950833 91.1543172,32.6484169 C91.2129842,32.7017505 91.3143165,32.7284169 91.4583172,32.7284169 L92.0423172,32.7284169 C92.1009842,32.7284169 92.1436504,32.7470833 92.1703172,32.7844169 C92.196984,32.8217504 92.2049839,32.8670833 92.1943172,32.9204169 L92.0903172,33.4244169 C92.0796505,33.4830838 92.0516508,33.52975 92.0063172,33.5644169 C91.9609837,33.5990837 91.9116508,33.6164169 91.8583172,33.6164169 L91.2903172,33.6164169 Z M93.9383172,28.7764169 C93.8849836,28.7764169 93.8436507,28.7577504 93.8143172,28.7204169 C93.7849837,28.6830833 93.7756505,28.6377505 93.7863172,28.5844169 L93.9143172,28.0004169 C93.9196506,27.9470833 93.9449837,27.9004171 93.9903172,27.8604169 C94.0356508,27.8204167 94.0876503,27.8004169 94.1463172,27.8004169 L94.8823172,27.8004169 C94.9356508,27.8004169 94.9783171,27.8190833 95.0103172,27.8564169 C95.0423174,27.8937504 95.0529839,27.9417499 95.0423172,28.0004169 L94.9143172,28.5844169 C94.9036505,28.6377505 94.8756508,28.6830833 94.8303172,28.7204169 C94.7849837,28.7577504 94.7356508,28.7764169 94.6823172,28.7764169 L93.9383172,28.7764169 Z M92.9463172,33.6164169 C92.8876503,33.6164169 92.8436507,33.5977504 92.8143172,33.5604169 C92.7849837,33.5230833 92.7756505,33.4777505 92.7863172,33.4244169 L93.5943172,29.6484169 C93.6049839,29.5897499 93.6329837,29.5430837 93.6783172,29.5084169 C93.7236508,29.47375 93.7729836,29.4564169 93.8263172,29.4564169 L94.5063172,29.4564169 C94.5596508,29.4564169 94.5996504,29.4750833 94.6263172,29.5124169 C94.652984,29.5497504 94.6609839,29.5950833 94.6503172,29.6484169 L93.8503172,33.4244169 C93.8396505,33.4777505 93.8129841,33.5230833 93.7703172,33.5604169 C93.7276503,33.5977504 93.6796508,33.6164169 93.6263172,33.6164169 L92.9463172,33.6164169 Z M96.7463172,33.6964169 C96.2076479,33.6964169 95.7876521,33.5670848 95.4863172,33.3084169 C95.1849824,33.0497489 95.0343172,32.6964191 95.0343172,32.2484169 C95.0343172,32.1204162 95.0449838,32.0004174 95.0663172,31.8884169 C95.1143175,31.6057488 95.1649836,31.3710845 95.2183172,31.1844169 C95.3623179,30.6137473 95.6289819,30.1697518 96.0183172,29.8524169 C96.4076525,29.5350819 96.9143141,29.3764169 97.5383172,29.3764169 C98.0769866,29.3764169 98.4983157,29.5070822 98.8023172,29.7684169 C99.1063187,30.0297515 99.2583172,30.3870813 99.2583172,30.8404169 C99.2583172,30.9097505 99.2476507,31.0244161 99.2263172,31.1844169 C99.1463168,31.5684188 99.0956507,31.8030831 99.0743172,31.8884169 C98.9249831,32.4590864 98.6583191,32.9030819 98.2743172,33.2204169 C97.8903153,33.5377518 97.3809871,33.6964169 96.7463172,33.6964169 Z M96.8263172,32.8884169 C97.1089853,32.8884169 97.3503162,32.8004177 97.5503172,32.6244169 C97.7503182,32.448416 97.8929835,32.1897519 97.9783172,31.8484169 C98.0156507,31.6990828 98.0609836,31.4910849 98.1143172,31.2244169 C98.1356507,31.1124163 98.1463172,30.9977508 98.1463172,30.8804169 C98.1463172,30.4110812 97.9169862,30.1764169 97.4583172,30.1764169 C97.1756491,30.1764169 96.9356515,30.2670826 96.7383172,30.4484169 C96.5409829,30.6297511 96.399651,30.8884152 96.3143172,31.2244169 C96.2556503,31.4110845 96.2103174,31.6190824 96.1783172,31.8484169 C96.1569838,31.9604174 96.1463172,32.0777496 96.1463172,32.2004169 C96.1463172,32.6590858 96.3729816,32.8884169 96.8263172,32.8884169 Z M99.7943172,33.6164169 C99.7356503,33.6164169 99.6916507,33.5977504 99.6623172,33.5604169 C99.6329837,33.5230833 99.6236505,33.4777505 99.6343172,33.4244169 L100.442317,29.6484169 C100.452984,29.5897499 100.480984,29.5430837 100.526317,29.5084169 C100.571651,29.47375 100.620984,29.4564169 100.674317,29.4564169 L101.338317,29.4564169 C101.396984,29.4564169 101.43965,29.4750833 101.466317,29.5124169 C101.492984,29.5497504 101.500984,29.5950833 101.490317,29.6484169 L101.418317,29.9764169 C101.594318,29.7950826 101.799649,29.6497507 102.034317,29.5404169 C102.268985,29.431083 102.527649,29.3764169 102.810317,29.3764169 C103.247653,29.3764169 103.582316,29.4857491 103.814317,29.7044169 C104.046318,29.9230846 104.162317,30.2297482 104.162317,30.6244169 C104.162317,30.7790843 104.140984,30.9630825 104.098317,31.1764169 L103.618317,33.4244169 C103.60765,33.4830838 103.579651,33.52975 103.534317,33.5644169 C103.488984,33.5990837 103.439651,33.6164169 103.386317,33.6164169 L102.674317,33.6164169 C102.61565,33.6164169 102.571651,33.5977504 102.542317,33.5604169 C102.512984,33.5230833 102.50365,33.4777505 102.514317,33.4244169 L102.978317,31.2244169 C103.015651,31.0377493 103.034317,30.899084 103.034317,30.8084169 C103.034317,30.6164159 102.982318,30.4737507 102.878317,30.3804169 C102.774317,30.2870831 102.607652,30.2404169 102.378317,30.2404169 C102.079649,30.2404169 101.826318,30.3270827 101.618317,30.5004169 C101.410316,30.6737511 101.271651,30.915082 101.202317,31.2244169 L100.738317,33.4244169 C100.72765,33.4830838 100.699651,33.52975 100.654317,33.5644169 C100.608984,33.5990837 100.559651,33.6164169 100.506317,33.6164169 L99.7943172,33.6164169 Z M108.570317,33.6964169 C108.127648,33.6964169 107.750319,33.6350841 107.438317,33.5124169 C107.126316,33.3897496 106.891651,33.2244179 106.734317,33.0164169 C106.576983,32.8084158 106.498317,32.5790848 106.498317,32.3284169 C106.498317,32.2910833 106.50365,32.2297506 106.514317,32.1444169 C106.519651,32.10175 106.53965,32.0630837 106.574317,32.0284169 C106.608984,31.99375 106.650317,31.9764169 106.698317,31.9764169 L107.442317,31.9764169 C107.500984,31.9764169 107.546317,31.9897501 107.578317,32.0164169 C107.610317,32.0430837 107.636984,32.0804166 107.658317,32.1284169 C107.679651,32.3044177 107.77165,32.4550829 107.934317,32.5804169 C108.096985,32.7057508 108.332982,32.7684169 108.642317,32.7684169 C109.015652,32.7684169 109.315649,32.7057508 109.542317,32.5804169 C109.768985,32.4550829 109.90365,32.2830846 109.946317,32.0644169 C109.956984,32.0110833 109.962317,31.9710837 109.962317,31.9444169 C109.962317,31.8270829 109.918318,31.7284173 109.830317,31.6484169 C109.742317,31.5684165 109.611651,31.4964172 109.438317,31.4324169 C109.264983,31.3684165 109.012986,31.2884173 108.682317,31.1924169 C108.180981,31.0697496 107.807652,30.9004179 107.562317,30.6844169 C107.316983,30.4684158 107.194317,30.1870853 107.194317,29.8404169 C107.194317,29.6964161 107.20765,29.5684174 107.234317,29.4564169 C107.335651,28.9870812 107.587649,28.6164182 107.990317,28.3444169 C108.392986,28.0724155 108.914314,27.9364169 109.554317,27.9364169 C109.948986,27.9364169 110.292982,28.0044162 110.586317,28.1404169 C110.879652,28.2764175 111.10365,28.4497491 111.258317,28.6604169 C111.412985,28.8710846 111.490317,29.0830825 111.490317,29.2964169 C111.490317,29.328417 111.484984,29.3764165 111.474317,29.4404169 C111.46365,29.4884171 111.442317,29.5284167 111.410317,29.5604169 C111.378317,29.592417 111.338317,29.6084169 111.290317,29.6084169 L110.514317,29.6084169 C110.402317,29.6084169 110.332984,29.5604173 110.306317,29.4644169 C110.311651,29.2990827 110.236985,29.1577508 110.082317,29.0404169 C109.92765,28.9230829 109.727652,28.8644169 109.482317,28.8644169 C109.183649,28.8644169 108.935652,28.9204163 108.738317,29.0324169 C108.540983,29.1444174 108.418317,29.3070825 108.370317,29.5204169 C108.35965,29.5844172 108.354317,29.6324167 108.354317,29.6644169 C108.354317,29.8244177 108.43965,29.955083 108.610317,30.0564169 C108.780985,30.1577507 109.079648,30.2644163 109.506317,30.3764169 C110.071653,30.5097509 110.484983,30.6817491 110.746317,30.8924169 C111.007652,31.1030846 111.138317,31.3844151 111.138317,31.7364169 C111.138317,31.8324173 111.124984,31.9550828 111.098317,32.1044169 C110.986317,32.6270861 110.714319,33.0230822 110.282317,33.2924169 C109.850315,33.5617515 109.279654,33.6964169 108.570317,33.6964169 Z M111.978317,35.1364169 C111.940984,35.1364169 111.910317,35.124417 111.886317,35.1004169 C111.862317,35.0764167 111.850317,35.0457504 111.850317,35.0084169 C111.850317,34.9550833 111.86365,34.912417 111.890317,34.8804169 L112.866317,33.3444169 L112.082317,29.6804169 C112.07165,29.6217499 112.08365,29.5697504 112.118317,29.5244169 C112.152984,29.4790833 112.210317,29.4564169 112.290317,29.4564169 L112.898317,29.4564169 C113.004984,29.4564169 113.068984,29.507083 113.090317,29.6084169 L113.618317,32.2164169 L115.274317,29.6084169 C115.332984,29.507083 115.418317,29.4564169 115.530317,29.4564169 L116.226317,29.4564169 C116.268984,29.4564169 116.30365,29.4684167 116.330317,29.4924169 C116.356984,29.516417 116.370317,29.54975 116.370317,29.5924169 C116.370317,29.624417 116.359651,29.6590833 116.338317,29.6964169 L112.922317,34.9844169 C112.86365,35.0857507 112.778318,35.1364169 112.666317,35.1364169 L111.978317,35.1364169 Z M117.762317,33.6964169 C117.383649,33.6964169 117.074318,33.6430841 116.834317,33.5364169 C116.594316,33.4297497 116.420984,33.3017509 116.314317,33.1524169 C116.20765,33.0030828 116.154317,32.8644175 116.154317,32.7364169 C116.154317,32.6617498 116.178317,32.6017504 116.226317,32.5564169 C116.274317,32.5110833 116.324984,32.4884169 116.378317,32.4884169 L117.034317,32.4884169 C117.071651,32.4884169 117.10365,32.50975 117.130317,32.5524169 C117.156984,32.5737503 117.208983,32.6244165 117.286317,32.7044169 C117.363651,32.7844173 117.45565,32.8470833 117.562317,32.8924169 C117.668984,32.9377504 117.794316,32.9604169 117.938317,32.9604169 C118.178318,32.9604169 118.376983,32.9097507 118.534317,32.8084169 C118.691651,32.707083 118.770317,32.5630845 118.770317,32.3764169 C118.770317,32.2590829 118.700985,32.1644172 118.562317,32.0924169 C118.42365,32.0204165 118.156986,31.939084 117.762317,31.8484169 C117.388982,31.7630831 117.112985,31.641751 116.934317,31.4844169 C116.75565,31.3270827 116.666317,31.1257514 116.666317,30.8804169 C116.666317,30.8270833 116.676984,30.7417508 116.698317,30.6244169 C116.746317,30.4110825 116.85565,30.2097511 117.026317,30.0204169 C117.196985,29.8310826 117.420982,29.6764175 117.698317,29.5564169 C117.975652,29.4364163 118.290315,29.3764169 118.642317,29.3764169 C118.999652,29.3764169 119.296983,29.4324163 119.534317,29.5444169 C119.771652,29.6564174 119.940983,29.7910827 120.042317,29.9484169 C120.143651,30.105751 120.183651,30.2457496 120.162317,30.3684169 C120.156984,30.4217505 120.132984,30.4670833 120.090317,30.5044169 C120.04765,30.5417504 120.002317,30.5604169 119.954317,30.5604169 L119.354317,30.5604169 C119.300984,30.5604169 119.260984,30.5390837 119.234317,30.4964169 L119.082317,30.3444169 C119.012984,30.2750832 118.931651,30.2190837 118.838317,30.1764169 C118.744983,30.13375 118.626318,30.1124169 118.482317,30.1124169 C118.263649,30.1124169 118.087651,30.167083 117.954317,30.2764169 C117.820983,30.3857507 117.754317,30.5204161 117.754317,30.6804169 C117.754317,30.7817507 117.822317,30.8684165 117.958317,30.9404169 C118.094318,31.0124172 118.348982,31.0884165 118.722317,31.1684169 C119.522321,31.3284177 119.922317,31.6644143 119.922317,32.1764169 C119.922317,32.2617506 119.914317,32.3444165 119.898317,32.4244169 C119.818317,32.8030854 119.588986,33.109749 119.210317,33.3444169 C118.831649,33.5790847 118.348987,33.6964169 117.762317,33.6964169 Z M122.274317,33.6164169 C121.831648,33.6164169 121.504985,33.5324177 121.294317,33.3644169 C121.083649,33.196416 120.978317,32.9444185 120.978317,32.6084169 C120.978317,32.4484161 120.996984,32.285751 121.034317,32.1204169 L121.426317,30.3124169 L120.794317,30.3124169 C120.73565,30.3124169 120.692984,30.2937504 120.666317,30.2564169 C120.63965,30.2190833 120.63165,30.1737505 120.642317,30.1204169 L120.738317,29.6484169 C120.748984,29.5950833 120.776984,29.5497504 120.822317,29.5124169 C120.867651,29.4750833 120.91965,29.4564169 120.978317,29.4564169 L121.602317,29.4564169 L121.890317,28.1284169 C121.900984,28.0697499 121.92765,28.0230837 121.970317,27.9884169 C122.012984,27.95375 122.060984,27.9364169 122.114317,27.9364169 L122.778317,27.9364169 C122.836984,27.9364169 122.880984,27.9550833 122.910317,27.9924169 C122.939651,28.0297504 122.948984,28.0750833 122.938317,28.1284169 L122.650317,29.4564169 L123.650317,29.4564169 C123.708984,29.4564169 123.75165,29.4750833 123.778317,29.5124169 C123.804984,29.5497504 123.812984,29.5950833 123.802317,29.6484169 L123.698317,30.1204169 C123.692984,30.1737505 123.667651,30.2190833 123.622317,30.2564169 C123.576984,30.2937504 123.524984,30.3124169 123.466317,30.3124169 L122.474317,30.3124169 L122.098317,32.0324169 C122.066317,32.1764176 122.050317,32.299083 122.050317,32.4004169 C122.050317,32.5124174 122.07965,32.5950833 122.138317,32.6484169 C122.196984,32.7017505 122.298316,32.7284169 122.442317,32.7284169 L123.026317,32.7284169 C123.084984,32.7284169 123.12765,32.7470833 123.154317,32.7844169 C123.180984,32.8217504 123.188984,32.8670833 123.178317,32.9204169 L123.074317,33.4244169 C123.06365,33.4830838 123.035651,33.52975 122.990317,33.5644169 C122.944984,33.5990837 122.895651,33.6164169 122.842317,33.6164169 L122.274317,33.6164169 Z M125.626317,33.6964169 C125.114315,33.6964169 124.719652,33.5684181 124.442317,33.3124169 C124.164982,33.0564156 124.026317,32.6910859 124.026317,32.2164169 C124.026317,32.0350826 124.03965,31.8724176 124.066317,31.7284169 C124.071651,31.6910833 124.100984,31.5577513 124.154317,31.3284169 C124.308985,30.7204138 124.598315,30.2430853 125.022317,29.8964169 C125.446319,29.5497485 125.951648,29.3764169 126.538317,29.3764169 C127.06632,29.3764169 127.464983,29.5110822 127.734317,29.7804169 C128.003652,30.0497515 128.138317,30.4190812 128.138317,30.8884169 C128.138317,31.0644177 128.116984,31.2644157 128.074317,31.4884169 L128.034317,31.6564169 C128.02365,31.7097505 127.995651,31.7550833 127.950317,31.7924169 C127.904984,31.8297504 127.852984,31.8484169 127.794317,31.8484169 L125.146317,31.8484169 L125.130317,31.9124169 C125.114317,32.0084173 125.106317,32.0990831 125.106317,32.1844169 C125.106317,32.408418 125.16365,32.5910828 125.278317,32.7324169 C125.392984,32.8737509 125.559649,32.9444169 125.778317,32.9444169 C126.082319,32.9444169 126.356983,32.8217514 126.602317,32.5764169 C126.660984,32.5177499 126.706317,32.4817503 126.738317,32.4684169 C126.770317,32.4550835 126.818317,32.4484169 126.882317,32.4484169 L127.586317,32.4484169 C127.634317,32.4484169 127.67165,32.4644167 127.698317,32.4964169 C127.724984,32.528417 127.732984,32.5684166 127.722317,32.6164169 C127.684984,32.7444175 127.571651,32.8937493 127.382317,33.0644169 C127.192983,33.2350844 126.944985,33.3830829 126.638317,33.5084169 C126.331649,33.6337508 125.994319,33.6964169 125.626317,33.6964169 Z M127.042317,31.1684169 L127.042317,31.1524169 C127.063651,31.051083 127.074317,30.9470841 127.074317,30.8404169 C127.074317,30.6164157 127.015651,30.4390842 126.898317,30.3084169 C126.780983,30.1777495 126.610318,30.1124169 126.386317,30.1124169 C126.114316,30.1124169 125.879652,30.2070826 125.682317,30.3964169 C125.484983,30.5857511 125.354318,30.8377486 125.290317,31.1524169 L125.290317,31.1684169 L127.042317,31.1684169 Z M128.538317,33.6164169 C128.47965,33.6164169 128.435651,33.5977504 128.406317,33.5604169 C128.376984,33.5230833 128.36765,33.4777505 128.378317,33.4244169 L129.186317,29.6484169 C129.196984,29.5897499 129.224984,29.5430837 129.270317,29.5084169 C129.315651,29.47375 129.364984,29.4564169 129.418317,29.4564169 L130.050317,29.4564169 C130.103651,29.4564169 130.14365,29.47375 130.170317,29.5084169 C130.196984,29.5430837 130.204984,29.5897499 130.194317,29.6484169 L130.138317,29.9204169 C130.314318,29.744416 130.492983,29.6097507 130.674317,29.5164169 C130.855651,29.4230831 131.076983,29.3764169 131.338317,29.3764169 C131.642319,29.3764169 131.89565,29.4390829 132.098317,29.5644169 C132.300985,29.6897508 132.43965,29.8644157 132.514317,30.0884169 C132.898319,29.6137478 133.354315,29.3764169 133.882317,29.3764169 C134.260986,29.3764169 134.564983,29.4817491 134.794317,29.6924169 C135.023652,29.9030846 135.138317,30.2110815 135.138317,30.6164169 C135.138317,30.7870844 135.119651,30.9577493 135.082317,31.1284169 L134.586317,33.4244169 C134.57565,33.4830838 134.548984,33.52975 134.506317,33.5644169 C134.46365,33.5990837 134.415651,33.6164169 134.362317,33.6164169 L133.698317,33.6164169 C133.63965,33.6164169 133.595651,33.5977504 133.566317,33.5604169 C133.536984,33.5230833 133.52765,33.4777505 133.538317,33.4244169 L134.018317,31.1924169 C134.044984,31.0804163 134.058317,30.9604175 134.058317,30.8324169 C134.058317,30.4377482 133.871652,30.2404169 133.498317,30.2404169 C133.284983,30.2404169 133.082318,30.3177494 132.890317,30.4724169 C132.698316,30.6270843 132.567651,30.8670819 132.498317,31.1924169 L132.018317,33.4244169 C132.00765,33.4830838 131.980984,33.52975 131.938317,33.5644169 C131.89565,33.5990837 131.847651,33.6164169 131.794317,33.6164169 L131.122317,33.6164169 C131.068984,33.6164169 131.027651,33.5977504 130.998317,33.5604169 C130.968984,33.5230833 130.95965,33.4777505 130.970317,33.4244169 L131.442317,31.1924169 C131.468984,31.0804163 131.482317,30.9604175 131.482317,30.8324169 C131.482317,30.6297492 131.431651,30.4804173 131.330317,30.3844169 C131.228983,30.2884164 131.092985,30.2404169 130.922317,30.2404169 C130.708983,30.2404169 130.506318,30.3177494 130.314317,30.4724169 C130.122316,30.6270843 129.991651,30.8670819 129.922317,31.1924169 L129.450317,33.4244169 C129.43965,33.4830838 129.411651,33.52975 129.366317,33.5644169 C129.320984,33.5990837 129.271651,33.6164169 129.218317,33.6164169 L128.538317,33.6164169 Z" id="Bank-Payment-Automat" fill="#FF554E"></path>
                </g>
                <g id="Group-3" transform="translate(0.217305, 0.000000)">
                    <rect id="Rectangle-2" fill="#EE9838" x="0" y="0" width="12" height="12"></rect>
                    <rect id="Rectangle-2-Copy-3" fill="#F3B93E" x="12" y="0" width="12" height="12"></rect>
                    <rect id="Rectangle-2-Copy-4" fill="#F6D244" x="24" y="0" width="12" height="12"></rect>
                    <rect id="Rectangle-2-Copy-5" fill="#F3B93E" x="24" y="12" width="12" height="12"></rect>
                    <rect id="Rectangle-2-Copy-6" fill="#EE9838" x="24" y="24" width="12" height="12"></rect>
                    <rect id="Rectangle-2-Copy" fill="#E97A32" x="0" y="12" width="12" height="12"></rect>
                    <rect id="Rectangle-2-Copy-2" fill="#E45C13" x="0" y="24" width="12" height="12"></rect>
                    <rect id="Rectangle-2-Copy-7" fill="#EA7B32" x="12" y="24" width="12" height="12"></rect>
                </g>
            </g>
        </g>
    </g>
</svg>