<svg xmlns="http://www.w3.org/2000/svg" width="153" height="30" viewBox="0 0 153 30">
    <defs>
        <linearGradient id="a" x1="100%" x2="-98.618%" y1="54.654%" y2="35.532%">
            <stop offset="0%" stop-color="#FF4E50"/>
            <stop offset="100%" stop-color="#F9D423"/>
        </linearGradient>
    </defs>
    <g fill="none" fill-rule="evenodd">
        <g fill-rule="nonzero">
            <path fill="#FF554E" d="M42.092 22.029h.776l-2.176 4.153h-.612l-1.529-4.153h.782l1.132 3.208 1.627-3.208zm1.103 2.718v.035c0 .288.07.507.21.66.14.15.344.227.612.227.339 0 .642-.103.91-.31l.164.496a1.291 1.291 0 0 1-.49.274c-.203.067-.41.1-.625.1-.299 0-.562-.06-.787-.178a1.238 1.238 0 0 1-.52-.505 1.54 1.54 0 0 1-.18-.758c0-.315.063-.596.19-.843.126-.247.3-.44.525-.578a1.42 1.42 0 0 1 .76-.207c.394 0 .704.114.931.342.228.227.341.547.341.96a2.5 2.5 0 0 1-.017.285h-2.024zM44 23.679c-.416 0-.671.226-.764.677h1.388c.004-.214-.05-.38-.163-.499A.606.606 0 0 0 44 23.68zm3.616-.519c.331 0 .58.09.75.272.17.18.254.444.254.79 0 .074-.002.13-.006.17l-.146 1.79h-.723l.14-1.756a.882.882 0 0 0 .006-.117c0-.186-.046-.328-.137-.425-.092-.098-.227-.146-.406-.146-.225 0-.402.069-.53.207-.13.138-.203.328-.222.569l-.135 1.668h-.729l.339-4.293h.729l-.134 1.709c.105-.14.239-.248.402-.324.163-.076.346-.114.548-.114zm1.634 3.022l.233-2.946h.73l-.234 2.946h-.73zm.291-4.282h.811l-.052.718h-.811l.052-.718zm2.66 4.329c-.299 0-.56-.06-.781-.178a1.251 1.251 0 0 1-.514-.502 1.524 1.524 0 0 1-.18-.755c0-.335.065-.625.195-.87s.315-.433.554-.565c.24-.133.518-.199.837-.199.455 0 .829.125 1.12.374l-.25.513c-.277-.21-.557-.315-.84-.315-.273 0-.485.092-.636.277-.152.185-.228.444-.228.779 0 .276.068.49.204.641.136.152.327.228.572.228.152 0 .294-.025.426-.076.132-.05.266-.128.402-.233l.164.507a1.38 1.38 0 0 1-.47.274c-.185.067-.376.1-.575.1zm1.505-.047l.345-4.293h.729l-.344 4.293h-.73zm2.182-1.435v.035c0 .288.07.507.21.66.14.15.344.227.613.227.338 0 .641-.103.91-.31l.163.496a1.291 1.291 0 0 1-.49.274c-.202.067-.41.1-.624.1-.3 0-.562-.06-.788-.178a1.238 1.238 0 0 1-.519-.505 1.54 1.54 0 0 1-.18-.758c0-.315.062-.596.189-.843.126-.247.301-.44.525-.578a1.42 1.42 0 0 1 .761-.207c.393 0 .703.114.93.342.228.227.342.547.342.96a2.5 2.5 0 0 1-.018.285h-2.024zm.805-1.068c-.416 0-.67.226-.764.677h1.388c.004-.214-.05-.38-.163-.499a.606.606 0 0 0-.46-.178zm3.395 2.503l.32-4.153h.753l-.326 4.153h-.747zm3.47-3.022c.331 0 .581.09.75.272.17.18.254.444.254.79 0 .074-.002.13-.006.17l-.145 1.79h-.724l.14-1.756a.882.882 0 0 0 .006-.117c0-.186-.046-.328-.137-.425-.091-.098-.227-.146-.405-.146-.226 0-.403.069-.531.207-.129.138-.202.328-.222.569l-.134 1.668h-.73l.17-2.112c.015-.16.023-.344.023-.554 0-.124-.002-.218-.006-.28h.683l.012.438c.1-.164.238-.29.41-.38.174-.089.371-.134.593-.134zm3.326-.706c-.311 0-.48.174-.508.52l-.023.262h.788l-.047.548h-.782l-.192 2.398h-.73l.187-2.398h-.56l.047-.548h.56l.023-.303c.031-.346.142-.614.333-.802.19-.189.449-.283.776-.283.178 0 .33.023.455.07l-.041.577a1.2 1.2 0 0 0-.286-.04zm1.85 3.775c-.3 0-.56-.06-.783-.178a1.246 1.246 0 0 1-.513-.505 1.553 1.553 0 0 1-.18-.764c0-.327.062-.613.189-.858.126-.245.304-.433.534-.565.229-.133.495-.199.799-.199.295 0 .554.06.776.181.221.12.391.29.51.508.119.217.178.47.178.758 0 .33-.062.618-.187.863a1.32 1.32 0 0 1-.528.563c-.227.13-.493.196-.796.196zm0-.566c.256 0 .451-.098.585-.295.135-.196.202-.458.202-.784 0-.276-.064-.488-.19-.636-.126-.148-.308-.222-.545-.222-.261 0-.46.098-.595.295-.137.196-.205.456-.205.778 0 .576.25.864.747.864zm3.843-2.497c.117 0 .216.016.298.047l-.059.659a.956.956 0 0 0-.379-.07c-.253 0-.449.071-.589.213-.14.142-.218.333-.233.574l-.129 1.593h-.729l.17-2.112c.015-.264.023-.464.023-.6 0-.106-.002-.183-.006-.234h.682l.012.45a.905.905 0 0 1 .382-.383c.17-.091.355-.137.557-.137zm4.142-.006c.311 0 .546.09.706.269.16.179.239.44.239.781 0 .078-.002.136-.006.175l-.14 1.797h-.73l.14-1.773a1.16 1.16 0 0 0 .007-.135c0-.182-.04-.317-.117-.405-.078-.087-.196-.131-.356-.131a.606.606 0 0 0-.481.204c-.119.136-.188.338-.207.607l-.128 1.633h-.73l.14-1.762c.004-.03.006-.074.006-.128 0-.187-.039-.326-.116-.417-.078-.091-.197-.137-.356-.137a.604.604 0 0 0-.484.204c-.117.136-.185.338-.205.607l-.128 1.633h-.73l.17-2.112c.016-.264.023-.464.023-.6 0-.106-.002-.183-.005-.234h.682l.012.42c.214-.33.527-.496.939-.496.218 0 .4.045.545.134.146.09.25.22.312.391.11-.167.25-.296.423-.388.173-.091.365-.137.575-.137zm4.62.076l-.233 2.946h-.718l.035-.408a1.03 1.03 0 0 1-.394.335c-.161.08-.337.12-.528.12-.248 0-.467-.058-.656-.172a1.154 1.154 0 0 1-.44-.496 1.708 1.708 0 0 1-.158-.756c0-.322.059-.608.175-.857.117-.25.28-.443.49-.58.21-.139.453-.208.73-.208.217 0 .407.045.568.134.162.09.287.216.376.38l.035-.438h.718zm-1.61 2.427a.676.676 0 0 0 .572-.28c.14-.187.21-.44.21-.759 0-.291-.065-.514-.193-.667-.128-.154-.311-.23-.548-.23a.688.688 0 0 0-.584.28c-.14.186-.21.442-.21.77 0 .283.066.502.196.655.13.154.316.23.557.23zm3.185-.56c-.027.346.119.519.437.519.09 0 .191-.014.304-.04l-.047.57c-.128.047-.288.07-.478.07-.307 0-.543-.08-.706-.241-.163-.162-.245-.396-.245-.703 0-.059.002-.103.006-.134l.105-1.36h-.566l.047-.548h.56l.058-.717.747-.245-.076.962h.787l-.046.548h-.782l-.105 1.319zm1.196 1.079l.233-2.946h.73l-.234 2.946h-.73zM84.4 21.9h.811l-.052.718h-.811l.052-.718zm2.66 4.329c-.299 0-.56-.06-.781-.178a1.246 1.246 0 0 1-.514-.505 1.553 1.553 0 0 1-.18-.764c0-.327.063-.613.19-.858.126-.245.303-.433.533-.565.23-.133.496-.199.8-.199.295 0 .553.06.775.181.222.12.392.29.51.508.119.217.178.47.178.758 0 .33-.062.618-.186.863a1.32 1.32 0 0 1-.528.563c-.228.13-.493.196-.797.196zm0-.566c.257 0 .453-.098.587-.295.134-.196.2-.458.2-.784 0-.276-.062-.488-.189-.636-.126-.148-.308-.222-.545-.222-.26 0-.459.098-.595.295-.136.196-.204.456-.204.778 0 .576.249.864.746.864zm3.909-2.503c.33 0 .58.09.75.272.169.18.253.444.253.79 0 .074-.002.13-.006.17l-.146 1.79h-.723l.14-1.756a.882.882 0 0 0 .006-.117c0-.186-.046-.328-.137-.425-.092-.098-.227-.146-.406-.146-.225 0-.402.069-.53.207-.129.138-.203.328-.222.569l-.134 1.668h-.73l.17-2.112c.015-.16.023-.344.023-.554 0-.124-.002-.218-.006-.28h.683l.011.438c.102-.164.239-.29.412-.38.173-.089.37-.134.592-.134zm7.064-1.131h.6l-.326 4.153h-.665l.198-2.55-1.3 2.55h-.496l-.904-2.543-.205 2.543h-.665l.321-4.153h.601L96.36 25.3l1.674-3.272zm4.177 1.207l-.234 2.946h-.717l.035-.408a1.03 1.03 0 0 1-.394.335c-.161.08-.337.12-.528.12-.249 0-.468-.058-.656-.172a1.154 1.154 0 0 1-.44-.496 1.708 1.708 0 0 1-.158-.756c0-.322.058-.608.175-.857.117-.25.28-.443.49-.58.21-.139.453-.208.73-.208.217 0 .406.045.568.134.161.09.287.216.376.38l.035-.438h.718zm-1.61 2.427a.676.676 0 0 0 .571-.28c.14-.187.21-.44.21-.759 0-.291-.064-.514-.192-.667-.129-.154-.311-.23-.549-.23a.688.688 0 0 0-.583.28c-.14.186-.21.442-.21.77 0 .283.065.502.196.655.13.154.315.23.557.23zm4.054-2.503c.33 0 .58.09.75.272.169.18.253.444.253.79 0 .074-.002.13-.006.17l-.146 1.79h-.723l.14-1.756a.882.882 0 0 0 .006-.117c0-.186-.046-.328-.137-.425-.092-.098-.227-.146-.406-.146-.225 0-.402.069-.53.207-.129.138-.203.328-.222.569l-.134 1.668h-.73l.17-2.112c.015-.16.023-.344.023-.554 0-.124-.002-.218-.006-.28h.683l.011.438c.102-.164.239-.29.412-.38.173-.089.37-.134.592-.134zm4.684.076l-.233 2.946h-.718l.035-.408a1.03 1.03 0 0 1-.394.335c-.161.08-.337.12-.528.12-.248 0-.467-.058-.656-.172a1.154 1.154 0 0 1-.44-.496 1.708 1.708 0 0 1-.158-.756c0-.322.059-.608.175-.857.117-.25.28-.443.49-.58.21-.139.453-.208.73-.208.217 0 .407.045.568.134.162.09.287.216.376.38l.035-.438h.718zm-1.61 2.427a.676.676 0 0 0 .572-.28c.14-.187.21-.44.21-.759 0-.291-.065-.514-.193-.667-.128-.154-.311-.23-.548-.23a.688.688 0 0 0-.584.28c-.14.186-.21.442-.21.77 0 .283.066.502.196.655.13.154.316.23.557.23zm5.244-2.427l-.227 2.83c-.04.485-.188.844-.447 1.076-.258.231-.627.347-1.105.347-.467 0-.875-.096-1.225-.286l.163-.56c.18.1.354.174.525.219.171.044.358.067.56.067.494 0 .764-.263.811-.788l.04-.484a.976.976 0 0 1-.39.327 1.26 1.26 0 0 1-.548.116c-.253 0-.476-.056-.668-.169a1.141 1.141 0 0 1-.446-.478 1.56 1.56 0 0 1-.158-.718c0-.303.058-.573.175-.81a1.36 1.36 0 0 1 .496-.56 1.34 1.34 0 0 1 .735-.205c.222 0 .414.044.577.132.164.087.29.212.38.376l.035-.432h.717zm-1.622 2.293a.725.725 0 0 0 .59-.26c.143-.173.215-.41.215-.709 0-.268-.067-.474-.2-.618-.135-.144-.323-.216-.564-.216a.722.722 0 0 0-.589.263c-.144.175-.216.416-.216.723 0 .26.066.462.199.604.132.142.32.213.565.213zm2.841-.782v.035c0 .288.07.507.21.66.14.15.344.227.613.227.338 0 .641-.103.91-.31l.163.496a1.291 1.291 0 0 1-.49.274c-.202.067-.41.1-.624.1-.3 0-.562-.06-.788-.178a1.238 1.238 0 0 1-.519-.505 1.54 1.54 0 0 1-.18-.758c0-.315.063-.596.189-.843s.301-.44.525-.578a1.42 1.42 0 0 1 .761-.207c.393 0 .703.114.93.342.228.227.342.547.342.96a2.5 2.5 0 0 1-.018.285h-2.024zm.805-1.068c-.416 0-.67.226-.764.677h1.388c.004-.214-.05-.38-.163-.499a.606.606 0 0 0-.46-.178zm5.408-.519c.31 0 .546.09.706.269.159.179.239.44.239.781 0 .078-.002.136-.006.175l-.14 1.797h-.73l.14-1.773a1.16 1.16 0 0 0 .007-.135c0-.182-.04-.317-.117-.405-.078-.087-.196-.131-.356-.131a.606.606 0 0 0-.481.204c-.119.136-.188.338-.207.607l-.129 1.633h-.729l.14-1.762c.004-.03.006-.074.006-.128 0-.187-.039-.326-.117-.417-.077-.091-.196-.137-.355-.137a.604.604 0 0 0-.485.204c-.116.136-.184.338-.204.607l-.128 1.633h-.73l.17-2.112c.015-.264.023-.464.023-.6 0-.106-.002-.183-.006-.234h.683l.012.42c.213-.33.527-.496.939-.496.218 0 .4.045.545.134.146.09.25.22.312.391.11-.167.25-.296.423-.388.173-.091.365-.137.575-.137zm2.228 1.587v.035c0 .288.07.507.21.66.14.15.344.227.613.227.338 0 .641-.103.91-.31l.163.496a1.291 1.291 0 0 1-.49.274c-.202.067-.41.1-.624.1-.3 0-.562-.06-.788-.178a1.238 1.238 0 0 1-.519-.505 1.54 1.54 0 0 1-.18-.758c0-.315.062-.596.189-.843.126-.247.301-.44.525-.578a1.42 1.42 0 0 1 .761-.207c.393 0 .703.114.93.342.228.227.342.547.342.96a2.5 2.5 0 0 1-.018.285h-2.024zm.805-1.068c-.416 0-.67.226-.764.677h1.388c.004-.214-.05-.38-.163-.499a.606.606 0 0 0-.46-.178zm3.617-.519c.33 0 .58.09.75.272.169.18.253.444.253.79 0 .074-.002.13-.006.17l-.146 1.79h-.723l.14-1.756a.882.882 0 0 0 .006-.117c0-.186-.046-.328-.137-.425-.092-.098-.227-.146-.406-.146-.225 0-.402.069-.53.207-.129.138-.203.328-.222.569l-.134 1.668h-.73l.17-2.112c.015-.16.023-.344.023-.554 0-.124-.002-.218-.006-.28h.683l.011.438c.102-.164.239-.29.412-.38.173-.089.37-.134.592-.134zm2.648 1.943c-.027.346.119.519.438.519.089 0 .19-.014.303-.04l-.047.57c-.128.047-.288.07-.478.07-.307 0-.543-.08-.706-.241-.163-.162-.245-.396-.245-.703 0-.059.002-.103.006-.134l.105-1.36h-.566l.047-.548h.56l.058-.717.747-.245-.076.962h.787l-.046.548h-.782l-.105 1.319zm4.334 1.131c-.323 0-.624-.041-.904-.125a2.285 2.285 0 0 1-.74-.37l.29-.549c.215.156.433.27.654.342.222.072.463.107.724.107.287 0 .507-.048.659-.145a.464.464 0 0 0 .227-.415.381.381 0 0 0-.12-.288.934.934 0 0 0-.303-.187 5.141 5.141 0 0 0-.498-.16 6.098 6.098 0 0 1-.703-.248 1.258 1.258 0 0 1-.467-.356c-.13-.158-.195-.363-.195-.616 0-.248.068-.467.204-.656.136-.188.328-.334.577-.437.25-.103.54-.155.875-.155.296 0 .576.044.84.131.265.088.48.21.648.365l-.292.548a2.089 2.089 0 0 0-.58-.332 1.795 1.795 0 0 0-.633-.117c-.284 0-.504.053-.66.158a.5.5 0 0 0-.233.437c0 .125.042.228.126.31a.948.948 0 0 0 .315.198c.126.05.298.107.516.169.284.081.514.161.691.239.177.078.329.19.455.338.127.148.19.343.19.584 0 .385-.147.686-.44.904-.294.218-.702.326-1.223.326zm5.192-2.998l-1.633 3.144c-.187.366-.406.632-.657.8-.25.167-.553.278-.907.332l-.122-.566c.276-.058.487-.135.633-.23.146-.096.269-.237.37-.423l.117-.216-1.004-2.84h.741l.7 2.1 1.027-2.1h.735zm1.22 2.993c-.48 0-.909-.125-1.29-.374l.25-.507c.331.23.683.344 1.057.344.377 0 .565-.109.565-.327 0-.1-.05-.178-.148-.23a2.898 2.898 0 0 0-.476-.178 4.309 4.309 0 0 1-.513-.175.94.94 0 0 1-.347-.254.643.643 0 0 1-.143-.434c0-.28.113-.506.338-.677.226-.171.525-.257.899-.257.217 0 .427.033.63.1.202.066.371.157.507.274l-.245.495c-.292-.221-.593-.332-.904-.332-.183 0-.323.03-.42.087a.282.282 0 0 0-.146.257c0 .105.05.184.149.236.099.053.26.112.481.178.214.063.387.122.52.178a.908.908 0 0 1 .34.254.655.655 0 0 1 .143.437.769.769 0 0 1-.338.665c-.225.16-.529.24-.91.24zm2.787-1.126c-.027.346.119.519.438.519.09 0 .19-.014.303-.04l-.046.57c-.129.047-.288.07-.479.07-.307 0-.542-.08-.706-.241-.163-.162-.245-.396-.245-.703 0-.059.002-.103.006-.134l.105-1.36h-.566l.047-.548h.56l.058-.717.747-.245-.076.962h.788l-.047.548h-.782l-.105 1.319zm1.855-.356v.035c0 .288.07.507.21.66.14.15.345.227.613.227.338 0 .642-.103.91-.31l.163.496a1.291 1.291 0 0 1-.49.274c-.202.067-.41.1-.624.1-.3 0-.562-.06-.787-.178a1.238 1.238 0 0 1-.52-.505 1.54 1.54 0 0 1-.18-.758c0-.315.063-.596.19-.843.126-.247.3-.44.524-.578a1.42 1.42 0 0 1 .761-.207c.393 0 .703.114.93.342.228.227.342.547.342.96a2.5 2.5 0 0 1-.017.285h-2.025zm.805-1.068c-.416 0-.67.226-.764.677h1.389c.003-.214-.051-.38-.164-.499a.606.606 0 0 0-.46-.178zm5.408-.519c.311 0 .546.09.706.269.16.179.239.44.239.781 0 .078-.002.136-.006.175l-.14 1.797h-.73l.14-1.773a1.16 1.16 0 0 0 .007-.135c0-.182-.04-.317-.117-.405-.078-.087-.196-.131-.356-.131a.606.606 0 0 0-.481.204c-.119.136-.188.338-.207.607l-.128 1.633h-.73l.14-1.762c.004-.03.006-.074.006-.128 0-.187-.039-.326-.116-.417-.078-.091-.197-.137-.356-.137a.604.604 0 0 0-.484.204c-.117.136-.185.338-.205.607l-.128 1.633h-.73l.17-2.112c.016-.264.023-.464.023-.6 0-.106-.002-.183-.005-.234h.682l.012.42c.214-.33.527-.496.939-.496.218 0 .4.045.545.134.146.09.25.22.312.391.11-.167.25-.296.423-.388.173-.091.365-.137.575-.137z"/>
            <path fill="url(#a)" d="M3.561 2.456l3.513 10.4 3.523-10.474c.183-.55.32-.933.412-1.148.092-.215.243-.41.455-.582.212-.173.5-.26.868-.26.268 0 .516.068.745.202.23.134.41.312.54.534.13.222.196.446.196.672 0 .155-.021.322-.064.502-.042.18-.095.357-.159.53-.063.172-.126.35-.19.534L9.644 13.5a34.78 34.78 0 0 1-.402 1.105c-.134.35-.289.656-.465.92-.176.265-.411.482-.704.651-.292.17-.65.254-1.073.254-.424 0-.782-.083-1.074-.248a2.044 2.044 0 0 1-.71-.656 4.839 4.839 0 0 1-.47-.926 31.477 31.477 0 0 1-.402-1.1L.652 3.45a19.196 19.196 0 0 0-.196-.54 4.184 4.184 0 0 1-.17-.572 2.44 2.44 0 0 1-.068-.518c0-.36.145-.688.434-.984a1.46 1.46 0 0 1 1.09-.444c.536 0 .915.164 1.137.492.222.328.45.851.682 1.57zM16.3 14.516V2.297c0-.635.144-1.11.434-1.428.289-.318.663-.476 1.121-.476.473 0 .855.157 1.148.47.293.314.439.792.439 1.434v12.22c0 .641-.146 1.12-.44 1.438-.292.317-.674.476-1.147.476-.451 0-.823-.16-1.116-.481-.293-.321-.44-.799-.44-1.434zm11.891-.687l-2.486-9.882v10.707c0 .592-.132 1.037-.397 1.333-.264.296-.615.444-1.052.444-.424 0-.77-.146-1.037-.439-.268-.293-.402-.739-.402-1.338V2.382c0-.677.176-1.134.529-1.37.352-.237.828-.355 1.428-.355h.973c.586 0 1.01.053 1.275.159.265.106.46.296.587.571.127.275.272.723.434 1.344l2.253 8.495 2.254-8.495c.162-.62.307-1.069.434-1.344a1.07 1.07 0 0 1 .587-.571c.264-.106.69-.159 1.275-.159h.973c.6 0 1.075.118 1.428.355.353.236.53.693.53 1.37v12.272c0 .592-.133 1.037-.398 1.333-.264.296-.619.444-1.063.444-.416 0-.758-.148-1.026-.444-.268-.296-.402-.74-.402-1.333V3.947L32.4 13.83a19.984 19.984 0 0 1-.397 1.412c-.102.3-.29.573-.566.82-.275.247-.656.37-1.143.37-.366 0-.677-.08-.93-.238a1.715 1.715 0 0 1-.593-.608 3.473 3.473 0 0 1-.333-.82c-.081-.3-.164-.612-.249-.936zm24.597-2.317c0 .938-.241 1.78-.724 2.528-.484.748-1.19 1.333-2.122 1.756-.93.424-2.034.635-3.311.635-1.53 0-2.793-.289-3.787-.867a5.046 5.046 0 0 1-1.72-1.667c-.44-.694-.66-1.37-.66-2.026 0-.38.131-.707.396-.978.264-.272.601-.407 1.01-.407.332 0 .612.105.841.317.23.211.425.525.588.941.197.494.41.907.64 1.238.229.332.551.605.968.82.416.215.962.323 1.64.323.93 0 1.687-.217 2.269-.65.582-.435.873-.976.873-1.625 0-.515-.157-.932-.471-1.253-.314-.321-.72-.566-1.217-.736-.497-.169-1.162-.349-1.994-.54-1.115-.26-2.047-.565-2.798-.914-.752-.35-1.348-.826-1.788-1.429-.441-.603-.662-1.352-.662-2.248 0-.853.233-1.611.699-2.274.465-.663 1.139-1.173 2.02-1.529.882-.356 1.919-.534 3.11-.534.953 0 1.776.118 2.471.354.695.236 1.271.55 1.73.942.458.391.793.802 1.005 1.232.211.43.317.85.317 1.26 0 .373-.132.71-.397 1.01-.264.3-.594.45-.989.45-.36 0-.633-.09-.82-.27-.187-.18-.39-.475-.608-.884-.282-.585-.62-1.042-1.016-1.37-.395-.328-1.03-.492-1.904-.492-.811 0-1.465.178-1.962.534-.498.356-.746.785-.746 1.286 0 .31.084.578.254.804.169.225.402.42.698.582.296.162.596.289.9.38.302.092.803.226 1.501.402.875.205 1.667.43 2.376.678.708.246 1.311.546 1.809.899.497.352.885.799 1.163 1.338.279.54.418 1.2.418 1.984z" transform="translate(38.333 2.083)"/>
        </g>
        <path fill="#EE9838" d="M0 0h10v10H0z"/>
        <path fill="#F3B93E" d="M10 0h10v10H10z"/>
        <path fill="#F6D244" d="M20 0h10v10H20z"/>
        <path fill="#F3B93E" d="M20 10h10v10H20z"/>
        <path fill="#EE9838" d="M20 20h10v10H20z"/>
        <path fill="#E97A32" d="M0 10h10v10H0z"/>
        <path fill="#E45C13" d="M0 20h10v10H0z"/>
        <path fill="#EA7B32" d="M10 20h10v10H10z"/>
    </g>
</svg>
