<svg xmlns="http://www.w3.org/2000/svg" xmlns:xlink="http://www.w3.org/1999/xlink" width="137" height="60" viewBox="0 0 137 60">
    <defs>
        <path id="a" d="M23.493 2.151L37.44 16.097a5.556 5.556 0 0 1 0 7.856L23.493 37.9a5.556 5.556 0 0 1-7.857 0L1.691 23.953a5.556 5.556 0 0 1 0-7.856L15.636 2.15a5.556 5.556 0 0 1 7.857 0zm-3.928 7.692L9.382 20.025l10.183 10.182 10.182-10.182L19.565 9.843z"/>
        <linearGradient id="b" x1="72.282%" x2="72.282%" y1=".755%" y2="100%">
            <stop offset="0%" stop-color="#FF0707" stop-opacity=".8"/>
            <stop offset="46.223%" stop-color="#FF5900"/>
            <stop offset="100%" stop-color="#F6D244" stop-opacity=".8"/>
        </linearGradient>
        <filter id="d" width="288.5%" height="288.5%" x="-94.3%" y="-94.3%" filterUnits="objectBoundingBox">
            <feGaussianBlur in="SourceGraphic" stdDeviation="2.778"/>
        </filter>
        <path id="e" d="M13.304 0l6.187 6.187-9.418 9.418L25.688 31.22l-2.258 2.26a5.556 5.556 0 0 1-7.857 0L1.627 19.533a5.556 5.556 0 0 1 0-7.857L13.304 0z"/>
        <filter id="f" width="288.5%" height="288.5%" x="-94.3%" y="-94.3%" filterUnits="objectBoundingBox">
            <feGaussianBlur in="SourceGraphic" stdDeviation="2.778"/>
        </filter>
    </defs>
    <g fill="none" fill-rule="evenodd">
        <g transform="translate(1 .75)">
            <mask id="c" fill="#fff">
                <use xlink:href="#a"/>
            </mask>
            <use fill="#D8D8D8" xlink:href="#a"/>
            <path fill="url(#b)" d="M13.304 4.42l6.187 6.187-9.418 9.418L25.688 35.64 23.43 37.9a5.556 5.556 0 0 1-7.857 0L1.627 23.952a5.556 5.556 0 0 1 0-7.856L13.304 4.42z" mask="url(#c)"/>
            <path fill="#000" d="M15.145 0h8.84v8.84h-8.84z" filter="url(#d)" mask="url(#c)" opacity=".609" transform="rotate(45 19.565 4.42)"/>
            <g mask="url(#c)">
                <g transform="translate(13.314 .524)">
                    <mask id="g" fill="#fff">
                        <use xlink:href="#e"/>
                    </mask>
                    <use fill="url(#b)" transform="rotate(-180 12.844 17.553)" xlink:href="#e"/>
                    <path fill="#000" d="M1.355 29.999h8.84v8.84h-8.84z" filter="url(#f)" mask="url(#g)" opacity=".609" transform="rotate(45 5.775 34.419)"/>
                </g>
            </g>
        </g>
        <path fill="#212121" fill-rule="nonzero" d="M79.157 21.382c0 3.415-.64 6.398-1.918 8.949-1.28 2.55-3.057 4.507-5.335 5.872-2.277 1.365-4.874 2.047-7.79 2.047-2.964 0-5.588-.682-7.873-2.047-2.285-1.365-4.063-3.322-5.334-5.872S49 24.797 49 21.38v-1.24c0-3.415.636-6.398 1.907-8.948 1.27-2.55 3.045-4.512 5.322-5.884 2.277-1.373 4.89-2.059 7.838-2.059 2.917 0 5.517.686 7.802 2.059 2.285 1.372 4.071 3.334 5.358 5.884 1.287 2.55 1.93 5.533 1.93 8.949v1.24zm-8.914-1.287c0-3.15-.534-5.557-1.602-7.218-1.069-1.66-2.593-2.491-4.574-2.491-4.102 0-6.153 3.236-6.153 9.709v1.287c0 3.15.518 5.564 1.556 7.24 1.037 1.677 2.585 2.516 4.644 2.516 1.965 0 3.478-.85 4.538-2.55 1.061-1.7 1.591-4.102 1.591-7.206v-1.287zm24.542 3.954c-2.308-.78-4.297-1.626-5.965-2.539-1.67-.912-3.038-2.078-4.106-3.497-1.069-1.42-1.603-3.128-1.603-5.124 0-1.965.573-3.673 1.72-5.124 1.146-1.45 2.733-2.565 4.76-3.345 2.028-.78 4.313-1.17 6.856-1.17 2.48 0 4.686.421 6.62 1.263 1.935.843 3.451 2.063 4.551 3.662 1.1 1.599 1.65 3.505 1.65 5.72h-8.704c0-1.154-.37-2.07-1.111-2.749-.741-.678-1.813-1.018-3.217-1.018-.936 0-1.74.133-2.41.398-.67.265-1.177.612-1.52 1.041-.344.43-.515.9-.515 1.416 0 .857.495 1.59 1.485 2.199.99.608 2.508 1.248 4.55 1.918 3.76 1.217 6.602 2.73 8.529 4.539 1.926 1.81 2.889 4.118 2.889 6.925 0 2.059-.523 3.814-1.568 5.264-1.045 1.45-2.518 2.55-4.421 3.299-1.903.749-4.141 1.123-6.715 1.123-2.511 0-4.862-.417-7.054-1.252-2.191-.834-3.973-2.14-5.346-3.918-1.372-1.779-2.058-4.009-2.058-6.692h8.773c0 1.264.207 2.262.62 2.995.413.733 1.033 1.252 1.86 1.556.827.304 1.895.456 3.205.456 1.357 0 2.36-.269 3.006-.807.648-.538.971-1.197.971-1.977 0-.67-.14-1.236-.42-1.696-.281-.46-.831-.917-1.65-1.369-.819-.452-2.04-.951-3.662-1.497zm41.247 6.691v7.042h-22.764V3.718h8.727V30.74h14.037zM5.688 55.17c0 .576-.095 1.075-.286 1.496-.19.422-.462.745-.814.97-.352.226-.764.338-1.236.338-.459 0-.866-.113-1.222-.34a2.26 2.26 0 0 1-.832-.974C1.099 56.238 1 55.74 1 55.17v-.372c0-.57.099-1.068.296-1.492a2.25 2.25 0 0 1 .828-.976c.355-.227.761-.34 1.22-.34.472 0 .885.113 1.238.34.354.227.626.551.818.974.192.423.288.92.288 1.494v.372zm-.768-.38c0-.459-.062-.849-.186-1.17-.124-.321-.304-.565-.54-.73a1.444 1.444 0 0 0-.85-.248c-.317 0-.595.083-.832.25-.237.167-.42.41-.548.732-.128.321-.192.71-.192 1.166v.38c0 .459.065.85.194 1.172.13.323.313.568.55.734.237.167.516.25.836.25.502 0 .888-.185 1.16-.556.272-.37.408-.904.408-1.6v-.38zm5.205-1.224v4.328h-.712l-.012-.428c-.289.339-.711.508-1.269.508-.445 0-.793-.13-1.044-.392-.25-.261-.376-.669-.376-1.224v-2.792h.748v2.8c0 .36.074.614.222.762a.772.772 0 0 0 .57.222c.56 0 .935-.209 1.125-.628v-3.156h.748zm2.956 4.328c-.171.054-.362.08-.572.08-.302 0-.544-.09-.726-.272-.183-.181-.274-.476-.274-.884V54.13h-.788v-.564h.788v-1.052h.748v1.052h.808v.564h-.808v2.692c0 .206.042.344.128.414a.53.53 0 0 0 .348.106c.056 0 .117-.004.184-.014a1.4 1.4 0 0 0 .16-.03l.004.596zm2.372-1.9c-.515-.106-.904-.256-1.166-.448a.931.931 0 0 1-.394-.796c0-.23.066-.44.2-.632.133-.192.322-.345.566-.46.244-.115.523-.172.838-.172.336 0 .63.06.88.18s.442.282.574.486c.132.204.198.432.198.682h-.748a.66.66 0 0 0-.108-.356.81.81 0 0 0-.314-.282 1.009 1.009 0 0 0-.482-.11c-.195 0-.356.03-.484.09a.588.588 0 0 0-.372.55c0 .115.027.21.082.286a.696.696 0 0 0 .296.206c.143.062.349.122.618.18.363.083.657.18.884.292.227.112.395.25.506.412.11.163.166.36.166.592 0 .251-.07.473-.208.666a1.357 1.357 0 0 1-.588.452 2.229 2.229 0 0 1-.88.162c-.368 0-.686-.066-.954-.198a1.478 1.478 0 0 1-.61-.522 1.259 1.259 0 0 1-.208-.692h.748a.78.78 0 0 0 .546.732c.15.054.31.08.478.08.195 0 .362-.027.502-.082a.713.713 0 0 0 .318-.224.518.518 0 0 0 .108-.322.615.615 0 0 0-.076-.312c-.05-.088-.148-.17-.292-.244a2.505 2.505 0 0 0-.624-.196zm3.144-4.004c.139 0 .247.04.326.12.079.08.118.181.118.304 0 .12-.04.22-.118.298a.44.44 0 0 1-.326.118.427.427 0 0 1-.322-.118.412.412 0 0 1-.114-.298c0-.123.038-.224.114-.304a.423.423 0 0 1 .322-.12zm-.38 5.904v-4.328h.748v4.328h-.748zm5.404-6.144v6.144h-.684l-.036-.46c-.293.36-.704.54-1.232.54-.333 0-.63-.094-.888-.284-.259-.189-.46-.45-.602-.784a2.84 2.84 0 0 1-.214-1.128v-.084c0-.437.07-.822.212-1.156.141-.333.341-.592.6-.776.259-.184.559-.276.9-.276.51 0 .908.17 1.196.508V51.75h.748zm-1.768 5.6c.462 0 .802-.209 1.02-.628v-2.004a1.202 1.202 0 0 0-.402-.448 1.088 1.088 0 0 0-.61-.164.99.99 0 0 0-.646.21c-.172.14-.298.33-.38.57-.081.24-.122.51-.122.808v.084c0 .299.04.566.122.802.082.236.208.424.378.562.17.139.384.208.64.208zm6.405-1.416h-2.929c.008.27.064.514.168.732a1.183 1.183 0 0 0 1.112.708c.251 0 .468-.05.65-.152.183-.101.347-.246.49-.436l.453.352c-.16.246-.374.446-.64.602-.267.156-.598.234-.992.234-.395 0-.743-.089-1.045-.268a1.815 1.815 0 0 1-.698-.744 2.318 2.318 0 0 1-.246-1.08v-.172c0-.45.088-.844.264-1.182.176-.337.41-.595.698-.774.29-.179.6-.268.93-.268.403 0 .737.09 1.003.27.265.18.462.429.59.746.128.318.192.684.192 1.1v.332zm-.748-.656c-.022-.338-.113-.622-.274-.85-.162-.228-.416-.342-.762-.342a.969.969 0 0 0-.747.326c-.198.218-.323.525-.374.922h2.157v-.056zm7.292 1.992v.624h-3.536V52.07h.776v5.2h2.76zm4.06-.32c0 .152.014.309.04.47.027.162.064.298.112.41v.064h-.78a1.694 1.694 0 0 1-.104-.452c-.15.16-.328.289-.538.386-.21.098-.44.146-.69.146-.288 0-.543-.056-.766-.17a1.27 1.27 0 0 1-.516-.462 1.2 1.2 0 0 1-.182-.648c0-.306.08-.566.238-.78.159-.213.384-.374.676-.482a2.98 2.98 0 0 1 1.034-.162h.728v-.344c0-.264-.078-.471-.234-.622-.156-.15-.38-.226-.674-.226-.179 0-.339.031-.48.094a.81.81 0 0 0-.33.252.56.56 0 0 0-.118.342h-.748c0-.21.072-.415.216-.612a1.56 1.56 0 0 1 .608-.482c.261-.124.56-.186.896-.186.32 0 .6.054.842.162.242.108.43.27.566.488.136.217.204.484.204.798v2.016zm-1.852.384a1.26 1.26 0 0 0 .86-.328c.107-.098.188-.205.244-.32v-.896h-.608c-.427 0-.753.068-.98.202a.653.653 0 0 0-.34.598c0 .142.032.268.096.38.064.112.157.201.28.266a.943.943 0 0 0 .448.098zm4.992-3.848c.355 0 .66.091.913.274.253.183.446.44.578.772.132.332.198.72.198 1.162v.084c0 .424-.066.802-.198 1.134a1.747 1.747 0 0 1-.578.78 1.475 1.475 0 0 1-.905.282c-.546 0-.969-.19-1.268-.572l-.036.492h-.684V51.75h.748v2.28c.296-.363.707-.544 1.232-.544zm.94 2.208c0-.474-.09-.858-.27-1.15-.18-.292-.466-.438-.858-.438-.253 0-.466.06-.638.182a1.24 1.24 0 0 0-.406.494v1.892c.102.206.24.37.414.492.175.123.388.184.638.184.376 0 .657-.146.842-.438.186-.292.279-.67.279-1.134v-.084zm1.489-.008c0-.418.08-.794.24-1.128.16-.333.388-.595.686-.786a1.88 1.88 0 0 1 1.038-.286c.4 0 .75.095 1.048.286.298.19.528.453.688.786.16.334.24.71.24 1.128v.092c0 .419-.08.794-.24 1.126-.16.332-.389.594-.686.784-.298.191-.645.286-1.042.286-.398 0-.745-.095-1.042-.286a1.892 1.892 0 0 1-.688-.784 2.543 2.543 0 0 1-.242-1.126v-.092zm.748.092c0 .294.046.562.138.804.092.243.23.436.414.578.184.143.408.214.672.214.261 0 .484-.071.668-.214a1.29 1.29 0 0 0 .414-.578c.092-.242.138-.51.138-.804v-.092c0-.293-.047-.561-.14-.804a1.318 1.318 0 0 0-.416-.58 1.057 1.057 0 0 0-.672-.216c-.262 0-.484.072-.666.216a1.31 1.31 0 0 0-.412.58c-.092.243-.138.51-.138.804v.092zm7.516-2.212v4.328h-.712l-.012-.428c-.288.339-.71.508-1.268.508-.445 0-.793-.13-1.044-.392-.25-.261-.376-.669-.376-1.224v-2.792h.748v2.8c0 .36.074.614.222.762a.772.772 0 0 0 .57.222c.56 0 .935-.209 1.124-.628v-3.156h.748zm2.888-.08a1.131 1.131 0 0 1 .328.056v.684a1.988 1.988 0 0 0-.364-.032c-.245 0-.45.055-.614.164-.164.11-.287.263-.37.46v3.076h-.748v-4.328h.728l.016.492c.112-.181.254-.322.424-.422.17-.1.37-.15.6-.15zm8.957 4.408h-.772v-2.276l.072-2.428-1.908 4.704h-.588l-1.905-4.7.072 2.424v2.276h-.772V52.07h1l1.9 4.76 1.9-4.76h1v5.824zm4.54-.944c0 .152.013.309.04.47.027.162.064.298.112.41v.064h-.78a1.694 1.694 0 0 1-.104-.452c-.15.16-.329.289-.538.386-.21.098-.44.146-.69.146-.288 0-.543-.056-.766-.17a1.27 1.27 0 0 1-.516-.462 1.2 1.2 0 0 1-.182-.648c0-.306.08-.566.238-.78.159-.213.384-.374.676-.482a2.98 2.98 0 0 1 1.034-.162h.728v-.344c0-.264-.078-.471-.234-.622-.156-.15-.38-.226-.674-.226-.179 0-.339.031-.48.094a.81.81 0 0 0-.33.252.56.56 0 0 0-.118.342h-.748c0-.21.072-.415.216-.612a1.56 1.56 0 0 1 .608-.482c.261-.124.56-.186.896-.186.32 0 .6.054.842.162.241.108.43.27.566.488.136.217.204.484.204.798v2.016zm-1.852.384a1.26 1.26 0 0 0 .86-.328c.107-.098.188-.205.244-.32v-.896h-.608c-.427 0-.753.068-.98.202a.653.653 0 0 0-.34.598c0 .142.032.268.096.38.064.112.157.201.28.266a.943.943 0 0 0 .448.098zm5.032-3.848c.926 0 1.388.524 1.388 1.572v2.836H72.9V55.05c0-.33-.071-.57-.214-.72-.142-.15-.358-.224-.646-.224-.23 0-.435.063-.618.188a1.323 1.323 0 0 0-.434.504v3.096h-.748v-4.328h.708l.024.532c.158-.195.346-.345.564-.452.219-.107.46-.16.724-.16zm5.805 3.464c0 .152.013.309.04.47.026.162.064.298.112.41v.064h-.78a1.694 1.694 0 0 1-.104-.452c-.15.16-.33.289-.538.386-.21.098-.44.146-.69.146-.289 0-.544-.056-.767-.17a1.27 1.27 0 0 1-.516-.462 1.2 1.2 0 0 1-.182-.648c0-.306.08-.566.238-.78.16-.213.384-.374.676-.482a2.98 2.98 0 0 1 1.035-.162h.728v-.344c0-.264-.078-.471-.234-.622-.156-.15-.381-.226-.674-.226-.18 0-.34.031-.48.094a.81.81 0 0 0-.33.252.56.56 0 0 0-.119.342h-.748c0-.21.072-.415.216-.612a1.56 1.56 0 0 1 .608-.482c.262-.124.56-.186.897-.186.32 0 .6.054.842.162.24.108.43.27.566.488.136.217.204.484.204.798v2.016zm-1.853.384a1.26 1.26 0 0 0 .86-.328c.107-.098.189-.205.245-.32v-.896h-.608c-.427 0-.754.068-.98.202a.653.653 0 0 0-.34.598c0 .142.031.268.095.38.064.112.158.201.28.266a.943.943 0 0 0 .448.098zm6.497-3.768v4.236c0 .376-.077.7-.232.97-.155.271-.37.477-.646.618a2.074 2.074 0 0 1-.958.212 2.26 2.26 0 0 1-.552-.076c-.2-.05-.396-.132-.586-.244a1.435 1.435 0 0 1-.466-.432l.388-.436c.32.392.706.588 1.16.588.354 0 .634-.1.838-.302.204-.2.306-.488.306-.862v-.372c-.294.339-.696.508-1.208.508-.342 0-.64-.094-.898-.284a1.824 1.824 0 0 1-.596-.782 2.884 2.884 0 0 1-.21-1.13v-.084c0-.437.069-.822.208-1.156.138-.333.337-.592.596-.776.258-.184.561-.276.908-.276.528 0 .94.185 1.236.556l.032-.476h.68zm-1.772 3.784c.464 0 .805-.212 1.024-.636v-1.988a1.204 1.204 0 0 0-.404-.454 1.088 1.088 0 0 0-.612-.166.99.99 0 0 0-.646.21c-.172.14-.299.33-.38.57-.082.24-.122.51-.122.808v.084c0 .299.04.566.122.802.081.236.207.424.378.562.17.139.384.208.64.208zm6.376-1.416h-2.928c.008.27.064.514.168.732a1.183 1.183 0 0 0 1.112.708c.25 0 .467-.05.65-.152.183-.101.346-.246.49-.436l.452.352c-.16.246-.373.446-.64.602-.267.156-.597.234-.992.234s-.743-.089-1.044-.268a1.815 1.815 0 0 1-.698-.744 2.318 2.318 0 0 1-.246-1.08v-.172c0-.45.088-.844.264-1.182.176-.337.409-.595.698-.774.29-.179.6-.268.93-.268.403 0 .737.09 1.002.27.265.18.462.429.59.746.128.318.192.684.192 1.1v.332zm-.748-.656c-.021-.338-.113-.622-.274-.85-.161-.228-.415-.342-.762-.342a.969.969 0 0 0-.746.326c-.199.218-.323.525-.374.922h2.156v-.056zm6.224-1.792c.475 0 .835.127 1.08.38.246.253.369.648.369 1.184v2.844h-.748v-2.852c0-.344-.078-.586-.234-.726-.157-.14-.385-.21-.687-.21-.192 0-.36.04-.504.122a.893.893 0 0 0-.338.33 1.159 1.159 0 0 0-.15.468v2.868h-.748v-2.848c0-.627-.308-.94-.924-.94-.248 0-.453.054-.616.162a1.025 1.025 0 0 0-.372.45v3.176h-.748v-4.328h.708l.024.468c.15-.176.33-.311.544-.406.214-.095.458-.142.732-.142.286 0 .536.057.75.17.215.113.377.286.486.518.15-.213.341-.381.574-.504.234-.123.501-.184.802-.184zm6.053 2.448h-2.928c.008.27.064.514.168.732a1.183 1.183 0 0 0 1.112.708c.25 0 .467-.05.65-.152.182-.101.346-.246.49-.436l.452.352c-.16.246-.374.446-.64.602-.267.156-.598.234-.992.234-.395 0-.743-.089-1.044-.268a1.815 1.815 0 0 1-.698-.744 2.318 2.318 0 0 1-.246-1.08v-.172c0-.45.088-.844.264-1.182.176-.337.408-.595.698-.774.289-.179.599-.268.93-.268.402 0 .736.09 1.002.27.265.18.462.429.59.746.128.318.192.684.192 1.1v.332zm-.748-.656c-.022-.338-.113-.622-.274-.85-.162-.228-.416-.342-.762-.342a.969.969 0 0 0-.746.326c-.199.218-.324.525-.374.922h2.156v-.056zm3.628-1.792c.925 0 1.388.524 1.388 1.572v2.836h-.748V55.05c0-.33-.071-.57-.214-.72-.143-.15-.358-.224-.646-.224-.23 0-.435.063-.618.188a1.323 1.323 0 0 0-.434.504v3.096h-.748v-4.328h.708l.024.532c.157-.195.345-.345.564-.452.219-.107.46-.16.724-.16zm4.34 4.408c-.17.054-.361.08-.572.08-.301 0-.543-.09-.726-.272-.182-.181-.274-.476-.274-.884V54.13h-.788v-.564h.788v-1.052h.748v1.052h.808v.564h-.808v2.692c0 .206.043.344.128.414a.53.53 0 0 0 .348.106c.056 0 .118-.004.184-.014a1.4 1.4 0 0 0 .16-.03l.004.596zm4.709-2.604c-.616-.178-1.085-.402-1.405-.67a1.3 1.3 0 0 1-.48-1.046c0-.301.082-.572.246-.812a1.65 1.65 0 0 1 .696-.566 2.46 2.46 0 0 1 1.035-.206c.424 0 .79.081 1.102.244.31.163.548.379.712.648.164.27.246.559.246.868h-.78c0-.341-.108-.615-.324-.822-.216-.207-.535-.31-.956-.31-.392 0-.69.087-.892.26a.856.856 0 0 0-.305.684c0 .165.047.31.14.436.094.125.24.239.437.34.197.101.457.197.78.288.448.126.81.27 1.09.432.278.163.485.354.62.574.134.22.202.48.202.782 0 .312-.084.586-.25.822a1.594 1.594 0 0 1-.71.546 2.768 2.768 0 0 1-1.072.192 2.79 2.79 0 0 1-1.063-.206 1.972 1.972 0 0 1-.822-.606 1.495 1.495 0 0 1-.316-.956h.776c0 .256.065.47.194.64.13.171.302.298.517.38.214.083.452.124.714.124.397 0 .705-.082.924-.248a.806.806 0 0 0 .328-.68c0-.19-.04-.347-.118-.474-.079-.126-.217-.241-.414-.344a4.813 4.813 0 0 0-.852-.314zm6.248-1.724l-1.736 4.996c-.107.291-.26.544-.462.758-.202.215-.476.322-.822.322-.056 0-.129-.007-.218-.022a1.81 1.81 0 0 1-.202-.042v-.596a1.395 1.395 0 0 0 .2.02c.253 0 .45-.052.59-.158.14-.105.254-.29.342-.554l.164-.444-1.544-4.28h.816l1.072 3.24 1.004-3.24h.796zm2.188 2.428c-.515-.106-.903-.256-1.166-.448a.931.931 0 0 1-.394-.796c0-.23.067-.44.2-.632s.322-.345.566-.46c.244-.115.523-.172.838-.172.336 0 .63.06.88.18s.442.282.574.486c.132.204.198.432.198.682h-.748a.66.66 0 0 0-.108-.356.81.81 0 0 0-.314-.282 1.009 1.009 0 0 0-.482-.11c-.195 0-.356.03-.484.09a.588.588 0 0 0-.372.55c0 .115.027.21.082.286a.696.696 0 0 0 .296.206c.143.062.349.122.618.18.363.083.657.18.884.292.227.112.395.25.506.412.11.163.166.36.166.592 0 .251-.07.473-.208.666a1.357 1.357 0 0 1-.588.452 2.229 2.229 0 0 1-.88.162c-.368 0-.686-.066-.954-.198a1.478 1.478 0 0 1-.61-.522 1.259 1.259 0 0 1-.208-.692h.748a.78.78 0 0 0 .546.732c.15.054.31.08.478.08.195 0 .362-.027.502-.082a.713.713 0 0 0 .318-.224.518.518 0 0 0 .108-.322.615.615 0 0 0-.076-.312c-.05-.088-.148-.17-.292-.244a2.505 2.505 0 0 0-.624-.196zm4.536 1.9c-.17.054-.361.08-.572.08-.301 0-.543-.09-.726-.272-.182-.181-.274-.476-.274-.884V54.13h-.788v-.564h.788v-1.052h.748v1.052h.808v.564h-.808v2.692c0 .206.043.344.128.414a.53.53 0 0 0 .348.106c.056 0 .118-.004.184-.014a1.4 1.4 0 0 0 .16-.03l.004.596zm4.333-1.96h-2.929c.008.27.064.514.168.732a1.183 1.183 0 0 0 1.112.708c.251 0 .468-.05.65-.152.183-.101.347-.246.49-.436l.453.352c-.16.246-.374.446-.64.602-.267.156-.598.234-.993.234-.394 0-.742-.089-1.044-.268a1.815 1.815 0 0 1-.698-.744 2.318 2.318 0 0 1-.246-1.08v-.172c0-.45.088-.844.264-1.182.176-.337.41-.595.698-.774.29-.179.6-.268.93-.268.403 0 .737.09 1.003.27.265.18.462.429.59.746.128.318.192.684.192 1.1v.332zm-.748-.656c-.022-.338-.113-.622-.274-.85-.162-.228-.416-.342-.763-.342a.969.969 0 0 0-.746.326c-.198.218-.323.525-.374.922h2.157v-.056zm6.224-1.792c.475 0 .835.127 1.08.38.245.253.368.648.368 1.184v2.844h-.748v-2.852c0-.344-.078-.586-.234-.726-.156-.14-.385-.21-.686-.21-.192 0-.36.04-.504.122a.893.893 0 0 0-.338.33 1.159 1.159 0 0 0-.15.468v2.868h-.748v-2.848c0-.627-.308-.94-.924-.94-.248 0-.454.054-.616.162a1.025 1.025 0 0 0-.372.45v3.176h-.748v-4.328h.708l.024.468c.149-.176.33-.311.544-.406.213-.095.457-.142.732-.142.285 0 .535.057.75.17.214.113.376.286.486.518.15-.213.34-.381.574-.504.233-.123.5-.184.802-.184z"/>
        <path fill="#212121" fill-rule="nonzero" d="M20.226 46.5h95.548c.099 0 .179-.112.179-.25s-.08-.25-.179-.25H20.226c-.099 0-.179.112-.179.25s.08.25.179.25z" opacity=".081"/>
    </g>
</svg>
