<svg xmlns="http://www.w3.org/2000/svg" width="188" height="40" viewBox="0 0 188 40">
    <g fill="none" fill-rule="evenodd">
        <g fill="#1A3885">
            <path d="M15.67.867c8.614 0 15.64 8.68 15.64 19.322s-7.026 19.323-15.64 19.323c-8.613 0-15.638-8.68-15.638-19.323C.032 9.547 7.057.867 15.67.867zm0 2.023c7.712 0 14.002 7.772 14.002 17.299 0 9.528-6.29 17.3-14.001 17.3-7.712 0-14.002-7.772-14.002-17.3 0-9.527 6.29-17.299 14.002-17.299z"/>
            <path d="M5.424 11.592h5.446v2.08H9.378v16.867H6.916V13.67H5.424zM11.24 11.593l2.36.04 1.522 15.02 1.487-15.061 2.37.079-2.76 18.857h-.138l-2 .012zM21.65 11.592h1.092c1.24 0 2.256 1.038 2.256 2.31v3.009l-1.87.05v-3.078a.66.66 0 0 0-.649-.665h-.313a.66.66 0 0 0-.65.665v2.832c0 .375.075.613.285.926l2.945 4.396c.182.27.252.477.252.813v5.38c0 1.272-1.016 2.31-2.256 2.31H21.65c-1.24 0-2.252-1.038-2.252-2.31v-4.763l1.979-.054v4.627a.66.66 0 0 0 .648.665h.314a.66.66 0 0 0 .65-.665v-4.757c0-.37-.106-.585-.31-.89l-3-4.504c-.174-.26-.262-.462-.262-.786v-3.201c0-1.273.993-2.31 2.233-2.31"/>
        </g>
        <path fill="#1F1A16" d="M40.295 17.773V8.68h-3.608V7.601h8.66v1.08h-3.609v9.092h-1.443zm13.711 0L50.164 7.6h1.443l3.148 8.33 3.038-8.33h1.264l-3.69 10.172h-1.361zm12.873.254c-.683 0-1.556-.149-2.619-.447v-1.43c1.146.532 2.087.798 2.825.798.568 0 1.025-.149 1.37-.447.347-.297.52-.69.52-1.175 0-.398-.114-.737-.34-1.017-.227-.28-.645-.591-1.255-.935l-.7-.405c-.867-.495-1.477-.961-1.832-1.399a2.355 2.355 0 0 1-.533-1.529c0-.783.284-1.428.852-1.935.568-.506 1.292-.759 2.172-.759.784 0 1.61.13 2.481.392v1.32c-1.072-.422-1.872-.633-2.398-.633-.5 0-.912.133-1.238.399-.325.265-.488.6-.488 1.003 0 .34.12.64.358.9.238.262.673.573 1.306.935l.728.412c.88.5 1.494.972 1.842 1.416.348.445.522.978.522 1.602 0 .884-.326 1.594-.979 2.13-.653.536-1.518.804-2.594.804zm10.295-.254V16.37c-.72 1.05-1.592 1.574-2.619 1.574-.65 0-1.168-.205-1.553-.615-.385-.41-.577-.964-.577-1.66v-5.36h1.354v4.92c0 .559.081.956.244 1.192.162.236.434.354.814.354.825 0 1.604-.543 2.337-1.629V10.31h1.354v7.464h-1.354zm4.069 0v-7.464h1.353v1.402c.715-1.045 1.59-1.567 2.626-1.567.646 0 1.161.205 1.546.615.385.41.577.961.577 1.653v5.36h-1.353v-4.92c0-.554-.082-.95-.244-1.186-.163-.235-.432-.353-.808-.353-.83 0-1.61.542-2.344 1.628v4.832h-1.353zm13.525 0V16.37c-.55 1.05-1.38 1.574-2.488 1.574-.898 0-1.605-.328-2.12-.983-.516-.655-.773-1.551-.773-2.687 0-1.242.292-2.24.876-2.997.584-.756 1.353-1.134 2.306-1.134.884 0 1.617.34 2.199 1.017v-4.24h1.36v10.852h-1.36zm0-5.684c-.701-.618-1.365-.928-1.993-.928-1.297 0-1.945.992-1.945 2.976 0 1.746.577 2.619 1.732 2.619.751 0 1.487-.41 2.206-1.23v-3.437zm4.069 5.684v-7.464h1.354v1.402c.536-1.045 1.315-1.567 2.336-1.567.138 0 .282.012.433.035v1.264a1.99 1.99 0 0 0-.618-.117c-.857 0-1.574.509-2.151 1.526v4.92h-1.354zm9.608-.949c-.811.747-1.593 1.12-2.344 1.12-.618 0-1.132-.193-1.54-.58-.407-.387-.611-.876-.611-1.467 0-.816.342-1.443 1.027-1.88.685-.438 1.667-.656 2.945-.656h.323v-.9c0-.867-.444-1.3-1.333-1.3-.715 0-1.487.22-2.316.66v-1.12c.912-.371 1.766-.557 2.563-.557.834 0 1.45.188 1.846.564.396.375.594.96.594 1.752v3.382c0 .774.239 1.161.715 1.161.06 0 .147-.01.261-.027l.096.749a2.33 2.33 0 0 1-1.017.22c-.632 0-1.035-.374-1.21-1.12zm-.2-.735v-1.931l-.453-.014c-.743 0-1.343.141-1.8.423-.46.282-.688.652-.688 1.11 0 .325.114.6.343.824.23.225.509.337.839.337.563 0 1.15-.25 1.76-.749zm4.124 1.684v-7.464h1.354v1.402c.66-1.045 1.507-1.567 2.543-1.567.999 0 1.679.522 2.041 1.567.641-1.05 1.475-1.574 2.502-1.574.66 0 1.17.194 1.532.581.362.387.543.929.543 1.625v5.43h-1.36v-5.217c0-.852-.337-1.278-1.01-1.278-.702 0-1.437.497-2.207 1.492v5.003h-1.36v-5.217c0-.856-.344-1.285-1.032-1.285-.682 0-1.413.5-2.192 1.499v5.003h-1.354zm17.546 0V7.6h1.443v10.172h-1.443zm4.536 2.715l1.21-2.715-2.887-7.464h1.464l2.137 5.622 2.282-5.622h1.278l-4.075 10.179h-1.41zm12.391-2.956c-.907.275-1.683.413-2.33.413-1.1 0-1.996-.366-2.69-1.097-.694-.73-1.041-1.678-1.041-2.841 0-1.132.305-2.06.917-2.784.612-.724 1.394-1.086 2.347-1.086.903 0 1.6.321 2.093.962.492.642.739 1.554.739 2.736l-.007.419h-4.708c.197 1.773 1.065 2.66 2.605 2.66.563 0 1.255-.151 2.075-.454v1.072zm-4.618-4.295h3.292c0-1.388-.518-2.083-1.553-2.083-1.04 0-1.62.695-1.74 2.083zm6.99 4.536v-7.464h1.353v1.402c.715-1.045 1.59-1.567 2.626-1.567.646 0 1.161.205 1.546.615.385.41.577.961.577 1.653v5.36h-1.354v-4.92c0-.554-.08-.95-.244-1.186-.162-.235-.431-.353-.807-.353-.83 0-1.61.542-2.344 1.628v4.832h-1.354zm8.762 2.48l.158-1.174c.784.37 1.556.556 2.316.556 1.526 0 2.289-.808 2.289-2.426v-1.175c-.5 1.045-1.32 1.567-2.46 1.567-.894 0-1.604-.325-2.131-.976-.527-.65-.79-1.528-.79-2.632 0-1.136.3-2.062.9-2.777.6-.714 1.377-1.072 2.33-1.072.834 0 1.55.34 2.15 1.017v-.852h1.362v5.43c0 1.168-.061 2.033-.182 2.594-.122.561-.35 1.02-.684 1.378-.591.628-1.51.942-2.756.942-.87 0-1.705-.133-2.502-.4zm4.763-5.064v-3.1c-.596-.618-1.244-.928-1.945-.928-.623 0-1.111.25-1.464.75-.353.499-.53 1.184-.53 2.054 0 1.636.576 2.454 1.726 2.454.783 0 1.521-.41 2.213-1.23zm7.835 1.635c-.811.747-1.592 1.12-2.344 1.12-.618 0-1.132-.193-1.54-.58-.407-.387-.611-.876-.611-1.467 0-.816.343-1.443 1.028-1.88.684-.438 1.666-.656 2.944-.656h.323v-.9c0-.867-.444-1.3-1.333-1.3-.715 0-1.487.22-2.316.66v-1.12c.912-.371 1.766-.557 2.564-.557.833 0 1.449.188 1.845.564.396.375.594.96.594 1.752v3.382c0 .774.239 1.161.715 1.161.06 0 .147-.01.261-.027l.097.749a2.33 2.33 0 0 1-1.018.22c-.632 0-1.035-.374-1.21-1.12zm-.2-.735v-1.931l-.453-.014c-.742 0-1.343.141-1.8.423-.459.282-.688.652-.688 1.11 0 .325.115.6.344.824.229.225.508.337.838.337.564 0 1.15-.25 1.76-.749zm4.124 1.684v-7.464h1.354v1.402c.536-1.045 1.315-1.567 2.337-1.567.137 0 .281.012.433.035v1.264a1.99 1.99 0 0 0-.619-.117c-.857 0-1.574.509-2.151 1.526v4.92h-1.354zM43.855 34.486l-.502-.605c-.751.573-1.628.86-2.632.86-1.063 0-1.937-.309-2.622-.925-.685-.616-1.027-1.4-1.027-2.354 0-1.567.827-2.63 2.48-3.189-.457-.829-.686-1.519-.686-2.068 0-.6.239-1.108.718-1.523.478-.414 1.06-.622 1.742-.622.66 0 1.204.194 1.632.581.429.387.643.879.643 1.474 0 1.017-.745 1.902-2.234 2.653a20.793 20.793 0 0 0 2.385 3.388c.417-.604.625-1.461.625-2.57l-.006-.509h1.347c0 1.503-.45 2.8-1.347 3.89.412.523.882 1.029 1.408 1.52h-1.924zm-1.093-1.388a31.136 31.136 0 0 1-2.749-4.02c-1.058.42-1.587 1.106-1.587 2.054 0 .72.244 1.331.732 1.835a2.388 2.388 0 0 0 1.783.756c.637 0 1.244-.208 1.821-.625zm-1.89-5.189c.972-.444 1.457-1.035 1.457-1.773 0-.706-.352-1.058-1.058-1.058-.696 0-1.045.355-1.045 1.065 0 .467.216 1.056.646 1.766zm13.265 6.832c-.683 0-1.556-.15-2.619-.447v-1.43c1.146.532 2.087.797 2.825.797.568 0 1.025-.148 1.37-.446.347-.298.52-.69.52-1.175 0-.4-.114-.738-.34-1.018-.227-.28-.645-.59-1.255-.934l-.7-.406c-.867-.495-1.477-.96-1.832-1.398a2.355 2.355 0 0 1-.533-1.53c0-.783.284-1.428.852-1.934.568-.507 1.292-.76 2.172-.76.784 0 1.61.13 2.481.392v1.32c-1.072-.422-1.872-.633-2.398-.633-.5 0-.912.133-1.238.399-.325.266-.487.6-.487 1.003 0 .34.119.64.357.9.238.262.673.573 1.306.935l.728.413c.88.5 1.494.971 1.842 1.416.348.444.522.978.522 1.6 0 .885-.326 1.595-.979 2.131-.653.536-1.518.805-2.594.805zm8.55-.083c-1.068 0-1.92-.354-2.557-1.062-.637-.708-.956-1.655-.956-2.842 0-1.2.32-2.15.959-2.848.64-.7 1.506-1.048 2.601-1.048s1.963.349 2.602 1.048c.639.698.958 1.643.958 2.835 0 1.218-.32 2.176-.962 2.872-.641.697-1.523 1.045-2.646 1.045zm.02-1.017c1.434 0 2.151-.967 2.151-2.9 0-1.911-.708-2.866-2.124-2.866-1.41 0-2.116.96-2.116 2.88 0 1.924.696 2.886 2.089 2.886zm5.704.845v-7.464h1.354v1.403c.715-1.045 1.59-1.567 2.625-1.567.647 0 1.162.205 1.547.615.385.41.577.96.577 1.653v5.36H73.16v-4.92c0-.555-.081-.95-.244-1.186-.162-.236-.432-.354-.807-.354-.83 0-1.61.543-2.344 1.629v4.831h-1.354zm10.715.172c-.619 0-1.37-.144-2.255-.433v-1.244c.885.44 1.655.66 2.31.66.39 0 .712-.105.969-.316a.982.982 0 0 0 .385-.79c0-.463-.36-.846-1.08-1.148l-.79-.337c-1.168-.486-1.752-1.185-1.752-2.096 0-.65.23-1.163.69-1.536.46-.374 1.092-.56 1.894-.56.417 0 .932.057 1.546.171l.282.055v1.127c-.756-.224-1.356-.336-1.8-.336-.871 0-1.306.316-1.306.948 0 .408.33.752.99 1.031l.652.275c.738.311 1.26.64 1.567.986.307.346.46.778.46 1.296 0 .655-.258 1.193-.776 1.615-.518.421-1.18.632-1.986.632zm9.608-.172V24.315h2.77c1.227 0 2.11.207 2.645.622.537.414.805 1.096.805 2.044 0 1.082-.367 1.93-1.1 2.543-.733.614-1.75.921-3.052.921h-.639v4.041h-1.43zm1.43-5.134h.583c.857 0 1.52-.197 1.987-.59.467-.395.7-.951.7-1.67 0-.61-.183-1.045-.55-1.307-.366-.26-.977-.391-1.834-.391h-.887v3.958zm6.39 5.134v-7.464h1.355v1.403c.536-1.045 1.315-1.567 2.337-1.567.137 0 .281.011.432.034v1.264a1.99 1.99 0 0 0-.618-.116c-.857 0-1.574.508-2.151 1.525v4.921h-1.354zm5.76 0v-7.464h1.354v7.464h-1.354zm0-8.817v-1.354h1.354v1.354h-1.354zm5.615 8.817l-2.776-7.464h1.354l2.171 5.808 2.289-5.808h1.264l-2.948 7.464h-1.354zm9.588-.948c-.811.747-1.593 1.12-2.344 1.12-.619 0-1.132-.194-1.54-.58-.407-.388-.611-.877-.611-1.468 0-.816.342-1.442 1.027-1.88.685-.437 1.667-.656 2.945-.656h.323v-.9c0-.866-.444-1.3-1.333-1.3-.715 0-1.487.22-2.316.66v-1.12c.912-.37 1.766-.556 2.563-.556.834 0 1.45.187 1.846.563.396.376.594.96.594 1.753v3.381c0 .774.238 1.161.715 1.161.06 0 .147-.009.261-.027l.096.75a2.33 2.33 0 0 1-1.017.219c-.632 0-1.035-.373-1.21-1.12zm-.2-.736v-1.93l-.453-.015c-.743 0-1.343.141-1.801.423-.458.282-.687.652-.687 1.11 0 .325.114.6.343.825.23.224.509.337.839.337.563 0 1.15-.25 1.76-.75zm6.364 1.856c-.687 0-1.223-.197-1.608-.591-.385-.394-.577-.942-.577-1.643V28.04h-.935v-1.018h.935V25.67l1.354-.131v1.484h1.952v1.018h-1.952v4.137c0 .976.421 1.464 1.264 1.464.18 0 .397-.03.653-.09v.935a4.186 4.186 0 0 1-1.086.172zm8.495-.412c-.907.275-1.684.412-2.33.412-1.1 0-1.996-.365-2.69-1.096-.695-.731-1.042-1.678-1.042-2.842 0-1.132.306-2.06.918-2.783.612-.724 1.394-1.086 2.347-1.086.902 0 1.6.32 2.093.962.492.641.738 1.553.738 2.735l-.006.42h-4.708c.197 1.773 1.065 2.66 2.604 2.66.564 0 1.256-.152 2.076-.454v1.072zm-4.618-4.296h3.292c0-1.388-.518-2.082-1.554-2.082-1.04 0-1.62.694-1.738 2.082zm11.401 4.536V24.315h1.444v9.092h4.577v1.08h-6.02zm7.547 0v-7.464h1.354v7.464h-1.354zm0-8.817v-1.354h1.354v1.354h-1.354zm4.068 8.817v-7.464h1.354v1.403c.66-1.045 1.508-1.567 2.543-1.567.999 0 1.68.522 2.041 1.567.642-1.05 1.476-1.574 2.502-1.574.66 0 1.17.193 1.533.58.361.388.542.93.542 1.626v5.43h-1.36V29.27c0-.852-.337-1.278-1.01-1.278-.702 0-1.437.497-2.207 1.49v5.004h-1.36V29.27c0-.857-.344-1.285-1.031-1.285-.683 0-1.414.5-2.193 1.498v5.003h-1.354zm13.14 0v-7.464h1.355v7.464h-1.354zm0-8.817v-1.354h1.355v1.354h-1.354zm6.31 8.989c-.687 0-1.223-.197-1.608-.591-.385-.394-.578-.942-.578-1.643V28.04h-.934v-1.018h.934V25.67l1.354-.131v1.484h1.952v1.018h-1.952v4.137c0 .976.422 1.464 1.265 1.464.179 0 .396-.03.653-.09v.935a4.186 4.186 0 0 1-1.086.172zm8.495-.412c-.908.275-1.684.412-2.33.412-1.1 0-1.997-.365-2.69-1.096-.695-.731-1.042-1.678-1.042-2.842 0-1.132.306-2.06.917-2.783.612-.724 1.394-1.086 2.347-1.086.903 0 1.6.32 2.093.962.493.641.739 1.553.739 2.735l-.007.42h-4.708c.197 1.773 1.066 2.66 2.605 2.66.564 0 1.255-.152 2.076-.454v1.072zM173.9 29.95h3.292c0-1.388-.518-2.082-1.553-2.082-1.04 0-1.62.694-1.739 2.082zm11.78 4.536v-1.402c-.55 1.05-1.38 1.574-2.488 1.574-.898 0-1.605-.328-2.12-.983-.516-.655-.773-1.55-.773-2.687 0-1.242.292-2.24.876-2.996.584-.756 1.353-1.134 2.306-1.134.884 0 1.617.339 2.199 1.017v-4.24h1.36v10.851h-1.36zm0-5.683c-.701-.619-1.365-.928-1.993-.928-1.297 0-1.945.992-1.945 2.976 0 1.745.577 2.618 1.732 2.618.751 0 1.487-.41 2.206-1.23v-3.436z"/>
    </g>
</svg>
