<?xml version="1.0" encoding="UTF-8"?>
<svg width="33px" height="33px" viewBox="0 0 33 33" version="1.1" xmlns="http://www.w3.org/2000/svg" xmlns:xlink="http://www.w3.org/1999/xlink">
    <!-- Generator: Sketch 52.2 (67145) - http://www.bohemiancoding.com/sketch -->
    <title>Artboard</title>
    <desc>Created with Sketch.</desc>
    <g id="Artboard" stroke="none" stroke-width="1" fill="none" fill-rule="evenodd" transform="translate(0.627783, 0.303412)">
        <g id="Group-5" transform="translate(2.976744, 0.000000)" fill="#1A3885">
            <path d="M12.9220652,0.00714002395 C20.0246123,0.00714002395 25.8178949,7.16493101 25.8178949,15.9402363 C25.8178949,24.7158737 20.0246123,31.8738473 12.9220652,31.8738473 C5.81925236,31.8738473 0.0261192039,24.7158737 0.0261192039,15.9402363 C0.0261192039,7.16493101 5.81925236,0.00714002395 12.9220652,0.00714002395 Z M12.9220652,1.67566399 C19.2806882,1.67566399 24.4674507,8.08436684 24.4674507,15.9402363 C24.4674507,23.7973677 19.2806882,30.2052735 12.9220652,30.2052735 C6.56284434,30.2052735 1.37636415,23.7973677 1.37636415,15.9402363 C1.37636415,8.08436684 6.56284434,1.67566399 12.9220652,1.67566399 L12.9220652,1.67566399 Z" id="Fill-1"></path>
            <polygon id="Fill-2" points="4.47224533 8.85115559 8.96346983 8.85115559 8.96346983 10.5659071 7.73296142 10.5659071 7.73296142 24.4749228 5.70275373 24.4749228 5.70275373 10.5659071 4.47224533 10.5659071"></polygon>
            <polygon id="Fill-3" points="9.26828243 8.85163713 11.2145699 8.88532808 12.4699356 21.2697992 13.6957781 8.85115559 15.6502019 8.91616302 13.3750083 24.4658898 13.2600706 24.4658898 11.6111235 24.475587"></polygon>
            <path d="M17.8521189,8.85115559 L18.7532397,8.85115559 C19.7755251,8.85115559 20.6137141,9.70691237 20.6137141,10.7558317 L20.6137141,13.2370398 L19.0713693,13.279166 L19.0713693,10.740489 C19.0713693,10.4389641 18.8302523,10.1920521 18.5365815,10.1920521 L18.2777971,10.1920521 C17.983761,10.1920521 17.7426772,10.4389641 17.7426772,10.740489 L17.7426772,13.0757915 C17.7426772,13.3849878 17.8039154,13.5809731 17.9770361,13.8391431 C18.7864159,15.0474344 19.5961444,16.2560246 20.4053416,17.4643159 C20.5553485,17.6862876 20.6137141,17.8578973 20.6137141,18.1345151 L20.6137141,22.570778 C20.6137141,23.6200128 19.7755251,24.4753877 18.7532397,24.4753877 L17.8521189,24.4753877 C16.8291693,24.4753877 15.9952145,23.6200128 15.9952145,22.570778 L15.9952145,18.6431505 L17.6265107,18.5988491 L17.6265107,22.4142122 C17.6265107,22.7160692 17.8675944,22.9627986 18.1613151,22.9627986 L18.4200829,22.9627986 C18.714119,22.9627986 18.9552193,22.7157371 18.9552193,22.4142122 L18.9552193,18.4917654 C18.9552193,18.1858735 18.8684598,18.0089503 18.7006194,17.7581694 C17.8757474,16.5201225 17.0507259,15.2807139 16.2258539,14.043464 C16.083236,13.8295954 16.0104244,13.6631664 16.0104244,13.395482 L16.0104244,10.7558317 C16.0104244,9.70658028 16.8291693,8.85115559 17.8521189,8.85115559" id="Fill-4"></path>
        </g>
    </g>
</svg>