<svg xmlns="http://www.w3.org/2000/svg" xmlns:xlink="http://www.w3.org/1999/xlink" width="150" height="58" viewBox="0 0 150 58">
    <defs>
        <path id="a" d="M.14 49.19h32.108V.117H.139V49.19zM6.038 6.28h20.31v36.75H6.039V6.278z"/>
        <linearGradient id="b" x1="25%" x2="75%" y1="25%" y2="75%">
            <stop offset="0%" stop-color="#00DC9A"/>
            <stop offset="100%" stop-color="#00EEE7"/>
        </linearGradient>
        <path id="d" d="M.139.15h32.109v5.946H.139z"/>
        <linearGradient id="e" x1="25.001%" x2="75%" y1="25.002%" y2="75%">
            <stop offset="0%" stop-color="#00DC9A"/>
            <stop offset="100%" stop-color="#00EEE7"/>
        </linearGradient>
    </defs>
    <g fill="none" fill-rule="evenodd">
        <path fill="#2A3749" fill-rule="nonzero" d="M59.287 30.475c0-2.784-1.96-4.625-4.507-4.625-2.548 0-4.508 1.841-4.508 4.625 0 2.783 1.96 4.625 4.508 4.625s4.507-1.842 4.507-4.625m-14.894 0c0-5.84 4.625-10.349 10.387-10.349 5.762 0 10.387 4.509 10.387 10.349S60.542 40.823 54.78 40.823c-5.762 0-10.387-4.508-10.387-10.348M22.151 14.203h5.88v19.598h-5.88zM19.279 14.202v19.599h-5.88v-1.842c-1.058 1.45-3.018 2.39-5.605 2.39-3.959 0-7.33-2.822-7.33-8.113V14.202h5.88v11.171c0 2.43 1.529 3.568 3.41 3.568 2.156 0 3.645-1.255 3.645-4.038v-10.7h5.88zM89.174 14.202v19.599h-5.88v-1.842c-1.058 1.45-3.018 2.39-5.605 2.39-3.959 0-7.33-2.822-7.33-8.113V14.202h5.88v11.171c0 2.43 1.528 3.568 3.41 3.568 2.155 0 3.645-1.255 3.645-4.038v-10.7h5.88zM104.87 33.8l-3.645-5.173-3.645 5.174h-6.742l7.016-9.956-6.78-9.642h6.741l3.41 4.86 3.41-4.86h6.743l-6.782 9.642 7.016 9.956zM117.287 32.062c0 .997-.868 1.422-1.804 1.422-.868 0-1.527-.33-1.865-1.032l1.127-.642c.113.33.356.512.738.512.312 0 .468-.096.468-.269 0-.477-2.134-.226-2.134-1.726 0-.946.798-1.423 1.7-1.423.703 0 1.328.312 1.692.928l-1.11.599c-.122-.226-.296-.382-.582-.382-.225 0-.364.087-.364.243 0 .494 2.134.165 2.134 1.77M120.972 31.194c0-.616-.433-1.024-.997-1.024-.564 0-.998.408-.998 1.024 0 .616.434 1.024.998 1.024.564 0 .997-.408.997-1.024m-3.296 0a2.273 2.273 0 0 1 2.3-2.29c1.274 0 2.298.997 2.298 2.29a2.274 2.274 0 0 1-2.299 2.29 2.273 2.273 0 0 1-2.299-2.29M123.009 27.03h1.302v6.333h-1.302zM129.367 29.025v4.338h-1.302v-.408c-.233.321-.667.53-1.24.53-.876 0-1.622-.625-1.622-1.797v-2.663h1.301v2.473c0 .538.338.79.755.79.477 0 .806-.278.806-.894v-2.369h1.302zM131.968 30.275v1.535c0 .373.32.408.893.373v1.18c-1.7.173-2.195-.339-2.195-1.553v-1.535h-.694v-1.25h.694v-.824l1.302-.39v1.214h.893v1.25h-.893zM133.597 29.026h1.302v4.337h-1.302v-4.337zm-.13-1.163c0-.425.356-.78.78-.78.426 0 .781.355.781.78 0 .425-.355.78-.78.78a.789.789 0 0 1-.781-.78zM138.931 31.194c0-.616-.434-1.024-.997-1.024-.564 0-.998.408-.998 1.024 0 .616.434 1.024.998 1.024.563 0 .997-.408.997-1.024m-3.296 0a2.273 2.273 0 0 1 2.299-2.29c1.275 0 2.298.997 2.298 2.29a2.273 2.273 0 0 1-2.298 2.29 2.273 2.273 0 0 1-2.3-2.29M145.132 30.7v2.663h-1.301V30.89c0-.538-.338-.79-.755-.79-.477 0-.807.278-.807.894v2.368h-1.301v-4.338h1.301v.408c.235-.321.668-.529 1.24-.529.877 0 1.623.625 1.623 1.796M149.39 32.062c0 .997-.868 1.422-1.805 1.422-.867 0-1.527-.33-1.865-1.032l1.128-.642c.112.33.355.512.737.512.312 0 .469-.096.469-.269 0-.477-2.134-.226-2.134-1.726 0-.946.798-1.423 1.7-1.423.702 0 1.327.312 1.691.928l-1.11.599c-.121-.226-.295-.382-.581-.382-.226 0-.365.087-.365.243 0 .494 2.135.165 2.135 1.77"/>
        <g transform="translate(34.551 .094)">
            <mask id="c" fill="#fff">
                <use xlink:href="#a"/>
            </mask>
            <path fill="url(#b)" fill-rule="nonzero" d="M16.193-15.939l40.592 40.592-40.592 40.592-40.591-40.592z" mask="url(#c)"/>
        </g>
        <g transform="translate(34.551 51.712)">
            <mask id="f" fill="#fff">
                <use xlink:href="#d"/>
            </mask>
            <path fill="url(#e)" fill-rule="nonzero" d="M16.193-15.905L35.221 3.123 16.193 22.15-2.834 3.123z" mask="url(#f)"/>
        </g>
        <path fill="#2A3749" fill-rule="nonzero" d="M43.31 28.517c-1.77.001-2.742-.354-2.742-1.733v-6.937h4.038v-5.645h-4.038V8.715l-5.88 1.764v3.723h-3.135v5.645h3.136v6.937c0 5.243 2.043 7.586 8.924 7.1-.581-1.772-.48-3.919-.304-5.367"/>
    </g>
</svg>
