<?xml version="1.0" encoding="UTF-8"?>
<svg width="30px" height="30px" viewBox="0 0 30 30" version="1.1" xmlns="http://www.w3.org/2000/svg" xmlns:xlink="http://www.w3.org/1999/xlink">
    <!-- Generator: Sketch 63.1 (92452) - https://sketch.com -->
    <title>icons/errordownload</title>
    <desc>Created with Sketch.</desc>
    <g id="icons/errordownload" stroke="none" stroke-width="1" fill="none" fill-rule="evenodd">
        <g id="Group" transform="translate(4.000000, 4.000000)" fill="#E26153">
            <rect id="Rectangle" x="0" y="0" width="22" height="22" rx="11"></rect>
        </g>
        <g id="Group-2" transform="translate(9.500000, 9.000000)">
            <g id="error-(3)" transform="translate(1.630919, 0.000000)" fill="#FFFFFF" fill-rule="nonzero">
                <path d="M7.69956668,5.68865892 L4.92025104,0.572007983 C4.71048152,0.218871913 4.34000025,0.00796651397 3.92924126,0.00796651397 C3.51848227,0.00796651397 3.148001,0.218871913 2.93823148,0.572007983 C2.93665046,0.574709537 2.93531503,0.577411091 2.93373401,0.580112645 L0.163658906,5.68056961 C-0.0506080859,6.0411503 -0.0546604167,6.47418175 0.152622444,6.83881478 C0.360381147,7.2036627 0.734669156,7.42130663 1.15443844,7.42130663 L6.68869434,7.42130663 C7.10846362,7.42130663 7.49813207,7.2036627 7.70587542,6.83881478 C7.91315828,6.4741971 7.9091213,6.04113495 7.69956668,5.68865892 Z M3.46828863,2.35078166 C3.46828863,2.09619091 3.67466586,1.88982903 3.92924126,1.88982903 C4.18383201,1.88982903 4.39019389,2.09620626 4.39019389,2.35078166 L4.39019389,4.19460753 C4.39019389,4.44916758 4.18381666,4.65556016 3.92924126,4.65556016 C3.67466586,4.65556016 3.46828863,4.44915223 3.46828863,4.19460753 L3.46828863,2.35078166 L3.46828863,2.35078166 Z M3.92924126,6.49940137 C3.54796912,6.49940137 3.23779697,6.18924457 3.23779697,5.80795708 C3.23779697,5.42668494 3.54795377,5.11652814 3.92924126,5.11652814 C4.3105134,5.11652814 4.6206702,5.42668494 4.6206702,5.80795708 C4.62068555,6.18922922 4.31052875,6.49940137 3.92924126,6.49940137 Z" id="Shape"></path>
            </g>
            <polyline id="Path-3" stroke="#FFFFFF" stroke-linecap="round" stroke-linejoin="round" points="3.93988799e-13 5.66220318 3.93988799e-13 9.9328264 10.9581488 9.9328264 10.9581488 5.66220318"></polyline>
        </g>
    </g>
</svg>