<?xml version="1.0" encoding="UTF-8"?>
<svg width="30px" height="30px" viewBox="0 0 30 30" version="1.1" xmlns="http://www.w3.org/2000/svg" xmlns:xlink="http://www.w3.org/1999/xlink">
    <!-- Generator: Sketch 63.1 (92452) - https://sketch.com -->
    <title>icons/download</title>
    <desc>Created with Sketch.</desc>
    <g id="icons/download" stroke="none" stroke-width="1" fill="none" fill-rule="evenodd">
        <g id="Group" transform="translate(4.000000, 4.000000)" fill="#6236FF">
            <rect id="Rectangle" x="0" y="0" width="22" height="22" rx="11"></rect>
        </g>
        <g id="download-(5)" transform="translate(11.000000, 10.087833)" fill="#FFFFFF" fill-rule="nonzero">
            <path d="M6.32546432,2.47819345 L7.66257668,2.47819345 L5.62011301,0.334965296 L5.62011301,1.77559098 C5.62011301,2.16506177 5.93324468,2.47819345 6.32546432,2.47819345 Z" id="Path"></path>
            <path d="M5.18438323,1.77559098 L5.18438323,0 L1.00136169,0 C0.459369759,0 0.0100528859,0.446646586 0.0100528859,0.988559968 L0.0100528859,9.30559523 C0.0100528859,9.84758714 0.459369759,10.2941552 1.00136169,10.2941552 L6.97089102,10.2941552 C7.51280439,10.2941552 7.96212128,9.84750861 7.96212128,9.30559523 L7.96212128,2.91392324 L6.32538579,2.91392324 C5.69362474,2.91392324 5.18438323,2.40468172 5.18438323,1.77559098 Z M2.24320724,5.32410265 C2.33030609,5.24242295 2.46924011,5.24784208 2.55091981,5.33501944 L3.76826146,6.64220876 L3.76826146,3.53217573 C3.76826146,3.41232647 3.8662771,3.31431083 3.98612634,3.31431083 C4.1059756,3.31431083 4.20399124,3.41232647 4.20399124,3.53217573 L4.20399124,6.64487907 L5.42133289,5.33768974 C5.50301259,5.25059092 5.64194661,5.24509324 5.72904544,5.32677293 C5.81622282,5.40853117 5.82164195,5.54738665 5.73996225,5.63456403 L4.14406661,7.34756007 C4.10322676,7.39107023 4.04605097,7.41557414 3.98337752,7.41557414 C3.92078258,7.41557414 3.8662771,7.39107023 3.82276694,7.34756007 L2.2268713,5.63456403 C2.15061075,5.54463783 2.15602988,5.40853117 2.24320724,5.32410265 Z M6.44523503,8.63291579 C6.44523503,8.75276505 6.34721939,8.85078069 6.22737015,8.85078069 L1.74480401,8.85078069 C1.62495476,8.85078069 1.52693912,8.75276505 1.52693912,8.63291579 C1.52693912,8.51306654 1.62495476,8.4150509 1.74480401,8.4150509 L6.23011899,8.4150509 C6.34996823,8.4150509 6.44523503,8.51314509 6.44523503,8.63291579 Z" id="Shape"></path>
        </g>
    </g>
</svg>