<svg xmlns="http://www.w3.org/2000/svg" width="31" height="31" viewBox="0 0 31 31">
    <g fill="none" fill-rule="evenodd" transform="translate(4.12 4.5)">
        <rect width="22" height="22" fill="#0091FF" rx="11"/>
        <path fill="#FFF" fill-rule="nonzero" d="M11.002 8.102c-2.19 0-4.175 1.198-5.64 3.144a.454.454 0 0 0 0 .541c1.465 1.948 3.45 3.146 5.64 3.146 2.189 0 4.174-1.198 5.64-3.143a.454.454 0 0 0 0-.542c-1.466-1.948-3.451-3.146-5.64-3.146zm.157 5.82a2.411 2.411 0 0 1-2.562-2.561 2.415 2.415 0 0 1 2.247-2.248 2.411 2.411 0 0 1 2.562 2.562 2.423 2.423 0 0 1-2.247 2.248zm-.073-1.11a1.296 1.296 0 0 1-1.378-1.379c.04-.647.565-1.17 1.211-1.212.783-.049 1.43.596 1.379 1.379a1.303 1.303 0 0 1-1.212 1.211z"/>
    </g>
</svg>
