<svg xmlns="http://www.w3.org/2000/svg" width="24" height="24" viewBox="0 0 24 24">
    <defs>
        <linearGradient id="a" x1="100%" x2="-98.618%" y1="100%" y2="-105.434%">
            <stop offset="0%" stop-color="#FF4E50"/>
            <stop offset="100%" stop-color="#F9D423"/>
        </linearGradient>
    </defs>
    <g fill="none" fill-rule="evenodd">
        <rect width="24" height="24" fill="url(#a)" rx="4"/>
        <path fill="#FFF" d="M17.4 15.2a1 1 0 0 1 1 1v1.2a1 1 0 0 1-1 1h-1.2a1 1 0 0 1-1-1v-1.2a1 1 0 0 1 1-1h1.2zm-4.8 0a1 1 0 0 1 1 1v1.2a1 1 0 0 1-1 1h-1.2a1 1 0 0 1-1-1v-1.2a1 1 0 0 1 1-1h1.2zm-4.8 0a1 1 0 0 1 1 1v1.2a1 1 0 0 1-1 1H6.6a1 1 0 0 1-1-1v-1.2a1 1 0 0 1 1-1h1.2zm9.6-4.8a1 1 0 0 1 1 1v1.2a1 1 0 0 1-1 1h-1.2a1 1 0 0 1-1-1v-1.2a1 1 0 0 1 1-1h1.2zm-4.8 0a1 1 0 0 1 1 1v1.2a1 1 0 0 1-1 1h-1.2a1 1 0 0 1-1-1v-1.2a1 1 0 0 1 1-1h1.2zm-4.8 0a1 1 0 0 1 1 1v1.2a1 1 0 0 1-1 1H6.6a1 1 0 0 1-1-1v-1.2a1 1 0 0 1 1-1h1.2zm9.6-4.8a1 1 0 0 1 1 1v1.2a1 1 0 0 1-1 1h-1.2a1 1 0 0 1-1-1V6.6a1 1 0 0 1 1-1h1.2zm-4.8 0a1 1 0 0 1 1 1v1.2a1 1 0 0 1-1 1h-1.2a1 1 0 0 1-1-1V6.6a1 1 0 0 1 1-1h1.2zm-4.8 0a1 1 0 0 1 1 1v1.2a1 1 0 0 1-1 1H6.6a1 1 0 0 1-1-1V6.6a1 1 0 0 1 1-1h1.2z"/>
    </g>
</svg>
