<svg xmlns="http://www.w3.org/2000/svg" width="15" height="15" viewBox="0 0 15 15">
    <defs>
        <linearGradient id="prefix__a" x1="50%" x2="50%" y1="0%" y2="100%">
            <stop offset="0%" stop-color="#FC913A"/>
            <stop offset="100%" stop-color="#FF534F"/>
        </linearGradient>
    </defs>
    <g fill="none" fill-rule="evenodd">
        <circle cx="7.5" cy="7.5" r="7" fill="url(#prefix__a)"/>
        <path fill="#FFF" fill-rule="nonzero" d="M10.302 6.518c-.102-.102-.267-.101-.368 0l-3.13 3.148c-.407.406-1.067.406-1.473 0-.407-.407-.407-1.067 0-1.474l3.223-3.24c.253-.253.665-.253.92.001.254.254.254.666 0 .92l-2.67 2.67v.001c-.102.101-.267.101-.368 0-.102-.102-.102-.267 0-.368l1.288-1.29c.102-.101.102-.266 0-.368-.101-.101-.266-.101-.368 0l-1.289 1.29c-.305.304-.305.799 0 1.104.305.305.8.305 1.105 0l.001-.001 2.669-2.67c.458-.457.458-1.199 0-1.656-.458-.458-1.2-.458-1.657 0l-3.223 3.24c-.61.61-.61 1.598 0 2.209.61.61 1.6.61 2.21 0l3.13-3.148c.102-.102.102-.267 0-.368z"/>
    </g>
</svg>
