<svg xmlns="http://www.w3.org/2000/svg" width="40" height="40" viewBox="0 0 40 40">
    <g fill="none" fill-rule="nonzero">
        <rect width="40" height="40" fill="#FD7044" rx="3"/>
        <path fill="#FFF" d="M23.875 13.919c1.78.355 3.125 1.946 3.125 3.85v7.596c0 2.164-1.738 3.924-3.875 3.924h-6.25c-2.137 0-3.875-1.76-3.875-3.924v-7.596c0-1.904 1.346-3.495 3.125-3.85v-.67c0-.42.336-.76.75-.76s.75.34.75.76v.596h4.75v-.597c0-.42.336-.76.75-.76s.75.34.75.76v.67zm-1.5 1.445h-4.75v.506c0 .42-.336.76-.75.76a.755.755 0 0 1-.75-.76v-.383a2.407 2.407 0 0 0-1.625 2.282v7.596c0 1.326 1.066 2.405 2.375 2.405h6.25c1.31 0 2.375-1.08 2.375-2.405v-7.596c0-1.06-.682-1.963-1.625-2.282v.383c0 .42-.336.76-.75.76a.755.755 0 0 1-.75-.76v-.506zm-5.5 4.34a.749.749 0 0 1-.53-.223.764.764 0 0 1 0-1.073.767.767 0 0 1 1.06 0 .768.768 0 0 1 0 1.073.749.749 0 0 1-.53.223zm3.125 0a.749.749 0 0 1-.53-.223.764.764 0 0 1 0-1.073.767.767 0 0 1 1.06 0 .768.768 0 0 1 0 1.073.749.749 0 0 1-.53.223zm3.125 0a.748.748 0 0 1-.53-.223.767.767 0 0 1 0-1.073.767.767 0 0 1 1.06 0 .768.768 0 0 1 0 1.073.749.749 0 0 1-.53.223zm-6.25 3.164a.748.748 0 0 1-.53-.222.768.768 0 0 1 0-1.074.767.767 0 0 1 1.06 0 .768.768 0 0 1 0 1.074.748.748 0 0 1-.53.222zm3.125 0a.748.748 0 0 1-.53-.222.768.768 0 0 1 0-1.074.767.767 0 0 1 1.06 0 .768.768 0 0 1 0 1.074.748.748 0 0 1-.53.222zm3.125 0a.747.747 0 0 1-.53-.222.767.767 0 0 1 0-1.074.767.767 0 0 1 1.06 0 .768.768 0 0 1 0 1.074.748.748 0 0 1-.53.222zm-6.25 3.165a.748.748 0 0 1-.53-.223.768.768 0 0 1 0-1.073.767.767 0 0 1 1.06 0 .768.768 0 0 1 0 1.073.748.748 0 0 1-.53.223zm3.125 0a.748.748 0 0 1-.53-.223.768.768 0 0 1 0-1.073.767.767 0 0 1 1.06 0 .768.768 0 0 1 0 1.073.748.748 0 0 1-.53.223zm3.125 0a.747.747 0 0 1-.53-.223.767.767 0 0 1 0-1.073.767.767 0 0 1 1.06 0 .768.768 0 0 1 0 1.073.748.748 0 0 1-.53.223z"/>
    </g>
</svg>
