<svg xmlns="http://www.w3.org/2000/svg" width="23" height="23" viewBox="0 0 23 23">
    <g fill="none" fill-rule="evenodd">
        <rect width="23" height="23" fill="#FD7044" rx="3"/>
        <path fill="#FFF" fill-rule="nonzero" stroke="#FFF" stroke-width=".5" d="M17.91 11.325a.388.388 0 0 0-.39.39v3.543c0 .964-.785 1.747-1.746 1.747H7.226a1.748 1.748 0 0 1-1.747-1.747v-3.602a.388.388 0 0 0-.39-.39.388.388 0 0 0-.389.39v3.602a2.528 2.528 0 0 0 2.526 2.526h8.548a2.528 2.528 0 0 0 2.526-2.526v-3.544a.39.39 0 0 0-.39-.39z"/>
        <path fill="#FFF" fill-rule="nonzero" stroke="#FFF" stroke-width=".5" d="M11.227 14.69a.38.38 0 0 0 .548 0l2.477-2.477a.388.388 0 0 0 0-.55.388.388 0 0 0-.551 0l-1.81 1.812V5.57a.388.388 0 0 0-.39-.39.388.388 0 0 0-.39.39v7.905L9.3 11.662a.388.388 0 0 0-.551 0 .388.388 0 0 0 0 .551l2.48 2.477z"/>
    </g>
</svg>
