<svg xmlns="http://www.w3.org/2000/svg" width="31" height="31" viewBox="0 0 31 31">
    <g fill="none" fill-rule="evenodd" transform="translate(5.12 4.5)">
        <rect width="22" height="22" fill="#fd7044" rx="11"/>
        <g fill="#FFF" fill-rule="nonzero">
            <path d="M13.278 10.315a.295.295 0 0 0-.269-.173h-1.183V6.296A.296.296 0 0 0 11.53 6h-1.184a.296.296 0 0 0-.296.296v3.846H8.867a.296.296 0 0 0-.223.49L10.715 13a.295.295 0 0 0 .445 0l2.071-2.367a.295.295 0 0 0 .047-.318z"/>
            <path d="M14.192 12.509v1.775H7.683V12.51H6.5v2.367c0 .327.265.592.592.592h7.692a.591.591 0 0 0 .592-.592v-2.367h-1.184z"/>
        </g>
    </g>
</svg>
