<?xml version="1.0" encoding="UTF-8"?>
<svg width="89px" height="89px" viewBox="0 0 89 89" version="1.1" xmlns="http://www.w3.org/2000/svg" xmlns:xlink="http://www.w3.org/1999/xlink">
    <!-- Generator: Sketch 52.2 (67145) - http://www.bohemiancoding.com/sketch -->
    <title>eye</title>
    <desc>Created with Sketch.</desc>
    <g id="Masters" stroke="none" stroke-width="1" fill="none" fill-rule="evenodd">
        <g id="eye">
            <g id="document-(1)" transform="translate(0.309433, 0.159867)" fill="#FD6946">
                <polygon id="Fill-1" points="30.3927445 35.9254507 57.8580747 35.9254507 57.8580747 32.8744827 30.3927445 32.8744827"></polygon>
                <polygon id="Fill-2" points="30.3927445 49.4663501 57.8580747 49.4663501 57.8580747 46.4139113 30.3927445 46.4139113"></polygon>
                <polygon id="Fill-3" points="30.3927445 42.695165 57.8580747 42.695165 57.8580747 39.644197 30.3927445 39.644197"></polygon>
                <path d="M44.124858,0.000735438815 C19.7564606,0.000735438815 0,19.757196 0,44.1259612 C0,68.4943586 19.7564606,88.2522901 44.124858,88.2522901 C68.4936231,88.2522901 88.2526578,68.4943586 88.2526578,44.1259612 C88.2511869,19.757196 68.4936231,0.000735438815 44.124858,0.000735438815 Z M54.6250857,18.994546 L63.8971305,27.4274552 L54.6250857,27.4274552 L54.6250857,18.994546 Z M45.4984974,63.1238166 L50.3090962,69.2584795 L29.7161408,69.2584795 C26.7545286,69.2584795 24.3540564,66.8583749 24.3540564,63.897866 L24.3540564,24.3551595 C24.3540564,21.3946506 26.7545286,18.994546 29.7161408,18.994546 L52.3352969,18.994546 L52.3352969,29.7172439 L63.8956597,29.7172439 L63.8956597,53.1810516 L57.1285194,53.1810516 L30.3927445,53.1836256 L30.3927445,56.2360644 L51.0847855,56.2360644 L47.4257599,59.9533399 L30.3927445,59.9533399 L30.3927445,63.0057787 L45.4984974,63.0057787 L45.4984974,63.1238166 Z" id="Fill-4"></path>
            </g>
            <g id="eye-(3)" transform="translate(60.790622, 62.793916) scale(1, -1) translate(-60.790622, -62.793916) translate(48.290622, 55.293916)" fill="#FFFFFF" stroke="#FD6946" stroke-width="2.5">
                <path d="M12.1091432,-1.19550424 C17.0332373,-1.19550424 21.6157846,1.41481799 25.0288696,5.95285752 C25.6150477,6.73433264 25.6150477,7.81597284 25.0274573,8.59932715 C21.6142178,13.1319726 17.0316922,15.7409794 12.1091432,15.7409794 C7.18537876,15.7409794 2.60265605,13.1305069 -0.810785826,8.59226475 C-1.39646947,7.8108746 -1.39646947,6.72919579 -0.809130651,5.94617693 C2.60392306,1.41350507 7.186612,-1.19550424 12.1091432,-1.19550424 Z M12.3614677,11.1082693 C14.2658502,10.9847191 15.821806,9.42849657 15.9446877,7.52649244 C16.0904958,5.20235713 14.1781354,3.29114356 11.8552171,3.43730638 C9.9475979,3.5564831 8.39304355,5.11103745 8.27383974,7.01908906 C8.12787591,9.34253769 10.0398157,11.2537586 12.3614677,11.1082693 Z M12.3654328,11.2549204 C9.95809678,11.4058052 7.9688091,9.41865474 8.12680839,7.01755911 C8.24959708,5.0227625 9.85849569,3.41606224 11.857303,3.2855162 C14.2649214,3.13424608 16.2545691,5.12153344 16.0962832,7.52714918 C15.9663785,9.52494174 14.3579718,11.1314284 12.3654329,11.2549204 Z" id="Fill-1"></path>
            </g>
        </g>
    </g>
</svg>