<svg enable-background="new 0 0 58 58" viewBox="0 0 58 58" xmlns="http://www.w3.org/2000/svg"><path d="m51.5 14-14-14h-31v58h45z" fill="#edeada"/><g fill="#cec9ae"><path d="m16.5 23h25c.552 0 1-.447 1-1s-.448-1-1-1h-25c-.552 0-1 .447-1 1s.448 1 1 1z"/><path d="m16.5 15h10c.552 0 1-.447 1-1s-.448-1-1-1h-10c-.552 0-1 .447-1 1s.448 1 1 1z"/><path d="m41.5 29h-25c-.552 0-1 .447-1 1s.448 1 1 1h25c.552 0 1-.447 1-1s-.448-1-1-1z"/><path d="m41.5 37h-25c-.552 0-1 .447-1 1s.448 1 1 1h25c.552 0 1-.447 1-1s-.448-1-1-1z"/><path d="m41.5 45h-25c-.552 0-1 .447-1 1s.448 1 1 1h25c.552 0 1-.447 1-1s-.448-1-1-1z"/><path d="m37.5 0v14h14z"/></g></svg>