<svg xmlns="http://www.w3.org/2000/svg" width="40" height="40" viewBox="0 0 40 40">
    <g fill="none" fill-rule="evenodd">
        <path fill="#FFF" fill-rule="nonzero" d="M16.517 15.787l3.64 2.157 3.64 2.09-3.64 2.09-3.64 2.09v-4.18z"/>
        <rect width="40" height="40" fill="#FD7044" fill-rule="nonzero" rx="3"/>
        <path fill="#FFF" fill-rule="nonzero" d="M28.994 18.84l-1.973 8.59a.238.238 0 0 1-.234.181H11.662a.236.236 0 0 1-.234-.284l2.049-8.59a.238.238 0 0 1 .233-.18h15.05a.236.236 0 0 1 .234.283zM11.24 14.611h3.492c.056 0 .11.02.153.054l1.173.945c.13.105.293.162.461.162h10.078c.133 0 .24.104.24.232v1.625a.236.236 0 0 1-.24.232H13.495a.715.715 0 0 0-.702.543l-1.65 7.056a.072.072 0 0 1-.086.053.07.07 0 0 1-.056-.068L11 14.843c0-.128.107-.232.24-.232z"/>
    </g>
</svg>
