<svg xmlns="http://www.w3.org/2000/svg" width="31" height="31" viewBox="0 0 31 31">
    <g fill="none" fill-rule="evenodd" transform="translate(4.618 4.5)">
        <rect width="22" height="22" fill="#FD7044" rx="11"/>
        <g fill="#FFF" fill-rule="nonzero">
            <path d="M4.766 1.484L3.49.048c-.06-.067-.171-.024-.171.065v.525H.195C.087.638 0 .725 0 .833v1.366c0 .108.087.196.195.196H3.32v.719c0 .09.11.132.17.065l1.277-1.436c.065-.074.065-.185 0-.26zM5.662 10.009h-.976c-.108 0-.196.087-.196.195v.586c0 .107.088.195.196.195h.976c.107 0 .195-.088.195-.195v-.586c0-.108-.088-.195-.195-.195zM3.905 10.397H1.758c-.108 0-.196.088-.196.195 0 .108.088.196.196.196h2.147c.108 0 .195-.088.195-.196 0-.107-.087-.195-.195-.195zM11.393 2.785H7.916c-.067 0-.128.033-.164.09-.176.273-.699 1.08-.724 1.081h-2.81c-.073 0-.14.04-.173.105L1.907 8.16c-.068.13.026.286.173.286h6.587c.073 0 .14-.041.174-.106l2.726-5.27c.067-.13-.028-.284-.174-.284zM5.271 8.837h-.195c-.108 0-.195.07-.195.156v.469c0 .086.087.156.195.156h.195c.108 0 .195-.07.195-.156v-.469c0-.086-.087-.156-.195-.156zM8.59 10.4H6.443c-.108 0-.196.087-.196.194 0 .108.088.196.196.196H8.59c.108 0 .195-.088.195-.196 0-.107-.087-.195-.195-.195z" transform="translate(5 5.5)"/>
        </g>
    </g>
</svg>
