<svg xmlns="http://www.w3.org/2000/svg" width="98" height="98" viewBox="0 0 98 98">
    <g fill="none" fill-rule="evenodd" transform="translate(1 1)">
        <circle cx="48" cy="48" r="48" fill="#FFF" stroke="#333"/>
        <path fill="#FE584C" fill-rule="nonzero" d="M56.088 64.052l-.563 2.299c-1.687.666-3.035 1.173-4.039 1.521-1.004.35-2.172.524-3.502.524-2.043 0-3.632-.5-4.765-1.495-1.133-.997-1.7-2.262-1.7-3.796 0-.594.041-1.205.127-1.827.086-.623.223-1.325.41-2.11l2.11-7.463c.187-.715.347-1.392.474-2.032.13-.637.192-1.222.192-1.75 0-.952-.197-1.62-.59-1.994-.393-.374-1.143-.563-2.256-.563-.545 0-1.105.087-1.676.256-.574.17-1.064.333-1.476.485l.564-2.3c1.382-.563 2.702-1.045 3.965-1.445 1.263-.4 2.457-.601 3.586-.601 2.028 0 3.594.49 4.693 1.47 1.1.982 1.649 2.254 1.649 3.822 0 .324-.036.896-.114 1.713-.076.818-.217 1.568-.422 2.25l-2.1 7.434c-.172.597-.327 1.28-.462 2.048-.138.763-.205 1.346-.205 1.737 0 .987.22 1.661.661 2.02.445.358 1.21.536 2.298.536.51 0 1.091-.09 1.737-.268.643-.178 1.113-.335 1.404-.471zm.532-31.21c0 1.295-.488 2.402-1.469 3.311-.978.913-2.157 1.37-3.536 1.37-1.384 0-2.566-.457-3.556-1.37-.987-.91-1.482-2.016-1.482-3.31 0-1.293.495-2.401 1.482-3.322.988-.92 2.172-1.38 3.556-1.38 1.378 0 2.558.461 3.536 1.38.982.92 1.47 2.029 1.47 3.321z"/>
    </g>
</svg>
