<?xml version="1.0" encoding="UTF-8"?>
<svg width="9px" height="15px" viewBox="0 0 9 15" version="1.1" xmlns="http://www.w3.org/2000/svg" xmlns:xlink="http://www.w3.org/1999/xlink">
    <!-- Generator: sketchtool 59.1 (101010) - https://sketch.com -->
    <title>33904284-01AC-4ECD-92DF-53EB855588E4</title>
    <desc>Created with sketchtool.</desc>
    <g id="Time-Sheet-Web" stroke="none" stroke-width="1" fill="none" fill-rule="evenodd">
        <g id="TS_main" transform="translate(-1201.000000, -513.000000)" fill="#FFFFFF" fill-rule="nonzero">
            <g id="Group-6" transform="translate(20.000000, 417.000000)">
                <g id="Group-2-Copy-3" transform="translate(0.000000, 83.000000)">
                    <g id="Group" transform="translate(28.500000, 8.000000)">
                        <g id="Group-2" transform="translate(1144.000000, 0.500000)">
                            <g id="Group-5" transform="translate(2.500000, 2.000000)">
                                <g id="document-with-paperclip" transform="translate(10.500000, 10.000000) rotate(-315.000000) translate(-10.500000, -10.000000) translate(4.000000, 2.500000)">
                                    <path d="M5.89444444,1.5845 C5.39440741,1.08403704 4.72783333,0.808462963 4.01738889,0.808462963 C3.30737037,0.808462963 2.64037037,1.08403704 2.14033333,1.5845 L1.75146296,1.9737963 C1.251,2.47425926 0.975425926,3.14040741 0.975425926,3.85042593 C0.975425926,4.56044444 1.251,5.22659259 1.75146296,5.72705556 L7.03890741,11.0153519 C7.33237037,11.3088148 7.72337037,11.4693889 8.14035185,11.4693889 C8.14077778,11.4693889 8.14162963,11.4693889 8.14248148,11.4693889 C8.55818519,11.4693889 8.94748148,11.307963 9.23881481,11.0162037 L9.70435185,10.5498148 C9.99738889,10.2572037 10.1592407,9.86790741 10.1592407,9.45262963 C10.1600926,9.03564815 9.99866667,8.6437963 9.70435185,8.34990741 L5.03833333,3.68474074 C4.86072222,3.5067037 4.5727963,3.5067037 4.39518519,3.68474074 C4.21714815,3.86235185 4.21714815,4.15027778 4.39518519,4.32788889 L9.06077778,8.99348148 C9.18259259,9.11572222 9.24988889,9.27842593 9.24903704,9.4522037 C9.24903704,9.62427778 9.18259259,9.78485185 9.06162963,9.90538889 L8.59438889,10.3734815 C8.47427778,10.4935926 8.31327778,10.560037 8.14035185,10.560037 L8.13992593,10.560037 C7.96657407,10.560037 7.80387037,10.4935926 7.68205556,10.3722037 L2.39461111,5.08390741 C2.0657963,4.75551852 1.88477778,4.31766667 1.88477778,3.85042593 C1.88477778,3.38318519 2.0657963,2.94533333 2.39461111,2.61694444 L2.78305556,2.22764815 C3.44111111,1.56959259 4.59409259,1.57044444 5.25087037,2.22764815 L11.4710926,8.44872222 C11.7994815,8.77711111 11.9809259,9.21496296 11.9809259,9.6822037 C11.9809259,10.1494444 11.7994815,10.5872963 11.4710926,10.9156852 L9.60511111,12.7825185 C8.94705556,13.4405741 7.7945,13.4405741 7.13814815,12.7825185 L1.38388889,7.02740741 C1.20585185,6.84937037 0.917925926,6.84937037 0.740314815,7.02740741 C0.562703704,7.20501852 0.562703704,7.49294444 0.740314815,7.67055556 L6.49457407,13.4265185 C6.99461111,13.9269815 7.66118519,14.2025556 8.3712037,14.2025556 C9.08122222,14.2025556 9.74737037,13.9269815 10.2482593,13.4265185 L12.1142407,11.5596852 C12.6151296,11.0587963 12.8902778,10.3926481 12.8902778,9.68262963 C12.8902778,8.97261111 12.6151296,8.30603704 12.1142407,7.806 L5.89444444,1.5845 Z" id="Path"></path>
                                </g>
                            </g>
                        </g>
                    </g>
                </g>
            </g>
        </g>
    </g>
</svg>