<svg xmlns="http://www.w3.org/2000/svg" width="98" height="98" viewBox="0 0 98 98">
    <g fill="none" fill-rule="evenodd" transform="translate(1 1.068)">
        <circle cx="48" cy="48" r="48" fill="#FFF" stroke="#333"/>
        <path fill="#FF544E" fill-rule="nonzero" d="M50.159 48l11.894 11.894c.596.596.596 1.563 0 2.159-.596.596-1.562.596-2.159 0L48 50.158 36.106 62.053c-.597.596-1.563.596-2.159 0-.596-.596-.596-1.563 0-2.159L45.841 48 33.947 36.106c-.596-.597-.596-1.563 0-2.159.596-.596 1.563-.596 2.159 0L48 45.841l11.894-11.894c.596-.596 1.563-.596 2.159 0 .596.596.596 1.562 0 2.159L50.159 48z"/>
    </g>
</svg>
