<svg xmlns="http://www.w3.org/2000/svg" width="36" height="37" viewBox="0 0 36 37">
    <g fill="none" fill-rule="evenodd" transform="translate(0 .472)">
        <circle cx="17.85" cy="17.85" r="17.85" fill="#FFF"/>
        <g fill="#FF504F" fill-rule="nonzero">
            <path d="M1.922 8.738C1.89 8.48 1.875 8.225 1.875 8c0-3.356 2.769-6.125 6.125-6.125 1.566 0 3.031.631 4.11 1.616l-.541.55c-.122.121-.169.3-.122.468.056.16.187.282.356.32.094.018 3.194 1.017 2.997.977.251.084.622-.184.553-.553l-.665-3.34c-.038-.17-.16-.31-.329-.357-.159-.047-.337 0-.459.122l-.46.45C12.026.806 10.082 0 8 0 3.603 0 0 3.603 0 8v.019c0 .264.012.468.026.624.019.207.171.377.375.418l.963.192c.314.063.596-.2.558-.515zM15.602 6.938l-.966-.196c-.314-.064-.598.199-.56.516.034.273.049.54.049.742 0 3.356-2.769 6.125-6.125 6.125-1.566 0-3.031-.631-4.11-1.625l.541-.54c.122-.122.169-.3.122-.47-.056-.159-.187-.28-.356-.318-.094-.02-3.194-1.018-2.997-.978-.16-.028-.319.019-.422.131-.112.103-.16.272-.131.422l.666 3.31c.037.168.159.309.328.355.195.05.359-.01.459-.121l.45-.45C3.966 15.162 5.91 16 8 16c4.397 0 8-3.603 8-8v-.028c0-.208-.008-.412-.025-.615-.018-.207-.17-.377-.373-.419z" transform="matrix(1 0 0 -1 9.85 25.85)"/>
        </g>
    </g>
</svg>
