<svg xmlns="http://www.w3.org/2000/svg" width="70" height="70" viewBox="0 0 70 70">
    <defs>
        <linearGradient id="a" x1="100%" x2="-98.618%" y1="100%" y2="-105.434%">
            <stop offset="0%" stop-color="#FF4E50"/>
            <stop offset="100%" stop-color="#F9D423"/>
        </linearGradient>
    </defs>
    <path fill="url(#a)" fill-rule="evenodd" d="M145.5 35c-9.649 0-17.5 7.85-17.5 17.5S135.852 70 145.5 70c9.65 0 17.5-7.85 17.5-17.5S155.15 35 145.5 35zm0 32.375c-8.202 0-14.875-6.673-14.875-14.875s6.673-14.875 14.875-14.875c8.203 0 14.875 6.673 14.875 14.875s-6.672 14.875-14.875 14.875zm0-23.625c.22.143-.092 0 0 0-.774 0-1.08.137-.875 0-.43.361-.433.361 0 0l-7 7c-.12.084-.12.87 0 1.75.603-.154.918-.033.875 0 .675-.033.991-.154.875 0l4.375-4.375v12.25c.08.32.633.875 1.75.875.245 0 .798-.556.875-.875v-12.25l4.375 4.375c.126.087.906.087 1.75 0 .12-.882.12-1.666 0-1.75l-7-7zm-14-10.5h-28c-1.002 0-1.75.784-1.75 1.75s.748 1.75 1.75 1.75h28c1.002 0 1.75-.784 1.75-1.75s-.747-1.75-1.75-1.75zm-6.125 23.625h-22.75c-3.265.164-6.273-2.83-6.125-6.125V9.625c-.148-3.296 2.86-6.289 6.125-6.125h29.75c3.265-.164 6.273 2.83 6.125 6.125v22.75c.148.793.899 1.54 1.75 1.75 1-.21 1.75-.957 1.75-1.75V9.625C142 4.489 137.488 0 132.375 0h-29.75C97.512 0 93 4.49 93 9.625V50.75c0 5.136 4.512 9.625 9.625 9.625h22.75c.957 0 1.708-.747 1.75-1.75-.042-.839-.793-1.586-1.75-1.75zm6.125-29.75h-28c-1.002 0-1.75.784-1.75 1.75s.748 1.75 1.75 1.75h28c1.002 0 1.75-.784 1.75-1.75s-.747-1.75-1.75-1.75zm0-7h-28c-1.002 0-1.75.784-1.75 1.75s.748 1.75 1.75 1.75h28c1.002 0 1.75-.784 1.75-1.75s-.747-1.75-1.75-1.75zM121.875 14c.99 0 1.75-.784 1.75-1.75s-.76-1.75-1.75-1.75h-8.75c-.99 0-1.75.784-1.75 1.75s.76 1.75 1.75 1.75h8.75zm4.375 26.25H103.5c-1.004 0-1.75.784-1.75 1.75s.746 1.75 1.75 1.75h22.75c1.004 0 1.75-.784 1.75-1.75s-.745-1.75-1.75-1.75zm-2.625 9.625c1.015 0 1.75-.784 1.75-1.75s-.735-1.75-1.75-1.75H103.5c-1.015 0-1.75.784-1.75 1.75s.735 1.75 1.75 1.75h20.125z" transform="translate(-93)"/>
</svg>
